<svg width="16" height="16" viewBox="0 0 16 16" fill="none" xmlns="http://www.w3.org/2000/svg">
<g clip-path="url(#clip0_819_59905)">
<path d="M15.333 2.66663V6.66663H11.333" stroke="#2A2A2A" stroke-width="1.5" stroke-linecap="round" stroke-linejoin="round"/>
<path d="M13.6602 10.0001C13.2269 11.2267 12.4066 12.2792 11.323 12.9991C10.2394 13.7189 8.95122 14.0671 7.65253 13.9911C6.35383 13.9151 5.11502 13.4191 4.12275 12.5778C3.13048 11.7365 2.43853 10.5955 2.15116 9.32675C1.86378 8.05798 1.99656 6.73017 2.52949 5.54343C3.06241 4.35668 3.9666 3.37529 5.10581 2.74714C6.24503 2.11899 7.55753 1.87812 8.84555 2.06081C10.1336 2.24351 11.3273 2.83988 12.2469 3.76005L15.3336 6.66672" stroke="#2A2A2A" stroke-width="1.5" stroke-linecap="round" stroke-linejoin="round"/>
</g>
<defs>
<clipPath id="clip0_819_59905">
<rect width="16" height="16" fill="white"/>
</clipPath>
</defs>
</svg>
