<svg width="16" height="16" viewBox="0 0 16 16" fill="none" xmlns="http://www.w3.org/2000/svg">
<path fill-rule="evenodd" clip-rule="evenodd" d="M7.33325 5.3335C7.33325 4.9655 7.63192 4.66683 7.99992 4.66683C8.36792 4.66683 8.66659 4.9655 8.66659 5.3335C8.66659 5.7015 8.36792 6.00016 7.99992 6.00016C7.63192 6.00016 7.33325 5.7015 7.33325 5.3335ZM7.33325 7.3335C7.33325 6.9655 7.63192 6.66683 7.99992 6.66683C8.36792 6.66683 8.66659 6.9655 8.66659 7.3335V10.6668C8.66659 11.0348 8.36792 11.3335 7.99992 11.3335C7.63192 11.3335 7.33325 11.0348 7.33325 10.6668V7.3335ZM7.99992 13.3335C5.05925 13.3335 2.66659 10.9408 2.66659 8.00016C2.66659 5.0595 5.05925 2.66683 7.99992 2.66683C10.9406 2.66683 13.3333 5.0595 13.3333 8.00016C13.3333 10.9408 10.9406 13.3335 7.99992 13.3335ZM7.99992 1.3335C4.31792 1.3335 1.33325 4.31816 1.33325 8.00016C1.33325 11.6822 4.31792 14.6668 7.99992 14.6668C11.6813 14.6668 14.6666 11.6822 14.6666 8.00016C14.6666 4.31816 11.6813 1.3335 7.99992 1.3335Z" fill="#2A2A2A"/>
</svg>
