<svg width="12" height="12" viewBox="0 0 12 12" fill="none" xmlns="http://www.w3.org/2000/svg">
<path d="M5 1.5H1.5V5H5V1.5Z" stroke="#555555" stroke-linecap="round" stroke-linejoin="round"/>
<path d="M7 3.25C7 4.2165 7.7835 5 8.75 5C9.7165 5 10.5 4.2165 10.5 3.25C10.5 2.2835 9.7165 1.5 8.75 1.5C7.7835 1.5 7 2.2835 7 3.25Z" stroke="#555555" stroke-linecap="round" stroke-linejoin="round"/>
<path d="M10.5 7H7V10.5H10.5V7Z" stroke="#555555" stroke-linecap="round" stroke-linejoin="round"/>
<path d="M1.5 8.75C1.5 9.7165 2.2835 10.5 3.25 10.5C4.2165 10.5 5 9.7165 5 8.75C5 7.7835 4.2165 7 3.25 7C2.2835 7 1.5 7.7835 1.5 8.75Z" stroke="#555555" stroke-linecap="round" stroke-linejoin="round"/>
</svg>
