<svg width="40" height="40" viewBox="0 0 40 40" fill="none" xmlns="http://www.w3.org/2000/svg">
<mask id="mask0_237_28099" style="mask-type:alpha" maskUnits="userSpaceOnUse" x="0" y="0" width="40" height="40">
<rect width="40" height="40" rx="20" fill="#2A2A2A"/>
</mask>
<g mask="url(#mask0_237_28099)">
<rect width="40" height="40" rx="20" fill="#E6EFE0"/>
<path d="M30.1508 18.0474L30.0726 17.3218C29.9764 17.3308 29.8741 17.3368 29.7659 17.3368C29.3238 17.3368 28.7946 17.2435 28.2534 17.0448C27.5287 16.7828 26.9394 16.3824 26.6116 16L26.0613 16.4787C26.4252 16.8942 26.9514 17.2706 27.5858 17.5597C27.0837 18.9808 26.2237 20.2303 25.1081 21.1938V19.1584C25.1081 17.9902 24.1609 17.0448 22.9943 17.0418C21.8276 17.0418 20.8834 17.9872 20.8804 19.1584V23.163C20.4384 23.2322 19.9873 23.2714 19.5273 23.2714C15.8167 23.2714 12.6685 20.9018 11.4837 17.5958C12.1543 17.3037 12.7106 16.9123 13.0894 16.4787L12.5392 16C12.2084 16.3824 11.622 16.7828 10.8974 17.0448C10.3561 17.2435 9.82691 17.3368 9.38489 17.3338C9.27664 17.3338 9.1744 17.3278 9.07818 17.3188L9 18.0444C9.12328 18.0565 9.25258 18.0655 9.38489 18.0655C9.8239 18.0655 10.305 17.9902 10.7981 17.8427C12.0821 21.4317 15.501 24 19.5273 24C23.5626 24 26.9905 21.4166 28.2654 17.8156C28.7886 17.9782 29.2998 18.0655 29.7629 18.0655C29.8952 18.0655 30.0215 18.0595 30.1477 18.0444L30.1508 18.0474ZM21.6141 19.1584C21.6141 18.7761 21.7674 18.4298 22.02 18.1799C22.2726 17.93 22.6154 17.7734 22.9973 17.7734C23.3791 17.7734 23.7249 17.927 23.9745 18.1799C24.2241 18.4328 24.3805 18.7761 24.3805 19.1584V21.7539C24.0557 21.9797 23.7159 22.1814 23.3611 22.3621V19.1584H22.6304V22.6842C22.2997 22.8137 21.9629 22.9281 21.6111 23.0154V19.1584H21.6141Z" fill="#112F30"/>
</g>
</svg>
