<svg width="22" height="20" viewBox="0 0 22 20" fill="none" xmlns="http://www.w3.org/2000/svg">
<path d="M19.0925 8.01332C19.0057 8.01332 18.9337 8.05056 18.8491 8.05988C18.0001 4.39782 14.8308 1.66699 11.0243 1.66699C7.21785 1.66699 4.04224 4.40248 3.19541 8.06919C3.09802 8.05522 3.0091 8.01099 2.90748 8.01099C1.8553 8.01099 1 8.85375 1 9.89207C1 10.9304 1.8553 11.7732 2.90748 11.7732C2.98793 11.7732 3.0578 11.7359 3.13613 11.7266C3.90674 15.5004 7.14375 18.3337 11.0243 18.3337C14.9049 18.3337 18.1356 15.5051 18.9104 11.7382C18.974 11.7452 19.0269 11.7755 19.0925 11.7755C20.1447 11.7755 21 10.9327 21 9.8944C21 8.85608 20.1468 8.01332 19.0925 8.01332Z" stroke="#2A2A2A" stroke-width="1.5" stroke-linecap="round" stroke-linejoin="round"/>
<path d="M9.33341 7.50161C9.33341 7.96272 8.95932 8.33366 8.50008 8.33366C8.04084 8.33366 7.66675 7.96272 7.66675 7.50161C7.66675 7.04051 8.04084 6.66699 8.50008 6.66699C8.95932 6.66699 9.33341 7.03793 9.33341 7.50161Z" fill="#2A2A2A"/>
<path d="M14.3334 7.50161C14.3334 7.96272 13.9593 8.33366 13.5001 8.33366C13.0408 8.33366 12.6667 7.96272 12.6667 7.50161C12.6667 7.04051 13.0408 6.66699 13.5001 6.66699C13.9593 6.66699 14.3334 7.03793 14.3334 7.50161Z" fill="#2A2A2A"/>
<path d="M14.3334 11.667C12.4918 13.8892 9.50835 13.8892 7.66675 11.667" stroke="#2A2A2A" stroke-width="1.5" stroke-linecap="round" stroke-linejoin="round"/>
</svg>
