<svg
                width="22"
                height="20"
                viewBox="0 0 22 20"
                fill="none"
                xmlns="http://www.w3.org/2000/svg"
              >
                <path
                  d="M16.5642 2.76005C15.977 2.76005 15.3955 2.88009 14.8515 3.1114C14.0714 1.70894 12.6177 0.833496 11 0.833496C9.38227 0.833496 7.92861 1.70894 7.14853 3.1114C6.60737 2.88009 6.02591 2.76005 5.43581 2.76005C2.98906 2.76005 1 4.78615 1 7.27486C1 9.60546 2.74439 11.5262 4.97524 11.7633V17.7479C4.97524 18.07 5.23431 18.3335 5.55095 18.3335H16.449C16.7657 18.3335 17.0248 18.07 17.0248 17.7479V11.7633C19.2556 11.5262 21 9.60546 21 7.27486C21 4.78615 19.0109 2.76298 16.5642 2.76298V2.76005Z"
                  fill="#98B584"
                  stroke="#98B584"
                  stroke-miterlimit="10"
                />
                <path d="M4 15H18" stroke="white" />
              </svg>