<svg width="16" height="16" viewBox="0 0 16 16" fill="none" xmlns="http://www.w3.org/2000/svg">
<g clip-path="url(#clip0_819_59253)">
<path d="M15.3333 2.66663V6.66663H11.3333" stroke="#2A2A2A" stroke-width="1.5" stroke-linecap="round" stroke-linejoin="round"/>
<path d="M13.66 10.0001C13.2266 11.2267 12.4064 12.2792 11.3228 12.9991C10.2392 13.7189 8.95097 14.0671 7.65228 13.9911C6.35359 13.9151 5.11477 13.4191 4.1225 12.5778C3.13024 11.7365 2.43828 10.5955 2.15091 9.32675C1.86354 8.05798 1.99632 6.73017 2.52924 5.54343C3.06217 4.35668 3.96636 3.37529 5.10557 2.74714C6.24478 2.11899 7.55729 1.87812 8.84531 2.06081C10.1333 2.24351 11.3271 2.83988 12.2467 3.76005L15.3333 6.66672" stroke="#2A2A2A" stroke-width="1.5" stroke-linecap="round" stroke-linejoin="round"/>
</g>
<defs>
<clipPath id="clip0_819_59253">
<rect width="16" height="16" fill="white"/>
</clipPath>
</defs>
</svg>
