<svg width="12" height="12" viewBox="0 0 12 12" fill="none" xmlns="http://www.w3.org/2000/svg">
<path d="M5.14538 1.92998L0.910377 8.99998C0.823061 9.15119 0.77686 9.32263 0.776371 9.49724C0.775882 9.67185 0.821122 9.84355 0.90759 9.99524C0.994058 10.1469 1.11874 10.2734 1.26923 10.3619C1.41972 10.4505 1.59078 10.4981 1.76538 10.5H10.2354C10.41 10.4981 10.581 10.4505 10.7315 10.3619C10.882 10.2734 11.0067 10.1469 11.0932 9.99524C11.1796 9.84355 11.2249 9.67185 11.2244 9.49724C11.2239 9.32263 11.1777 9.15119 11.0904 8.99998L6.85538 1.92998C6.76624 1.78303 6.64074 1.66154 6.49097 1.57722C6.34121 1.4929 6.17224 1.44861 6.00038 1.44861C5.82851 1.44861 5.65954 1.4929 5.50978 1.57722C5.36002 1.66154 5.23451 1.78303 5.14538 1.92998V1.92998Z" stroke="#555555" stroke-linecap="round" stroke-linejoin="round"/>
<path d="M6 4.5V6.5" stroke="#555555" stroke-linecap="round" stroke-linejoin="round"/>
<path d="M6 8.5H6.005" stroke="#555555" stroke-linecap="round" stroke-linejoin="round"/>
</svg>
