<svg
  width="199"
  height="180"
  viewBox="0 0 199 180"
  fill="none"
  xmlns="http://www.w3.org/2000/svg"
>
  <circle opacity="0.4" cx="90" cy="90" r="90" fill="#C0D6B1" />
  <path
    d="M158.848 69.4422L158.602 67.159C158.299 67.1874 157.977 67.2064 157.637 67.2064C156.246 67.2064 154.581 66.9127 152.878 66.2874C150.597 65.4632 148.743 64.2032 147.712 63L145.98 64.5063C147.125 65.8137 148.781 66.998 150.777 67.9075C149.197 72.3791 146.491 76.3108 142.981 79.3424V72.9381C142.981 69.2622 140.001 66.2874 136.33 66.278C132.659 66.278 129.688 69.2528 129.678 72.9381V85.5383C128.288 85.7562 126.868 85.8794 125.421 85.8794C113.745 85.8794 103.839 78.4235 100.112 68.0211C102.222 67.1022 103.972 65.8706 105.164 64.5063L103.433 63C102.392 64.2032 100.547 65.4632 98.2667 66.2874C96.5637 66.9127 94.8985 67.2064 93.5077 67.1969C93.1671 67.1969 92.8454 67.178 92.5426 67.1496L92.2966 69.4328C92.6845 69.4706 93.0914 69.4991 93.5077 69.4991C94.889 69.4991 96.4028 69.2622 97.9545 68.798C101.994 80.0909 112.752 88.1721 125.421 88.1721C138.118 88.1721 148.904 80.0435 152.915 68.7127C154.562 69.2243 156.17 69.4991 157.627 69.4991C158.043 69.4991 158.441 69.4801 158.838 69.4328L158.848 69.4422ZM131.987 72.9381C131.987 71.7349 132.469 70.6454 133.264 69.8591C134.059 69.0727 135.138 68.5801 136.339 68.5801C137.541 68.5801 138.629 69.0633 139.414 69.8591C140.199 70.6549 140.691 71.7349 140.691 72.9381V81.1046C139.67 81.8151 138.6 82.4498 137.484 83.0183V72.9381H135.185V84.032C134.144 84.4394 133.084 84.7994 131.977 85.0741V72.9381H131.987Z"
    fill="#112F30"
  />
  <path
    d="M61.9257 109.706L61.8879 109.896L61.9257 109.706C60.2227 109.346 59.1819 108.948 58.5953 108.494C58.0182 108.039 57.8479 107.546 57.8384 106.836C57.8384 106.182 58.1317 105.604 58.671 105.178C59.2103 104.751 59.9956 104.486 60.9701 104.486C62.5312 104.486 63.9315 104.979 65.3507 106.135L65.5021 106.258L66.751 104.59L66.6091 104.477C65.0006 103.188 63.3165 102.516 61.0079 102.516C59.4847 102.516 58.1601 102.97 57.214 103.766C56.2678 104.552 55.6907 105.689 55.6907 106.987C55.6907 108.323 56.1259 109.337 57.0342 110.076C57.933 110.815 59.2671 111.307 61.0742 111.705C62.7015 112.046 63.695 112.425 64.2532 112.87C64.8114 113.316 64.9722 113.799 64.9817 114.509C64.9817 115.248 64.6695 115.855 64.1018 116.29C63.5341 116.726 62.711 116.992 61.6986 116.992C59.5793 116.992 58.0844 116.281 56.476 114.832L56.334 114.699L55 116.281L55.1419 116.404C57.0342 118.1 59.1251 118.953 61.6419 118.953C63.2219 118.953 64.6033 118.507 65.5872 117.702C66.5712 116.897 67.1578 115.722 67.1578 114.32C67.1578 113.079 66.7321 112.084 65.8521 111.336C64.9722 110.587 63.676 110.076 61.9257 109.697V109.706Z"
    fill="#112F30"
  />
  <path
    d="M80.7538 104.107C79.6941 103.216 78.1898 102.743 76.3921 102.743H70.3652V118.735H72.5035V113.221H76.0988C77.7924 113.221 79.363 112.776 80.5172 111.885C81.681 110.994 82.4095 109.649 82.4095 107.897C82.4095 106.295 81.804 104.988 80.7443 104.097L80.7538 104.107ZM79.1548 110.331C78.4547 110.9 77.4234 111.241 76.165 111.241H72.5035V104.751H76.2596C77.4896 104.751 78.4925 105.035 79.1832 105.575C79.8644 106.115 80.2618 106.892 80.2618 107.982C80.2618 108.967 79.8644 109.772 79.1643 110.341L79.1548 110.331Z"
    fill="#112F30"
  />
  <path
    d="M92.7318 102.478C90.3097 102.478 88.2566 103.444 86.8279 104.96C85.3898 106.476 84.5667 108.55 84.5667 110.758C84.5667 112.965 85.3803 115.03 86.809 116.537C88.2282 118.043 90.2718 119 92.6939 119C95.116 119 97.1691 118.034 98.5978 116.518C100.036 115.002 100.859 112.927 100.859 110.72C100.859 108.512 100.045 106.447 98.6167 104.941C97.1975 103.434 95.1539 102.478 92.7318 102.478ZM92.7318 117.001C89.2784 117.001 86.7806 114.197 86.7711 110.72C86.7711 107.243 89.2311 104.486 92.6845 104.486C96.1379 104.486 98.6357 107.29 98.6451 110.767C98.6451 114.244 96.1852 117.001 92.7318 117.001Z"
    fill="#112F30"
  />
  <path
    d="M111.673 102.478C109.251 102.478 107.198 103.444 105.77 104.96C104.331 106.476 103.508 108.55 103.508 110.758C103.508 112.965 104.322 115.03 105.751 116.537C107.17 118.043 109.213 119 111.636 119C114.058 119 116.111 118.034 117.539 116.518C118.978 115.002 119.801 112.927 119.801 110.72C119.801 108.512 118.987 106.447 117.558 104.941C116.139 103.434 114.096 102.478 111.673 102.478ZM111.673 117.001C108.22 117.001 105.722 114.197 105.713 110.72C105.713 107.243 108.173 104.486 111.626 104.486C115.08 104.486 117.577 107.29 117.587 110.767C117.587 114.244 115.127 117.001 111.673 117.001Z"
    fill="#112F30"
  />
  <path
    d="M134.607 102.932V114.898L125.061 102.743H123.131V118.735H125.231V106.286L135.014 118.735H136.698V102.743H134.607V102.932Z"
    fill="#112F30"
  />
  <path
    d="M145.412 104.751H150.654V118.735H152.811V118.545V104.751H158.053V102.743H145.412V104.751Z"
    fill="#112F30"
  />
  <path
    d="M161.128 102.743V118.735H163.266V102.743H163.077H161.128Z"
    fill="#112F30"
  />
  <path
    d="M175.102 111.108L169.53 102.743H167.458V118.735H169.548V106.532L174.941 114.452H175.131H175.225L175.282 114.367L180.618 106.513V118.735H182.756V102.743H180.684L175.102 111.108Z"
    fill="#112F30"
  />
  <path
    d="M188.935 116.755V111.667H197.44V109.678H188.935V104.732H198.443V104.543V102.743H186.796V118.735H198.557V116.755H188.935Z"
    fill="#112F30"
  />
</svg>
