<svg width="104" height="40" viewBox="0 0 104 40" fill="none" xmlns="http://www.w3.org/2000/svg">
<g opacity="0.3">
<path d="M74.9388 4.6016L74.7631 2.97074C74.5469 2.99104 74.3171 3.00457 74.0738 3.00457C73.0803 3.00457 71.8909 2.79479 70.6745 2.34817C69.0458 1.75943 67.7212 0.859416 66.9845 0L65.7478 1.07596C66.5655 2.00981 67.7482 2.8557 69.1742 3.50533C68.0456 6.69938 66.1128 9.50771 63.6055 11.6732V7.09864C63.6055 4.47302 61.4767 2.34817 58.8545 2.3414C56.2324 2.3414 54.1104 4.46625 54.1036 7.09864V16.0988C53.1102 16.2545 52.0964 16.3424 51.0625 16.3424C42.723 16.3424 35.6472 11.0168 32.9845 3.58654C34.4916 2.93013 35.7418 2.05042 36.5934 1.07596L35.3566 0C34.6132 0.859416 33.2954 1.75943 31.6667 2.34817C30.4502 2.79479 29.2608 3.00457 28.2674 2.9978C28.0241 2.9978 27.7943 2.98427 27.5781 2.96397L27.4023 4.59483C27.6794 4.6219 27.97 4.6422 28.2674 4.6422C29.2541 4.6422 30.3354 4.47302 31.4437 4.14144C34.3294 12.2078 42.0134 17.9801 51.0625 17.9801C60.1318 17.9801 67.8361 12.1739 70.7015 4.08053C71.8774 4.44595 73.0263 4.6422 74.067 4.6422C74.3644 4.6422 74.6482 4.62866 74.9321 4.59483L74.9388 4.6016ZM55.7526 7.09864C55.7526 6.23922 56.0972 5.46101 56.6649 4.89935C57.2326 4.33768 58.003 3.98579 58.8613 3.98579C59.7196 3.98579 60.4968 4.33091 61.0577 4.89935C61.6186 5.46778 61.97 6.23922 61.97 7.09864V12.9318C61.2402 13.4394 60.4765 13.8928 59.679 14.2988V7.09864H58.0368V15.0229C57.2934 15.3138 56.5365 15.571 55.7458 15.7672V7.09864H55.7526Z" fill="#2A2A2A"/>
<path d="M5.70914 33.3618L5.6821 33.4971L5.70914 33.3618C4.49268 33.1046 3.74929 32.8204 3.33029 32.4956C2.91804 32.1708 2.7964 31.8189 2.78964 31.3114C2.78964 30.8444 2.99914 30.4316 3.38435 30.1271C3.76956 29.8226 4.33048 29.6331 5.02657 29.6331C6.14166 29.6331 7.14185 29.985 8.15557 30.8106L8.2637 30.8986L9.15577 29.7076L9.0544 29.6264C7.90552 28.706 6.70258 28.2256 5.0536 28.2256C3.96555 28.2256 3.01941 28.5504 2.3436 29.1188C1.66779 29.6805 1.25555 30.4925 1.25555 31.4196C1.25555 32.3738 1.56642 33.0979 2.2152 33.6257C2.85722 34.1535 3.81011 34.5054 5.10091 34.7896C6.2633 35.0332 6.9729 35.3039 7.37163 35.622C7.77036 35.94 7.88525 36.2851 7.892 36.7927C7.892 37.3205 7.66899 37.7536 7.2635 38.0649C6.85801 38.3762 6.27006 38.5656 5.54694 38.5656C4.03313 38.5656 2.96535 38.0581 1.81647 37.0228L1.7151 36.928L0.762207 38.0581L0.863579 38.1461C2.2152 39.3574 3.70874 39.9664 5.50639 39.9664C6.635 39.9664 7.62168 39.6484 8.32452 39.0732C9.02736 38.498 9.44637 37.6589 9.44637 36.6573C9.44637 35.7708 9.14225 35.0603 8.51375 34.5257C7.88525 33.9911 6.95939 33.6257 5.70914 33.355V33.3618Z" fill="#2A2A2A"/>
<path d="M19.1577 29.3622C18.4008 28.726 17.3263 28.3877 16.0422 28.3877H11.7373V39.8105H13.2646V35.8721H15.8327C17.0424 35.8721 18.1643 35.554 18.9887 34.9179C19.82 34.2818 20.3404 33.3209 20.3404 32.069C20.3404 30.9253 19.9079 29.9915 19.1509 29.3554L19.1577 29.3622ZM18.0156 33.8081C17.5155 34.2141 16.7788 34.4577 15.88 34.4577H13.2646V29.8223H15.9476C16.8262 29.8223 17.5425 30.0253 18.0359 30.411C18.5224 30.7968 18.8063 31.3517 18.8063 32.1299C18.8063 32.8336 18.5224 33.4088 18.0223 33.8149L18.0156 33.8081Z" fill="#2A2A2A"/>
<path d="M27.7136 28.1982C25.9835 28.1982 24.517 28.8885 23.4965 29.9712C22.4693 31.0539 21.8813 32.5359 21.8813 34.1126C21.8813 35.6894 22.4625 37.1646 23.483 38.2405C24.4967 39.3165 25.9565 40 27.6866 40C29.4166 40 30.8831 39.3097 31.9036 38.227C32.9308 37.1443 33.5188 35.6623 33.5188 34.0856C33.5188 32.5089 32.9376 31.0336 31.9171 29.9577C30.9034 28.8817 29.4437 28.1982 27.7136 28.1982ZM27.7136 38.5721C25.2469 38.5721 23.4627 36.5691 23.456 34.0856C23.456 31.6021 25.2131 29.6329 27.6798 29.6329C30.1465 29.6329 31.9306 31.6359 31.9374 34.1194C31.9374 36.6029 30.1803 38.5721 27.7136 38.5721Z" fill="#2A2A2A"/>
<path d="M41.2434 28.1982C39.5133 28.1982 38.0468 28.8885 37.0263 29.9712C35.9991 31.0539 35.4111 32.5359 35.4111 34.1126C35.4111 35.6894 35.9923 37.1646 37.0128 38.2405C38.0265 39.3165 39.4863 40 41.2163 40C42.9464 40 44.4129 39.3097 45.4334 38.227C46.4606 37.1443 47.0486 35.6623 47.0486 34.0856C47.0486 32.5089 46.4674 31.0336 45.4469 29.9577C44.4332 28.8817 42.9734 28.1982 41.2434 28.1982ZM41.2434 38.5721C38.7767 38.5721 36.9925 36.5691 36.9858 34.0856C36.9858 31.6021 38.7429 29.6329 41.2096 29.6329C43.6763 29.6329 45.4604 31.6359 45.4672 34.1194C45.4672 36.6029 43.7101 38.5721 41.2434 38.5721Z" fill="#2A2A2A"/>
<path d="M57.6248 28.523V37.0698L50.8059 28.3877H49.4272V39.8105H50.9275V30.9186L57.9154 39.8105H59.1184V28.3877H57.6248V28.523Z" fill="#2A2A2A"/>
<path d="M65.3428 29.8223H69.0868V39.8105H70.6276V39.6751V29.8223H74.3716V28.3877H65.3428V29.8223Z" fill="#2A2A2A"/>
<path d="M76.5679 28.3877V39.8105H78.0952V28.3877H77.96H76.5679Z" fill="#2A2A2A"/>
<path d="M86.5494 34.363L82.5689 28.3877H81.0889V39.8105H82.5824V31.0945L86.4345 36.7518H86.5697H86.6373L86.6778 36.6909L90.4894 31.081V39.8105H92.0167V28.3877H90.5367L86.5494 34.363Z" fill="#2A2A2A"/>
<path d="M96.4297 38.3962V34.7623H102.505V33.3412H96.4297V29.8088H103.222V29.6734V28.3877H94.9023V39.8105H103.303V38.3962H96.4297Z" fill="#2A2A2A"/>
</g>
</svg>
