<svg width="24" height="24" viewBox="0 0 24 24" fill="none" xmlns="http://www.w3.org/2000/svg">
<g clip-path="url(#clip0_837_54964)">
<rect width="24" height="24" fill="white"/>
<path d="M2.99997 11.9999C2.99997 16.9749 7.10497 20.9999 12.183 20.9999C17.483 20.9999 21 17.3489 21 12.2049C21 11.6139 20.934 11.1639 20.855 10.7139H12.183V13.7999H17.392C17.182 15.1229 15.817 17.6829 12.183 17.6829C9.04797 17.6829 6.48997 15.1369 6.48997 11.9999C6.48997 8.86294 9.04797 6.31694 12.183 6.31694C13.967 6.31694 15.162 7.06294 15.844 7.70494L18.337 5.35294C16.735 3.88694 14.663 2.99994 12.183 2.99994C7.10497 2.99994 2.99997 7.02494 2.99997 11.9999Z" fill="#1D5EAA"/>
<mask id="mask0_837_54964" style="mask-type:alpha" maskUnits="userSpaceOnUse" x="22" y="22" width="19" height="19">
<path d="M22.056 31.857C22.056 36.832 26.161 40.857 31.239 40.857C36.539 40.857 40.056 37.206 40.056 32.062C40.056 31.471 39.99 31.021 39.911 30.571H31.239V33.657H36.448C36.238 34.98 34.873 37.54 31.239 37.54C28.104 37.54 25.546 34.994 25.546 31.857C25.546 28.72 28.104 26.174 31.239 26.174C33.023 26.174 34.218 26.92 34.9 27.562L37.393 25.21C35.791 23.744 33.719 22.857 31.239 22.857C26.161 22.857 22.056 26.882 22.056 31.857Z" fill="white"/>
</mask>
<g mask="url(#mask0_837_54964)">
</g>
</g>
<defs>
<clipPath id="clip0_837_54964">
<rect width="24" height="24" fill="white"/>
</clipPath>
</defs>
</svg>
