<svg width="24" height="24" viewBox="0 0 24 24" fill="none" xmlns="http://www.w3.org/2000/svg">
<path fill-rule="evenodd" clip-rule="evenodd" d="M12 3C6.477 3 2 6.442 2 10.689C2 13.434 3.872 15.845 6.687 17.205C6.534 17.721 5.703 20.518 5.67 20.74C5.67 20.74 5.65 20.905 5.76 20.968C5.87 21.031 5.999 20.981 5.999 20.981C6.313 20.938 9.647 18.655 10.225 18.259C10.801 18.339 11.394 18.38 12 18.38C17.523 18.38 22 14.936 22 10.689C22 6.442 17.523 3 12 3Z" fill="#40220D"/>
<path fill-rule="evenodd" clip-rule="evenodd" d="M19.329 12.869C19.308 13.016 19.228 13.148 19.105 13.24C19.004 13.313 18.885 13.352 18.758 13.352C18.575 13.352 18.407 13.271 18.297 13.13L16.944 11.382L16.744 11.576V12.805C16.744 13.115 16.485 13.367 16.167 13.367C15.85 13.367 15.59 13.115 15.59 12.805V8.95499C15.59 8.64299 15.85 8.39099 16.167 8.39099C16.485 8.39099 16.744 8.64299 16.744 8.95499V10.165L18.353 8.59499C18.436 8.51399 18.55 8.46999 18.674 8.46999C18.817 8.46999 18.962 8.52999 19.07 8.63599C19.172 8.73299 19.232 8.85999 19.24 8.99199C19.249 9.12499 19.203 9.24699 19.113 9.33499L17.798 10.617L19.219 12.452C19.311 12.572 19.35 12.72 19.329 12.869Z" fill="#FFD300"/>
<path fill-rule="evenodd" clip-rule="evenodd" d="M14.812 13.292H12.962C12.657 13.292 12.409 13.06 12.409 12.775V8.95499C12.409 8.64299 12.673 8.39099 12.998 8.39099C13.322 8.39099 13.587 8.64299 13.587 8.95499V12.261H14.812C15.118 12.261 15.366 12.492 15.366 12.775C15.366 13.06 15.118 13.292 14.812 13.292Z" fill="#FFD300"/>
<path fill-rule="evenodd" clip-rule="evenodd" d="M11.897 13.29C11.784 13.341 11.657 13.367 11.53 13.367C11.29 13.367 11.105 13.27 11.05 13.118L10.766 12.39H9.00499L8.72099 13.119C8.66399 13.271 8.47999 13.367 8.23899 13.367C8.11199 13.367 7.98499 13.341 7.87299 13.289C7.71399 13.218 7.55999 13.02 7.73599 12.49L9.11599 8.94799C9.21399 8.67899 9.50899 8.39999 9.88499 8.39099C10.262 8.39999 10.558 8.67899 10.654 8.94799L12.033 12.489C12.209 13.02 12.057 13.219 11.897 13.29Z" fill="#FFD300"/>
<path fill-rule="evenodd" clip-rule="evenodd" d="M7.04899 12.837C7.04899 13.134 6.78999 13.375 6.47299 13.375C6.15299 13.375 5.89399 13.134 5.89399 12.837V9.49399H4.99399C4.68299 9.49399 4.42999 9.24699 4.42999 8.94199C4.42999 8.63999 4.68299 8.39099 4.99399 8.39099H7.94799C8.26099 8.39099 8.51599 8.63999 8.51599 8.94199C8.51599 9.24699 8.26099 9.49399 7.94799 9.49399H7.04899V12.837Z" fill="#FFD300"/>
<path fill-rule="evenodd" clip-rule="evenodd" d="M9.3085 11.3924H10.4605L9.8845 9.79443L9.3085 11.3924Z" fill="#40220D"/>
</svg>
