<svg width="103" height="40" viewBox="0 0 103 40" fill="none" xmlns="http://www.w3.org/2000/svg">
<path d="M74.1758 4.60157L74.0001 2.97072C73.7839 2.99102 73.5541 3.00455 73.3108 3.00455C72.3174 3.00455 71.128 2.79478 69.9115 2.34815C68.2828 1.75942 66.9582 0.85941 66.2216 0L64.9849 1.07595C65.8026 2.0098 66.9853 2.85568 68.4112 3.50531C67.2826 6.69934 65.3498 9.50765 62.8426 11.6731V7.09859C62.8426 4.47299 60.7138 2.34815 58.0917 2.34139C55.4695 2.34139 53.3475 4.46623 53.3407 7.09859V16.0987C52.3473 16.2544 51.3336 16.3423 50.2996 16.3423C41.9602 16.3423 34.8845 11.0167 32.2218 3.58652C33.7289 2.93012 34.9791 2.0504 35.8306 1.07595L34.5939 0C33.8505 0.85941 32.5327 1.75942 30.904 2.34815C29.6875 2.79478 28.4981 3.00455 27.5047 2.99779C27.2614 2.99779 27.0316 2.98425 26.8154 2.96395L26.6396 4.5948C26.9167 4.62187 27.2073 4.64217 27.5047 4.64217C28.4914 4.64217 29.5726 4.47299 30.681 4.14141C33.5667 12.2077 41.2506 17.9799 50.2996 17.9799C59.3689 17.9799 67.0731 12.1739 69.9385 4.08051C71.1144 4.44593 72.2633 4.64217 73.3041 4.64217C73.6014 4.64217 73.8852 4.62863 74.1691 4.5948L74.1758 4.60157ZM54.9897 7.09859C54.9897 6.23918 55.3344 5.46098 55.902 4.89932C56.4697 4.33765 57.2401 3.98577 58.0984 3.98577C58.9567 3.98577 59.7339 4.33089 60.2948 4.89932C60.8557 5.46774 61.2071 6.23918 61.2071 7.09859V12.9318C60.4772 13.4393 59.7136 13.8927 58.9161 14.2987V7.09859H57.2739V15.0228C56.5305 15.3137 55.7736 15.5709 54.9829 15.7671V7.09859H54.9897Z" fill="#E8E8E8"/>
<path d="M4.9469 33.3613L4.91987 33.4966L4.9469 33.3613C3.73045 33.1041 2.98706 32.8199 2.56806 32.4951C2.15582 32.1703 2.03418 31.8184 2.02742 31.3109C2.02742 30.8439 2.23692 30.4311 2.62213 30.1266C3.00734 29.8221 3.56825 29.6326 4.26433 29.6326C5.37941 29.6326 6.37961 29.9845 7.39331 30.8101L7.50144 30.8981L8.39351 29.7071L8.29214 29.6259C7.14327 28.7056 5.94033 28.2251 4.29137 28.2251C3.20332 28.2251 2.25719 28.5499 1.58139 29.1183C0.90558 29.68 0.493338 30.492 0.493338 31.4191C0.493338 32.3733 0.804209 33.0973 1.45298 33.6252C2.095 34.153 3.04788 34.5049 4.33867 34.7891C5.50106 35.0327 6.21065 35.3034 6.60938 35.6214C7.00811 35.9395 7.12299 36.2846 7.12975 36.7921C7.12975 37.32 6.90673 37.753 6.50125 38.0643C6.09577 38.3756 5.50782 38.5651 4.7847 38.5651C3.2709 38.5651 2.20313 38.0576 1.05426 37.0222L0.952886 36.9275L0 38.0576L0.101371 38.1455C1.45298 39.3568 2.94651 39.9659 4.74416 39.9659C5.87275 39.9659 6.85943 39.6478 7.56227 39.0726C8.2651 38.4974 8.6841 37.6583 8.6841 36.6568C8.6841 35.7703 8.37999 35.0598 7.75149 34.5252C7.12299 33.9906 6.19714 33.6252 4.9469 33.3545V33.3613Z" fill="#E8E8E8"/>
<path d="M18.3959 29.3621C17.639 28.726 16.5645 28.3877 15.2805 28.3877H10.9756V39.8104H12.5029V35.872H15.071C16.2807 35.872 17.4025 35.554 18.227 34.9179C19.0582 34.2818 19.5786 33.3208 19.5786 32.0689C19.5786 30.9253 19.1461 29.9915 18.3892 29.3554L18.3959 29.3621ZM17.2538 33.8081C16.7537 34.2141 16.0171 34.4577 15.1183 34.4577H12.5029V29.8223H15.1859C16.0644 29.8223 16.7808 30.0253 17.2741 30.411C17.7607 30.7968 18.0445 31.3516 18.0445 32.1299C18.0445 32.8336 17.7607 33.4088 17.2606 33.8148L17.2538 33.8081Z" fill="#E8E8E8"/>
<path d="M26.9513 28.1982C25.2213 28.1982 23.7548 28.8885 22.7343 29.9712C21.7071 31.0539 21.1191 32.5359 21.1191 34.1126C21.1191 35.6893 21.7003 37.1645 22.7208 38.2405C23.7345 39.3164 25.1943 39.9999 26.9243 39.9999C28.6544 39.9999 30.1209 39.3097 31.1413 38.227C32.1686 37.1442 32.7565 35.6623 32.7565 34.0855C32.7565 32.5088 32.1753 31.0336 31.1549 29.9577C30.1411 28.8817 28.6814 28.1982 26.9513 28.1982ZM26.9513 38.5721C24.4847 38.5721 22.7005 36.569 22.6938 34.0855C22.6938 31.602 24.4509 29.6328 26.9176 29.6328C29.3842 29.6328 31.1684 31.6359 31.1751 34.1194C31.1751 36.6029 29.418 38.5721 26.9513 38.5721Z" fill="#E8E8E8"/>
<path d="M40.4806 28.1982C38.7506 28.1982 37.2841 28.8885 36.2636 29.9712C35.2364 31.0539 34.6484 32.5359 34.6484 34.1126C34.6484 35.6893 35.2296 37.1645 36.2501 38.2405C37.2638 39.3164 38.7235 39.9999 40.4536 39.9999C42.1837 39.9999 43.6502 39.3097 44.6706 38.227C45.6979 37.1442 46.2858 35.6623 46.2858 34.0855C46.2858 32.5088 45.7046 31.0336 44.6842 29.9577C43.6704 28.8817 42.2107 28.1982 40.4806 28.1982ZM40.4806 38.5721C38.014 38.5721 36.2298 36.569 36.2231 34.0855C36.2231 31.602 37.9802 29.6328 40.4469 29.6328C42.9135 29.6328 44.6977 31.6359 44.7044 34.1194C44.7044 36.6029 42.9473 38.5721 40.4806 38.5721Z" fill="#E8E8E8"/>
<path d="M56.8616 28.523V37.0698L50.0427 28.3877H48.6641V39.8104H50.1644V30.9186L57.1522 39.8104H58.3551V28.3877H56.8616V28.523Z" fill="#E8E8E8"/>
<path d="M64.5801 29.8223H68.324V39.8104H69.8649V39.6751V29.8223H73.6088V28.3877H64.5801V29.8223Z" fill="#E8E8E8"/>
<path d="M75.8057 28.3877V39.8104H77.333V28.3877H77.1978H75.8057Z" fill="#E8E8E8"/>
<path d="M85.7867 34.363L81.8062 28.3877H80.3262V39.8104H81.8197V31.0945L85.6718 36.7517H85.807H85.8745L85.9151 36.6908L89.7266 31.081V39.8104H91.254V28.3877H89.7739L85.7867 34.363Z" fill="#E8E8E8"/>
<path d="M95.667 38.3961V34.7622H101.742V33.3411H95.667V29.8088H102.459V29.6734V28.3877H94.1396V39.8104H102.54V38.3961H95.667Z" fill="#E8E8E8"/>
</svg>
