<svg width="16" height="16" viewBox="0 0 16 16" fill="none" xmlns="http://www.w3.org/2000/svg">
<rect width="16" height="16" rx="4" fill="#FAE100"/>
<path fill-rule="evenodd" clip-rule="evenodd" d="M8.00009 4C5.54543 4 3.55566 5.52977 3.55566 7.41732C3.55566 8.63731 4.38766 9.70886 5.63876 10.3133C5.57076 10.5426 5.20143 11.7857 5.18677 11.8844C5.18677 11.8844 5.17788 11.9577 5.22677 11.9857C5.27566 12.0137 5.33299 11.9915 5.33299 11.9915C5.47254 11.9724 6.95431 10.9577 7.2112 10.7817C7.4672 10.8173 7.73075 10.8355 8.00009 10.8355C10.4547 10.8355 12.4445 9.30486 12.4445 7.41732C12.4445 5.52977 10.4547 4 8.00009 4Z" fill="#40220D"/>
<path fill-rule="evenodd" clip-rule="evenodd" d="M11.2575 8.38572C11.2481 8.45105 11.2126 8.50972 11.1579 8.55061C11.113 8.58305 11.0601 8.60039 11.0037 8.60039C10.9224 8.60039 10.8477 8.56439 10.7988 8.50172L10.1975 7.72483L10.1086 7.81106V8.35728C10.1086 8.49505 9.99348 8.60705 9.85215 8.60705C9.71126 8.60705 9.5957 8.49505 9.5957 8.35728V6.64617C9.5957 6.50751 9.71126 6.39551 9.85215 6.39551C9.99348 6.39551 10.1086 6.50751 10.1086 6.64617V7.18395L10.8237 6.48617C10.8606 6.45017 10.9113 6.43062 10.9664 6.43062C11.0299 6.43062 11.0944 6.45729 11.1424 6.5044C11.1877 6.54751 11.2144 6.60395 11.2179 6.66262C11.2219 6.72173 11.2015 6.77595 11.1615 6.81506L10.577 7.38484L11.2086 8.20039C11.2495 8.25372 11.2668 8.3195 11.2575 8.38572Z" fill="#FAE100"/>
<path fill-rule="evenodd" clip-rule="evenodd" d="M9.24964 8.57372H8.42742C8.29186 8.57372 8.18164 8.47061 8.18164 8.34394V6.64617C8.18164 6.50751 8.29897 6.39551 8.44342 6.39551C8.58742 6.39551 8.70519 6.50751 8.70519 6.64617V8.1155H9.24964C9.38563 8.1155 9.49586 8.21817 9.49586 8.34394C9.49586 8.47061 9.38563 8.57372 9.24964 8.57372Z" fill="#FAE100"/>
<path fill-rule="evenodd" clip-rule="evenodd" d="M7.95441 8.57283C7.90419 8.5955 7.84775 8.60705 7.7913 8.60705C7.68464 8.60705 7.60241 8.56394 7.57797 8.49639L7.45175 8.17283H6.66909L6.54286 8.49683C6.51753 8.56439 6.43575 8.60705 6.32864 8.60705C6.2722 8.60705 6.21575 8.5955 6.16598 8.57239C6.09531 8.54083 6.02687 8.45283 6.10509 8.21728L6.71842 6.64306C6.76197 6.52351 6.89308 6.39951 7.06019 6.39551C7.22775 6.39951 7.3593 6.52351 7.40197 6.64306L8.01486 8.21683C8.09308 8.45283 8.02552 8.54127 7.95441 8.57283Z" fill="#FAE100"/>
<path fill-rule="evenodd" clip-rule="evenodd" d="M5.79974 8.3715C5.79974 8.5035 5.68463 8.61061 5.54374 8.61061C5.40152 8.61061 5.28641 8.5035 5.28641 8.3715V6.88573H4.88641C4.74819 6.88573 4.63574 6.77595 4.63574 6.6404C4.63574 6.50617 4.74819 6.39551 4.88641 6.39551H6.19929C6.3384 6.39551 6.45173 6.50617 6.45173 6.6404C6.45173 6.77595 6.3384 6.88573 6.19929 6.88573H5.79974V8.3715Z" fill="#FAE100"/>
<path fill-rule="evenodd" clip-rule="evenodd" d="M6.80371 7.72975H7.31571L7.05971 7.01953L6.80371 7.72975Z" fill="#40220D"/>
</svg>
