<svg width="140" height="16" viewBox="0 0 140 16" fill="none" xmlns="http://www.w3.org/2000/svg">
<g opacity="0.5">
<path d="M43.0195 4.09484L42.8605 2.64358C42.6647 2.66165 42.4568 2.67369 42.2366 2.67369C41.3376 2.67369 40.2612 2.48702 39.1603 2.08957C37.6864 1.56568 36.4877 0.764772 35.821 0L34.7018 0.957471C35.4418 1.78848 36.5121 2.54121 37.8026 3.11931C36.7812 5.96161 35.0321 8.46067 32.7631 10.3877V6.3169C32.7631 3.98043 30.8365 2.08957 28.4635 2.08355C26.0906 2.08355 24.1702 3.97441 24.164 6.3169V14.3259C23.265 14.4644 22.3476 14.5427 21.4119 14.5427C13.8648 14.5427 7.46144 9.80354 5.05176 3.19157C6.41561 2.60745 7.54706 1.82461 8.31767 0.957471L7.19845 0C6.5257 0.764772 5.33309 1.56568 3.85915 2.08957C2.75829 2.48702 1.68188 2.67369 0.782839 2.66767C0.562666 2.66767 0.354724 2.65563 0.159014 2.63756L0 4.08882C0.250753 4.11291 0.513738 4.13097 0.782839 4.13097C1.67577 4.13097 2.65431 3.98043 3.65733 3.68536C6.26883 10.8634 13.2226 16 21.4119 16C29.6195 16 36.5916 10.8333 39.1848 3.63116C40.249 3.95634 41.2887 4.13097 42.2305 4.13097C42.4996 4.13097 42.7565 4.11893 43.0134 4.08882L43.0195 4.09484ZM25.6563 6.3169C25.6563 5.55213 25.9682 4.85962 26.482 4.3598C26.9957 3.85999 27.6929 3.54686 28.4697 3.54686C29.2464 3.54686 29.9497 3.85397 30.4573 4.3598C30.965 4.86564 31.283 5.55213 31.283 6.3169V11.5077C30.6225 11.9594 29.9314 12.3628 29.2097 12.7241V6.3169H27.7235V13.3685C27.0508 13.6274 26.3658 13.8562 25.6502 14.0309V6.3169H25.6563Z" fill="white"/>
<path d="M51.6795 7.34742L51.655 7.46786L51.6795 7.34742C50.5786 7.11859 49.9059 6.86568 49.5267 6.57663C49.1536 6.28758 49.0435 5.97445 49.0374 5.52281C49.0374 5.1073 49.227 4.73997 49.5756 4.46899C49.9242 4.19801 50.4319 4.0294 51.0618 4.0294C52.0709 4.0294 52.9761 4.34253 53.8935 5.07719L53.9913 5.15548L54.7986 4.09564L54.7069 4.02337C53.6672 3.20441 52.5785 2.77686 51.0863 2.77686C50.1016 2.77686 49.2454 3.0659 48.6338 3.57174C48.0222 4.07155 47.6491 4.79417 47.6491 5.61916C47.6491 6.46824 47.9304 7.11257 48.5176 7.58228C49.0986 8.05198 49.9609 8.36511 51.1291 8.61803C52.181 8.83482 52.8232 9.07569 53.184 9.35872C53.5449 9.64174 53.6488 9.94885 53.6549 10.4005C53.6549 10.8702 53.4531 11.2556 53.0862 11.5326C52.7192 11.8096 52.1871 11.9782 51.5327 11.9782C50.1627 11.9782 49.1964 11.5266 48.1567 10.6052L48.065 10.5209L47.2026 11.5266L47.2944 11.6049C48.5176 12.6828 49.8692 13.2247 51.496 13.2247C52.5174 13.2247 53.4103 12.9417 54.0464 12.4298C54.6824 11.918 55.0616 11.1713 55.0616 10.2801C55.0616 9.49119 54.7864 8.8589 54.2176 8.38318C53.6488 7.90745 52.8109 7.58227 51.6795 7.3414V7.34742Z" fill="white"/>
<path d="M63.8505 3.78853C63.1656 3.22248 62.1931 2.92139 61.0311 2.92139H57.1353V13.0862H58.5175V9.58153H60.8415C61.9363 9.58153 62.9515 9.2985 63.6976 8.73245C64.4499 8.1664 64.9208 7.3113 64.9208 6.19726C64.9208 5.17957 64.5294 4.34856 63.8444 3.78251L63.8505 3.78853ZM62.817 7.74487C62.3644 8.10618 61.6977 8.32297 60.8843 8.32297H58.5175V4.19801H60.9455C61.7405 4.19801 62.3888 4.37867 62.8353 4.72191C63.2757 5.06516 63.5325 5.55895 63.5325 6.25146C63.5325 6.87773 63.2756 7.38958 62.8231 7.75089L62.817 7.74487Z" fill="white"/>
<path d="M71.593 2.74658C70.0273 2.74658 68.7002 3.36081 67.7766 4.3243C66.847 5.28779 66.3149 6.60657 66.3149 8.00966C66.3149 9.41275 66.8409 10.7255 67.7644 11.683C68.6818 12.6404 70.0029 13.2487 71.5685 13.2487C73.1342 13.2487 74.4614 12.6344 75.3849 11.6709C76.3145 10.7074 76.8466 9.38866 76.8466 7.98557C76.8466 6.58249 76.3206 5.26973 75.3971 4.31226C74.4797 3.35479 73.1587 2.74658 71.593 2.74658ZM71.593 11.978C69.3607 11.978 67.7461 10.1956 67.74 7.98557C67.74 5.77556 69.3301 4.02321 71.5624 4.02321C73.7947 4.02321 75.4093 5.80567 75.4155 8.01568C75.4155 10.2257 73.8253 11.978 71.593 11.978Z" fill="white"/>
<path d="M83.8376 2.74658C82.2719 2.74658 80.9448 3.36081 80.0213 4.3243C79.0917 5.28779 78.5596 6.60657 78.5596 8.00966C78.5596 9.41275 79.0855 10.7255 80.009 11.683C80.9264 12.6404 82.2475 13.2487 83.8132 13.2487C85.3788 13.2487 86.706 12.6344 87.6295 11.6709C88.5591 10.7074 89.0912 9.38866 89.0912 7.98557C89.0912 6.58249 88.5652 5.26973 87.6417 4.31226C86.7243 3.35479 85.4033 2.74658 83.8376 2.74658ZM83.8376 11.978C81.6053 11.978 79.9907 10.1956 79.9846 7.98557C79.9846 5.77556 81.5747 4.02321 83.807 4.02321C86.0394 4.02321 87.654 5.80567 87.6601 8.01568C87.6601 10.2257 86.0699 11.978 83.8376 11.978Z" fill="white"/>
<path d="M98.6625 3.04182V10.6474L92.4976 2.92139H91.25V13.0862H92.6016V5.17355L98.9255 13.0862H100.014V2.92139H98.6625V3.04182Z" fill="white"/>
<path d="M105.653 4.19801H109.035V13.0862H110.429V12.9658V4.19801H113.818V2.92139H105.653V4.19801Z" fill="white"/>
<path d="M115.805 2.92139V13.0862H117.187V2.92139H117.065H115.805Z" fill="white"/>
<path d="M124.845 8.23866L121.236 2.92139H119.897V13.0862H121.249V5.33012L124.735 10.3644H124.857H124.924L124.961 10.3102L128.404 5.31807V13.0862H129.786V2.92139H128.447L124.845 8.23866Z" fill="white"/>
<path d="M133.78 11.8216V8.58793H139.284V7.32937H133.78V4.17995H139.933V4.05951V2.92139H132.398V13.0862H140V11.8216H133.78Z" fill="white"/>
</g>
</svg>
