<svg width="24" height="24" viewBox="0 0 24 24" fill="none" xmlns="http://www.w3.org/2000/svg">
<g clip-path="url(#clip0_80_33805)">
<path d="M4.3875 18.9378C3.00937 18.9378 1.71562 18.6097 0.524996 17.9722C0.496871 17.9628 0.478121 17.944 0.459371 17.9253C0.131246 17.6347 0.0937459 17.3159 0.121871 17.0909C0.243746 16.0784 2.04375 15.0847 2.40937 14.8972C4.00312 14.0628 6.4125 12.7972 7.48125 12.0284C9.60937 10.4815 11.1656 8.85967 12.4219 7.55655C13.8094 6.1128 14.9156 4.97842 16.1812 4.47217C16.35 4.40655 16.5375 4.47217 16.6312 4.62217C16.725 4.77217 16.7062 4.96905 16.575 5.1003C15.6562 5.97217 14.7937 7.2753 13.7906 8.78467C12.5437 10.669 10.9875 13.0222 8.70937 15.4315C8.01562 16.1628 6.75 17.2503 4.725 18.8534C4.65937 18.9097 4.575 18.9378 4.5 18.9378C4.4625 18.9378 4.425 18.9378 4.3875 18.9378ZM0.918746 17.3347C1.97812 17.8972 3.14062 18.1878 4.35937 18.1878C5.60625 17.1847 7.3125 15.8065 8.16562 14.9065C10.3969 12.544 11.9344 10.2284 13.1625 8.3628C13.5281 7.80967 13.875 7.28467 14.2125 6.79717C13.8187 7.18155 13.3969 7.6128 12.9469 8.08155C11.6719 9.40342 10.0781 11.0534 7.90312 12.6378C6.7875 13.4347 4.35 14.719 2.7375 15.5628C2.00625 15.9472 0.899996 16.7253 0.853121 17.1753C0.853121 17.2034 0.853121 17.2597 0.918746 17.3347Z" fill="#829B34"/>
<path d="M16.3125 4.81885C14.175 6.83447 12.5156 10.8563 8.43751 15.1688C7.62188 16.022 6.04688 17.3251 4.49063 18.5626C3.20626 18.5813 1.92188 18.3001 0.703133 17.6438C-0.318742 16.7532 2.57813 15.2345 2.57813 15.2345C4.35001 14.3063 6.63751 13.097 7.69688 12.3376C12.1031 9.12197 13.9781 5.74697 16.3125 4.81885Z" fill="#8FAE3C"/>
<path d="M1.16249 23.5499C1.09687 23.5499 1.03124 23.5312 0.97499 23.4937C0.543741 23.2405 0.431241 22.8843 0.412491 22.6312C0.328116 21.4218 2.26874 19.8374 2.65312 19.5374C3.16874 19.1343 3.71249 18.703 4.25624 18.2718C5.51249 17.2687 7.28436 15.8343 8.16561 14.9155C10.3969 12.553 11.9344 10.2374 13.1625 8.37178C14.1844 6.8249 15.0656 5.48428 16.05 4.55615C17.1 3.5624 18.2062 3.10303 19.5094 3.10303C19.5937 3.10303 19.6781 3.10303 19.7531 3.1124C19.8469 3.1124 19.9406 3.15928 20.0062 3.2249C20.1094 3.3374 20.1375 3.49678 20.0812 3.62803C20.0531 3.69365 20.0062 3.7499 19.95 3.7874C19.9125 3.81553 19.4719 4.14365 18.6 5.08115C18.0844 5.63428 17.5219 6.29053 16.9312 7.0124C16.5562 7.47178 16.1625 7.97803 15.7594 8.50303C15.4219 8.95303 15.0562 9.43115 14.6625 9.99365C14.3531 10.4249 14.0156 10.903 13.6687 11.3999C13.2469 12.0093 12.8062 12.6562 12.3562 13.3312C12.0656 13.7718 11.8031 14.1749 11.5594 14.5499C11.1656 15.1499 10.8094 15.7124 10.4625 16.2655C10.275 16.5655 10.0781 16.8749 9.88124 17.1937C9.82499 17.2874 9.76874 17.3624 9.72186 17.428C9.53436 17.6812 9.32811 17.9249 9.08436 18.1687C8.71874 18.5249 8.28749 18.8624 7.76249 19.1999C7.38749 19.4437 6.95624 19.6874 6.40312 19.9687C6.06562 20.1374 5.72812 20.3062 5.39999 20.4655C5.06249 20.6343 4.71562 20.803 4.37812 20.9718C4.02187 21.1593 3.74062 21.3093 3.47812 21.4687C2.49374 22.0593 1.85624 22.6593 1.49999 23.353C1.45312 23.4468 1.36874 23.5124 1.27499 23.5405C1.22812 23.5405 1.19999 23.5499 1.16249 23.5499ZM18.6844 3.91865C17.925 4.06865 17.25 4.45303 16.5656 5.09053C15.6469 5.9624 14.7844 7.26553 13.7812 8.7749C12.5344 10.6593 10.9781 13.0124 8.69999 15.4218C8.00624 16.153 6.74061 17.2405 4.71562 18.8437C4.17186 19.2749 3.61874 19.7062 3.11249 20.1187C2.32499 20.7374 1.26562 21.8249 1.16249 22.453C1.60312 21.8624 2.22187 21.328 3.08437 20.8124C3.35624 20.653 3.65624 20.4843 4.03124 20.2874C4.36874 20.1093 4.72499 19.9405 5.06249 19.7718C5.39061 19.6124 5.72812 19.453 6.05624 19.2843C6.59061 19.0124 6.99374 18.778 7.34999 18.553C7.82811 18.2437 8.22186 17.9437 8.54999 17.6155C8.76561 17.3999 8.94374 17.1937 9.11249 16.9687C9.15936 16.9124 9.19686 16.8468 9.25311 16.7624C9.44999 16.453 9.64686 16.1343 9.83436 15.8343C10.1812 15.2812 10.5469 14.7187 10.9406 14.1187C11.1844 13.7437 11.4469 13.3405 11.7469 12.8999C12.1969 12.2249 12.6375 11.5687 13.0687 10.9593C13.425 10.453 13.7625 9.9749 14.0719 9.54365C14.475 8.98115 14.8406 8.49365 15.1875 8.04365C15.5906 7.50928 15.9937 7.00303 16.3687 6.53428C16.9687 5.79365 17.5406 5.12803 18.0656 4.55615C18.3 4.3124 18.5062 4.09678 18.6844 3.91865Z" fill="#829B34"/>
<path d="M19.7531 3.46867C19.7531 3.47804 19.7531 3.47804 19.7531 3.46867C19.7531 3.47804 19.7531 3.46867 19.7531 3.46867C19.7531 3.47804 19.7531 3.47804 19.7531 3.46867C19.7156 3.49679 19.2562 3.83429 18.3375 4.81867C17.8875 5.29679 17.325 5.94367 16.65 6.76867C16.2937 7.20929 15.9 7.70617 15.4781 8.26867C15.1312 8.72804 14.7656 9.22492 14.3719 9.75929C14.0531 10.1999 13.7156 10.6687 13.3687 11.1749C12.9562 11.7749 12.5156 12.4218 12.0562 13.1062C11.7937 13.4999 11.5312 13.903 11.25 14.3249C10.8937 14.8687 10.5281 15.4405 10.1437 16.0405C9.95624 16.3405 9.75937 16.6499 9.56249 16.9687C9.51562 17.0437 9.46874 17.1187 9.41249 17.1843C9.23437 17.4374 9.02812 17.6624 8.81249 17.878C8.43749 18.2437 8.00624 18.5718 7.54687 18.8624C7.12499 19.1343 6.67499 19.378 6.21562 19.6124C5.54062 19.9593 4.84687 20.278 4.19062 20.6155C3.87187 20.7843 3.56249 20.9437 3.27187 21.1218C2.37187 21.6655 1.60312 22.2937 1.15312 23.1468C-0.290633 22.2937 2.87812 19.8093 2.87812 19.8093C3.38437 19.4062 3.93749 18.9749 4.48124 18.5343C6.02812 17.2968 7.60312 16.003 8.42812 15.1405C12.5062 10.828 14.1656 6.80617 16.3031 4.79054C17.2781 3.90929 18.3375 3.41242 19.7531 3.46867Z" fill="#8FAE3C"/>
<path d="M4.05 24C3.0375 24 2.025 23.8406 1.05 23.5312C0.946875 23.4937 0.8625 23.4187 0.815625 23.3156C0.778125 23.2125 0.778125 23.1 0.834375 22.9969C1.26562 22.1812 1.97812 21.4875 3.09375 20.8219C3.24375 20.7281 3.43125 20.7563 3.55313 20.8781C3.675 21 3.69375 21.1875 3.60938 21.3375C3.54375 21.45 3.50625 21.5719 3.50625 21.7031C3.50625 22.0875 3.81562 22.3969 4.2 22.3969C4.58438 22.3969 4.89375 22.0875 4.89375 21.7031C4.89375 21.3281 4.58438 21.0094 4.20938 21.0094C4.04063 21.0094 3.89062 20.8875 3.85313 20.7188C3.81562 20.55 3.89063 20.3813 4.05 20.2969C4.3875 20.1187 4.74375 19.95 5.08125 19.7812C5.40938 19.6219 5.74688 19.4625 6.075 19.2938C6.21563 19.2188 6.39375 19.2469 6.50625 19.3594C6.61875 19.4719 6.65625 19.6406 6.59063 19.7906C6.53438 19.9125 6.50625 20.0344 6.50625 20.175C6.50625 20.6812 6.91875 21.0938 7.425 21.0938C7.66875 21.0938 7.90312 21 8.07187 20.8219C8.25 20.6438 8.34375 20.4188 8.34375 20.1656C8.34375 19.6969 7.99687 19.3031 7.52812 19.2469C7.36875 19.2281 7.2375 19.1156 7.20937 18.9562C7.17188 18.7969 7.2375 18.6375 7.36875 18.5531C7.84687 18.2437 8.24062 17.9437 8.56875 17.6156C8.67188 17.5125 8.82187 17.4844 8.95312 17.5312C9.08437 17.5781 9.1875 17.7 9.20625 17.8406C9.29062 18.4781 9.83437 18.9562 10.4719 18.9562C11.175 18.9562 11.7563 18.375 11.7563 17.6719C11.7563 16.9688 11.1844 16.3875 10.4719 16.3875C10.3875 16.3875 10.3125 16.3969 10.2375 16.4062C10.0875 16.4344 9.9375 16.3781 9.85312 16.2469C9.76875 16.125 9.76875 15.9562 9.84375 15.8344C10.1906 15.2812 10.5562 14.7188 10.95 14.1188C11.0437 13.9688 11.2406 13.9125 11.4 13.9781C11.5687 14.0438 11.6625 14.2125 11.6344 14.3906C11.6156 14.475 11.6156 14.5594 11.6156 14.6437C11.6156 15.45 12.2719 16.0969 13.0688 16.0969C13.875 16.0969 14.5219 15.4406 14.5219 14.6344C14.5219 13.8281 13.8656 13.1813 13.0688 13.1813C12.7875 13.1813 12.5062 13.2656 12.2719 13.4156C12.1219 13.5094 11.925 13.4906 11.8031 13.3688C11.6812 13.2469 11.6625 13.0406 11.7563 12.9C12.2063 12.225 12.6469 11.5688 13.0781 10.9594C13.1719 10.8188 13.35 10.7625 13.5 10.8188C13.6594 10.875 13.7625 11.0156 13.7531 11.1844C13.7531 11.2125 13.7531 11.2312 13.7531 11.2594C13.7531 11.9437 14.3062 12.4969 14.9906 12.4969C15.3281 12.4969 15.6375 12.3656 15.8719 12.1312C16.1063 11.8969 16.2375 11.5875 16.2375 11.25C16.2375 10.5656 15.6844 10.0125 15 10.0125C14.8313 10.0125 14.6813 10.0406 14.5312 10.1063C14.3719 10.1719 14.1938 10.125 14.0906 9.99375C13.9875 9.8625 13.9875 9.675 14.0813 9.54375C14.4844 8.98125 14.85 8.49375 15.1969 8.04375C15.2813 7.93125 15.4219 7.875 15.5625 7.90313C15.7031 7.93125 15.8156 8.03437 15.8531 8.16562C15.9563 8.50312 16.2656 8.72812 16.6125 8.72812C17.0531 8.72812 17.4094 8.37187 17.4094 7.93125C17.4094 7.50937 17.0812 7.1625 16.6594 7.14375C16.5188 7.13437 16.3969 7.05 16.3313 6.91875C16.275 6.7875 16.2937 6.6375 16.3781 6.525C18.4969 3.90937 19.5094 3.17812 19.5469 3.15C19.6875 3.04687 19.8844 3.05625 20.0156 3.17813C20.1469 3.3 20.175 3.4875 20.0906 3.64688C20.0625 3.69375 19.425 4.8375 19.5094 7.88437C19.7625 10.5562 17.6625 15.0187 14.5031 18.5062C11.2875 22.0594 7.575 24 4.05 24ZM1.74375 22.95C2.50312 23.1469 3.27188 23.25 4.05 23.25C8.52188 23.25 12.1594 19.9781 13.9313 18.0187C16.9219 14.7281 18.9937 10.3969 18.75 7.95938C18.75 7.95 18.75 7.94062 18.75 7.93125C18.7125 6.4875 18.825 5.4375 18.9656 4.70625C18.5438 5.1375 18 5.7375 17.3063 6.57187C17.8031 6.825 18.1406 7.35 18.1406 7.94062C18.1406 8.79375 17.4469 9.4875 16.6031 9.4875C16.1531 9.4875 15.7312 9.28125 15.4406 8.95312C15.3562 9.05625 15.2813 9.16875 15.1969 9.28125C16.2 9.38438 16.9781 10.2375 16.9781 11.2594C16.9781 11.7937 16.7719 12.2906 16.3969 12.6656C16.0219 13.0406 15.525 13.2469 14.9906 13.2469C14.9156 13.2469 14.8313 13.2469 14.7563 13.2375C15.075 13.6219 15.2625 14.1094 15.2625 14.6437C15.2625 15.8625 14.2781 16.8563 13.0594 16.8563C12.7688 16.8563 12.4969 16.8 12.2438 16.6969C12.4031 16.9875 12.4969 17.3156 12.4969 17.6719C12.4969 18.7969 11.5875 19.7062 10.4719 19.7062C9.675 19.7062 8.97187 19.2375 8.64375 18.5531C8.55 18.6281 8.45625 18.7031 8.3625 18.7781C8.80312 19.0781 9.08437 19.5844 9.09375 20.1562C9.09375 20.6063 8.925 21.0188 8.60625 21.3375C8.2875 21.6562 7.875 21.825 7.425 21.825C6.54375 21.825 5.82188 21.1406 5.75625 20.2781C5.64375 20.3344 5.52188 20.3906 5.40938 20.4469C5.31563 20.4938 5.22188 20.5406 5.12813 20.5781C5.44688 20.8406 5.64375 21.2437 5.64375 21.6844C5.64375 22.4813 4.99687 23.1281 4.2 23.1281C3.47813 23.1281 2.8875 22.6031 2.775 21.9188C2.33438 22.2656 1.99687 22.5938 1.74375 22.95ZM10.8281 15.6844C10.9406 15.7031 11.0437 15.7312 11.1562 15.7687C11.0906 15.6656 11.0344 15.5438 10.9969 15.4313C10.9406 15.5156 10.8844 15.6 10.8281 15.6844ZM13.05 12.45C13.1719 12.45 13.2844 12.4594 13.3969 12.4781C13.3125 12.3656 13.2375 12.2438 13.1813 12.1219C13.1063 12.2344 13.0312 12.3469 12.9563 12.4594C12.9844 12.45 13.0219 12.45 13.05 12.45Z" fill="#829B34"/>
<path d="M19.1156 7.93145C19.6125 12.9846 10.7156 26.2408 1.16251 23.1752C1.61251 22.3221 2.38126 21.6939 3.28126 21.1502C3.17813 21.3096 3.12188 21.5064 3.12188 21.7127C3.12188 22.3033 3.60001 22.7814 4.19063 22.7814C4.78126 22.7814 5.25938 22.3033 5.25938 21.7127C5.25938 21.1221 4.79063 20.6533 4.20001 20.6439C4.85626 20.3064 5.55001 19.9877 6.22501 19.6408C6.15001 19.8096 6.10313 19.9877 6.10313 20.1846C6.10313 20.8971 6.68438 21.4783 7.39688 21.4783C8.10938 21.4783 8.69063 20.8971 8.69063 20.1846C8.69063 19.5189 8.18438 18.9752 7.54688 18.9002C8.00626 18.6096 8.43751 18.2814 8.81251 17.9158C8.91563 18.7314 9.60938 19.3596 10.4531 19.3596C11.3719 19.3596 12.1125 18.6189 12.1031 17.7002C12.1031 16.7814 11.3625 16.0408 10.4438 16.0408C10.3406 16.0408 10.2375 16.0502 10.1344 16.0689C10.5094 15.4689 10.8844 14.8971 11.2406 14.3533C11.2219 14.4564 11.2125 14.5596 11.2125 14.6721C11.2125 15.6846 12.0375 16.5002 13.0406 16.5002C14.0531 16.5002 14.8688 15.6752 14.8688 14.6627C14.8688 13.6502 14.0438 12.8346 13.0406 12.8346C12.675 12.8346 12.3281 12.9471 12.0469 13.1346C12.5063 12.4408 12.9469 11.8033 13.3594 11.2033C13.3594 11.2314 13.3594 11.2596 13.3594 11.2877C13.3594 12.1783 14.0813 12.9002 14.9719 12.9002C15.8625 12.9002 16.5844 12.1783 16.5844 11.2783C16.5844 10.3877 15.8625 9.66582 14.9719 9.66582C14.7563 9.66582 14.55 9.7127 14.3625 9.7877C14.7563 9.24395 15.1219 8.74707 15.4688 8.29707C15.6094 8.78457 16.0594 9.13144 16.5844 9.13144C17.2313 9.13144 17.7469 8.60645 17.7469 7.95957C17.7469 7.33145 17.25 6.8252 16.6313 6.79707C18.675 4.26582 19.6688 3.53457 19.725 3.49707C19.7156 3.53457 19.0313 4.7252 19.1156 7.93145Z" fill="#8FAE3C"/>
<path d="M5.25936 21.703C5.25936 22.2937 4.78123 22.7718 4.19061 22.7718C3.59998 22.7718 3.12186 22.2937 3.12186 21.703C3.12186 21.4968 3.17811 21.3093 3.28123 21.1405C3.57186 20.9624 3.88123 20.7937 4.19998 20.6343C4.79061 20.6437 5.25936 21.1124 5.25936 21.703Z" fill="#B7C536"/>
<path d="M8.69999 20.1658C8.69999 20.8783 8.11874 21.4596 7.40624 21.4596C6.69374 21.4596 6.11249 20.8783 6.11249 20.1658C6.11249 19.9689 6.14999 19.7908 6.23436 19.6221C6.69374 19.3877 7.14374 19.1439 7.56561 18.8721C8.19374 18.9564 8.69999 19.5002 8.69999 20.1658Z" fill="#B7C536"/>
<path d="M12.1125 17.6813C12.1125 18.6001 11.3719 19.3407 10.4625 19.3407C9.61874 19.3407 8.92499 18.7126 8.82187 17.897C9.10312 17.6251 9.35624 17.3251 9.57187 16.9876C9.76874 16.6688 9.96562 16.3595 10.1531 16.0595C10.2562 16.0407 10.3594 16.0313 10.4625 16.0313C11.3719 16.022 12.1125 16.772 12.1125 17.6813Z" fill="#B7C536"/>
<path d="M14.8875 14.6533C14.8875 15.6658 14.0719 16.4908 13.0594 16.4908C12.0469 16.4908 11.2313 15.6752 11.2313 14.6627C11.2313 14.5596 11.2406 14.4471 11.2594 14.3439C11.5313 13.9221 11.8031 13.5189 12.0656 13.1252C12.3563 12.9377 12.6938 12.8252 13.0594 12.8252C14.0625 12.8252 14.8875 13.6408 14.8875 14.6533Z" fill="#B7C536"/>
<path d="M16.6031 11.2687C16.6031 12.1594 15.8812 12.8906 14.9906 12.8906C14.1 12.8906 13.3781 12.1688 13.3781 11.2781C13.3781 11.25 13.3781 11.2219 13.3781 11.1938C13.725 10.6969 14.0625 10.2188 14.3812 9.77813C14.5687 9.70313 14.775 9.65625 14.9906 9.65625C15.8719 9.65625 16.6031 10.3781 16.6031 11.2687Z" fill="#B7C536"/>
<path d="M17.7656 7.94082C17.7656 8.58769 17.2406 9.11269 16.6031 9.11269C16.0781 9.11269 15.6281 8.76582 15.4875 8.27832C15.9094 7.71582 16.3031 7.21895 16.6594 6.77832C17.2687 6.80645 17.7656 7.32207 17.7656 7.94082Z" fill="#B7C536"/>
<path d="M5.63436 21.703C5.63436 22.4999 4.98748 23.1468 4.19061 23.1468C3.39373 23.1468 2.74686 22.4999 2.74686 21.703C2.74686 21.4312 2.82186 21.1687 2.96248 20.9437C2.99061 20.8968 3.03748 20.8499 3.08436 20.8218C3.35623 20.653 3.65623 20.4937 4.03123 20.2968C4.08748 20.2687 4.14373 20.2593 4.20936 20.2593C4.99686 20.2687 5.63436 20.9155 5.63436 21.703Z" fill="#B7C536"/>
<path d="M9.07499 20.1656C9.07499 20.6156 8.90624 21.0281 8.58749 21.3469C8.26874 21.6656 7.85624 21.8344 7.40624 21.8344C6.48749 21.8344 5.73749 21.0844 5.73749 20.1656C5.73749 19.9219 5.78436 19.6875 5.88749 19.4719C5.92499 19.3969 5.98124 19.3313 6.05624 19.2938C6.58124 19.0219 6.99374 18.7875 7.34999 18.5625C7.42499 18.5156 7.50936 18.4969 7.59374 18.5062C8.43749 18.6094 9.07499 19.3219 9.07499 20.1656Z" fill="#B7C536"/>
<path d="M11.1562 15.7783C11.4 16.2002 11.7844 16.5283 12.2438 16.7064C12.0094 16.2752 11.6156 15.9471 11.1562 15.7783Z" fill="#B7C536"/>
<path d="M13.4062 12.478C13.725 12.8999 14.2031 13.1812 14.7562 13.2468C14.4187 12.8437 13.9406 12.5624 13.4062 12.478ZM11.1562 15.778C11.4 16.1999 11.7844 16.528 12.2438 16.7062C12.0094 16.2749 11.6156 15.9468 11.1562 15.778Z" fill="#B7C536"/>
<path d="M12.4875 17.6813C12.4875 18.8063 11.5781 19.7157 10.4625 19.7157C9.44063 19.7157 8.57813 18.9563 8.44688 17.9438C8.42813 17.8313 8.47501 17.7095 8.55938 17.6251C8.83126 17.3532 9.06563 17.0813 9.25313 16.7813C9.45001 16.4626 9.64688 16.1532 9.83438 15.8532C9.89063 15.7688 9.97501 15.7032 10.0781 15.6845C10.2 15.6563 10.3313 15.647 10.4625 15.647C10.7063 15.647 10.9406 15.6938 11.1563 15.7688C11.4 16.1907 11.7844 16.5188 12.2438 16.697C12.4031 16.997 12.4875 17.3345 12.4875 17.6813Z" fill="#B7C536"/>
<path d="M14.9812 9.28125C14.7187 9.28125 14.4656 9.32812 14.2312 9.43125C14.1656 9.45937 14.1094 9.50625 14.0719 9.5625C13.7531 10.0031 13.4156 10.4719 13.0687 10.9781C13.0219 11.0344 13.0031 11.1094 13.0031 11.1844C13.0031 11.2125 13.0031 11.25 13.0031 11.2781C13.0031 11.7281 13.1531 12.15 13.4156 12.4875C13.7344 12.9094 14.2125 13.1906 14.7656 13.2562C14.8406 13.2656 14.9156 13.2656 15 13.2656C15.5344 13.2656 16.0312 13.0594 16.4062 12.6844C16.7812 12.3094 16.9875 11.8031 16.9875 11.2781C16.9781 10.1719 16.0781 9.28125 14.9812 9.28125ZM15.8625 12.15C15.6281 12.3844 15.3187 12.5156 14.9812 12.5156V12.8906V12.5156C14.3062 12.5156 13.7625 11.9812 13.7437 11.3062C14.0437 10.875 14.3344 10.4625 14.6062 10.0875C14.7281 10.05 14.85 10.0312 14.9812 10.0312C15.6656 10.0312 16.2187 10.5844 16.2187 11.2687C16.2281 11.6062 16.0969 11.9156 15.8625 12.15Z" fill="#B7C536"/>
<path d="M15.2625 14.6532C15.2625 15.872 14.2781 16.8563 13.0594 16.8657C12.7687 16.8657 12.4969 16.8095 12.2437 16.7063C12.0094 16.2751 11.625 15.947 11.1562 15.7782C10.9594 15.4501 10.8562 15.0657 10.8469 14.6626C10.8469 14.5313 10.8562 14.4095 10.8844 14.2782C10.8937 14.2313 10.9125 14.1845 10.9406 14.1376C11.1844 13.7626 11.4469 13.3595 11.7469 12.9188C11.775 12.8813 11.8125 12.8438 11.85 12.8157C12.2062 12.5813 12.6187 12.4595 13.05 12.4595C13.1719 12.4595 13.2844 12.4688 13.4062 12.4876C13.725 12.9095 14.2031 13.1907 14.7562 13.2563C15.0656 13.6313 15.2625 14.1188 15.2625 14.6532Z" fill="#B7C536"/>
<path d="M16.5938 9.48779C15.9187 9.48779 15.3094 9.03779 15.1125 8.38154C15.075 8.26904 15.1031 8.14717 15.1687 8.04404C15.5719 7.50967 15.975 7.00342 16.35 6.53467C16.425 6.44092 16.5375 6.39404 16.6594 6.39404C17.4844 6.43154 18.1312 7.10654 18.1312 7.93154C18.1406 8.79404 17.4469 9.48779 16.5938 9.48779ZM15.9094 8.33467C16.05 8.57842 16.3125 8.73779 16.6031 8.73779V9.11279V8.73779C17.0438 8.73779 17.3906 8.38154 17.3906 7.94092C17.3906 7.57529 17.1469 7.26592 16.8094 7.18154C16.5188 7.54717 16.2187 7.93154 15.9094 8.33467Z" fill="#B7C536"/>
<path d="M22.1437 3.87195C22.05 3.87195 21.9656 3.86258 21.8812 3.82508C21.8344 3.80632 21.7969 3.78758 21.7594 3.75945C21.7312 3.73132 21.15 3.23445 20.9625 2.5407C20.4656 2.97195 20.0906 3.63758 20.0812 3.65633C19.9781 3.83445 19.7531 3.90007 19.575 3.80632C19.3969 3.7032 19.3312 3.4782 19.425 3.30008C19.7437 2.71883 20.325 1.95945 21.0094 1.61258C21.2812 0.9282 22.0875 0.38445 23.4187 0.0188251C23.6156 -0.0374249 23.8219 0.0750751 23.8781 0.281325C23.9344 0.4782 23.8219 0.68445 23.6156 0.7407C22.9031 0.937575 22.3594 1.1907 22.0312 1.46258C22.1344 1.4907 22.2281 1.51883 22.3312 1.57508C23.2125 2.00633 23.2969 2.70945 23.1 3.18758C22.9312 3.60945 22.5375 3.87195 22.1437 3.87195ZM21.6562 2.18445C21.675 2.55945 21.975 2.94383 22.1719 3.12195C22.2562 3.11258 22.3594 3.01883 22.4156 2.89695C22.5187 2.6532 22.3687 2.4282 22.0031 2.25008C21.8906 2.18445 21.7687 2.17508 21.6562 2.18445Z" fill="#829B34"/>
</g>
<defs>
<clipPath id="clip0_80_33805">
<rect width="24" height="24" fill="white"/>
</clipPath>
</defs>
</svg>
