<svg width="24" height="24" viewBox="0 0 24 24" fill="none" xmlns="http://www.w3.org/2000/svg">
<g clip-path="url(#clip0_270_29502)">
<path d="M16.6502 17.925C15.7033 20.2031 13.4158 21.675 10.8189 21.675C9.80644 21.675 8.78456 21.45 7.78144 21.0094C7.27519 20.8125 6.73144 20.7188 6.16894 20.7188C5.14706 20.7188 4.33144 21.0375 4.00331 21.1781C3.97519 21.2719 3.94706 21.3844 3.90019 21.525C3.90956 21.7406 4.04081 21.9094 4.21894 22.125C4.37831 22.3219 4.55644 22.5375 4.62206 22.8281C4.66894 23.025 4.54706 23.2313 4.34081 23.2781C4.14394 23.325 3.93769 23.2031 3.89081 22.9969C3.86269 22.875 3.75956 22.7438 3.63769 22.6031C3.58144 22.5281 3.51581 22.4531 3.45956 22.3688C3.27206 22.6125 3.01894 22.8375 2.70956 22.9781C1.93144 23.3063 1.56581 23.8406 1.56581 23.8406C1.49081 23.9438 1.37831 24.0094 1.25644 24.0094C1.18144 24.0094 1.11581 23.9906 1.05019 23.9438C0.881437 23.8313 0.834562 23.5969 0.947062 23.4281C0.965812 23.4 1.43456 22.7156 2.41894 22.2844C2.49394 22.2469 2.56894 22.2094 2.63456 22.1531C2.27831 22.3219 1.90331 22.4344 1.49081 22.4906C1.47206 22.4906 1.45331 22.4906 1.43456 22.4906C1.25644 22.4906 1.09706 22.3594 1.06894 22.1719C1.04081 21.9656 1.18144 21.7781 1.37831 21.7406C2.15644 21.6188 2.77519 21.3 3.37519 20.7C3.03769 20.9906 2.61581 21.1688 2.10019 21.225C2.09081 21.225 2.07206 21.225 2.06269 21.225C1.87519 21.225 1.70644 21.0844 1.68769 20.8875C1.66894 20.6813 1.81894 20.4938 2.01581 20.475C2.56894 20.4188 3.15956 20.2031 3.44081 19.0594C3.36581 18.375 3.17831 17.4656 2.74706 16.3125C1.80019 13.575 1.97831 11.1 3.23456 9.32813C4.25644 7.89375 5.95331 7.03125 7.77206 7.03125C9.40331 7.03125 10.9689 7.69688 12.1783 8.90625C12.2064 8.93438 12.2346 8.97187 12.2533 9.00937L13.8658 9.9375C13.8752 9.94688 13.8939 9.95625 13.9033 9.96563C14.1846 10.1813 14.4658 10.4156 14.7189 10.65C14.7283 10.65 14.7283 10.6594 14.7377 10.6688L14.7471 10.6781C16.9408 12.8906 17.6439 15.5344 16.6502 17.925Z" fill="#C3556D"/>
<path d="M14.3251 15.7969C14.3063 15.7969 14.2876 15.7969 14.2688 15.7876C12.3563 15.4782 10.1907 13.8469 8.9907 11.8032C8.08133 10.2563 7.84695 8.68131 8.32508 7.35943C8.40008 7.16256 8.6157 7.06881 8.8032 7.13443C9.00008 7.20943 9.09383 7.42506 9.0282 7.61256C8.62508 8.71881 8.8407 10.0688 9.63758 11.4188C10.7345 13.2751 12.6845 14.7657 14.3907 15.0376C14.597 15.0657 14.7376 15.2626 14.7001 15.4688C14.6626 15.6657 14.5032 15.7969 14.3251 15.7969Z" fill="#B24965"/>
<path d="M14.3252 18.7969C14.3065 18.7969 14.2971 18.7969 14.2783 18.7969C12.6096 18.5813 10.7721 17.6438 9.11272 16.1625C7.53772 14.7469 6.28147 12.9657 5.66272 11.2594C5.58772 11.0625 5.69085 10.8469 5.88772 10.7813C6.0846 10.7157 6.30022 10.8094 6.36585 11.0063C7.60335 14.4282 11.2596 17.6532 14.3627 18.0469C14.569 18.075 14.7096 18.2625 14.6908 18.4688C14.6721 18.6563 14.5127 18.7969 14.3252 18.7969Z" fill="#B24965"/>
<path d="M4.25623 13.9312C4.10623 13.9312 3.95623 13.8375 3.89998 13.6781C3.42186 12.3281 3.17811 11.0344 3.13123 9.60935C3.12186 9.4031 3.29061 9.22498 3.49686 9.22498C3.70311 9.22498 3.88123 9.38435 3.88123 9.5906C3.92811 10.9312 4.16248 12.15 4.61248 13.4344C4.67811 13.6312 4.57498 13.8468 4.38748 13.9125C4.34061 13.9218 4.29373 13.9312 4.25623 13.9312Z" fill="#B24965"/>
<path d="M13.7438 20.6344C10.9688 20.6344 8.52193 19.7157 6.64693 17.9626C6.49693 17.8219 6.48756 17.5876 6.62818 17.4282C6.76881 17.2782 7.00318 17.2688 7.16256 17.4094C9.00943 19.1344 11.4657 19.9876 14.2594 19.8751C14.4657 19.8657 14.6438 20.0251 14.6532 20.2313C14.6626 20.4376 14.5032 20.6157 14.2969 20.6251C14.1094 20.6344 13.9219 20.6344 13.7438 20.6344Z" fill="#B24965"/>
<path d="M6.06575 19.9781C6.00012 19.9781 5.9345 19.9594 5.86887 19.9219C4.172 18.8812 3.01887 17.3531 2.45637 15.3844C2.40012 15.1875 2.51262 14.9812 2.7095 14.9156C2.90637 14.8594 3.11262 14.9719 3.17825 15.1687C3.69387 16.9687 4.70637 18.3187 6.26262 19.275C6.44075 19.3875 6.497 19.6125 6.3845 19.7906C6.31887 19.9219 6.197 19.9781 6.06575 19.9781Z" fill="#B24965"/>
<path d="M14.0157 9.6375C13.9875 9.6375 13.95 9.6375 13.9219 9.62813C13.8 9.59063 13.6969 9.49688 13.6594 9.375C13.3782 8.44688 13.2938 7.70625 13.4063 7.09688C12.7219 6.47813 12.5532 5.72813 12.9188 4.93125C12.5063 4.51875 11.9344 3.69375 11.8782 2.76563C11.8313 2.08125 12.0563 1.09688 13.3782 0.309375C13.3782 0.309375 13.3876 0.309375 13.3876 0.3C13.7438 0.103125 14.0907 0 14.4282 0C14.9813 0 15.4594 0.2625 15.7688 0.740625C16.2094 1.40625 16.2751 2.3625 15.9844 3.39375C16.3501 3.42188 16.6407 3.61875 16.7813 3.94688C16.9969 4.44375 16.8282 5.12813 16.5188 5.625C16.7907 5.9625 16.9594 6.375 17.0251 6.81563C17.0438 6.9375 16.9969 7.06875 16.9032 7.15313C15.8719 8.05313 14.8125 9.0375 14.2688 9.54375C14.1938 9.6 14.1094 9.6375 14.0157 9.6375ZM13.5563 4.5C13.6501 4.54688 13.725 4.63125 13.7532 4.725C13.7813 4.82813 13.7719 4.94063 13.7157 5.03438C13.3126 5.68125 13.4157 6.16875 14.0532 6.65625C14.175 6.75 14.2313 6.90938 14.1844 7.05938C14.0719 7.4625 14.0813 7.95 14.2219 8.56875C14.7657 8.0625 15.5063 7.3875 16.2563 6.73125C16.1813 6.42188 16.0219 6.14063 15.7875 5.925C15.6375 5.78438 15.6282 5.55 15.7688 5.4C16.0688 5.07188 16.2094 4.5 16.1063 4.25625C16.0876 4.21875 16.0594 4.15313 15.8907 4.15313C15.7969 4.15313 15.6751 4.17188 15.5438 4.21875C15.4032 4.26563 15.2532 4.22813 15.1501 4.11563C15.0469 4.00313 15.0282 3.85313 15.0844 3.7125C15.5907 2.52188 15.4501 1.62188 15.1501 1.17188C15.0282 0.984375 14.8032 0.76875 14.4282 0.76875C14.2219 0.76875 13.9969 0.834375 13.7532 0.965625C13.0032 1.41563 12.6188 1.96875 12.6188 2.61563C12.6188 3.50625 13.3594 4.37813 13.5563 4.5Z" fill="#829B34"/>
<path d="M16.7253 6.8625C15.6566 7.79062 14.5878 8.79375 14.0816 9.2625C13.8191 8.40937 13.6972 7.6125 13.8847 6.94687C13.1253 6.36562 12.9378 5.67187 13.4535 4.8375C13.1066 4.67812 10.9597 2.23125 13.6316 0.628122C15.3191 -0.309378 16.4816 1.51875 15.4878 3.85312C16.9128 3.38437 16.7253 4.96875 16.1066 5.64375C16.4253 5.94375 16.6597 6.34687 16.7253 6.8625Z" fill="#8FAE3C"/>
<path d="M15.0002 6.85312C14.8502 6.85312 14.7095 6.75937 14.6533 6.61875C14.1939 5.45625 13.8752 4.17187 13.7158 2.8125C13.6877 2.60625 13.8377 2.41875 14.0439 2.4C14.2502 2.37187 14.4377 2.52187 14.4564 2.72812C14.6064 4.02187 14.9064 5.24062 15.347 6.34687C15.422 6.54375 15.3283 6.75937 15.1314 6.83437C15.0939 6.84375 15.047 6.85312 15.0002 6.85312Z" fill="#829B34"/>
<path d="M12.6939 11.2031C12.6189 11.2031 12.5439 11.175 12.4783 11.1281C12.3471 11.0344 12.2908 10.8562 12.3471 10.6969C12.4689 10.3594 12.5158 10.05 12.5158 9.73125C12.5064 8.97188 11.9158 8.25938 11.1752 7.35938C10.9033 7.02187 10.6127 6.68437 10.3314 6.3C10.2471 6.17812 10.2377 6.01875 10.3033 5.89688C10.3783 5.76563 10.5189 5.69063 10.6596 5.70938C12.4877 5.86875 13.5846 7.275 13.9596 8.80313C14.5408 8.25938 15.4877 7.39687 16.4064 6.58125C17.3533 5.75625 18.0846 5.15625 18.5814 4.80937C19.0502 4.48125 19.5564 4.3125 20.0627 4.3125C20.7096 4.3125 21.2533 4.6125 21.5346 5.10938C21.6939 5.4 21.8814 5.97187 21.5439 6.80625C22.2658 6.83437 22.8002 7.1625 23.0252 7.71563C23.2596 8.26875 23.0908 8.94375 22.6127 9.42188C22.0314 10.0031 21.2252 10.8094 19.7064 10.8094C19.0689 10.8094 18.3752 10.6781 17.5783 10.3969C17.0721 10.2188 16.5377 10.125 16.0127 10.125C15.1033 10.125 14.3158 10.3875 13.8189 10.6125C13.2658 10.8656 12.9283 11.1187 12.9189 11.1187C12.8627 11.175 12.7783 11.2031 12.6939 11.2031ZM11.6439 6.75937C11.6814 6.80625 11.7189 6.84375 11.7471 6.89062C12.5533 7.86562 13.2471 8.70938 13.2658 9.73125C13.2658 9.84375 13.2658 9.95625 13.2564 10.0594C13.3408 10.0219 13.4252 9.975 13.5189 9.92813C13.5471 9.91875 13.5658 9.90937 13.5939 9.9H13.5846C13.4533 9.85312 13.3596 9.73125 13.3408 9.59063C13.2189 8.46563 12.6564 7.30312 11.6439 6.75937ZM16.0127 9.375C16.6314 9.375 17.2408 9.47813 17.8314 9.68438C18.5346 9.92813 19.1721 10.0594 19.7158 10.0594C20.9252 10.0594 21.5439 9.44063 22.0971 8.89688C22.3596 8.63438 22.4627 8.27813 22.3502 8.00625C22.2002 7.64063 21.6752 7.48125 20.9908 7.60312C20.8408 7.63125 20.7002 7.56563 20.6158 7.44375C20.5314 7.32188 20.5314 7.1625 20.6064 7.03125C20.9908 6.4125 21.0939 5.84063 20.8971 5.475C20.7471 5.2125 20.4564 5.0625 20.0814 5.0625C19.7439 5.0625 19.3689 5.19375 19.0314 5.42813C18.5533 5.75625 17.8502 6.3375 16.9221 7.14375C15.8908 8.04375 14.8314 9.02812 14.2877 9.53437L14.1096 9.70312C14.7189 9.4875 15.3752 9.375 16.0127 9.375Z" fill="#829B34"/>
<path d="M22.3596 9.15941C21.5158 10.0032 20.4658 11.0063 17.7096 10.0407C16.0596 9.45941 14.5877 9.86254 13.6689 10.275C13.0596 10.5469 12.6939 10.8282 12.6939 10.8282C12.8252 10.4438 12.8908 10.0875 12.8814 9.73129C12.8627 8.53129 11.6908 7.51879 10.6221 6.07504C12.5252 6.23441 13.5377 7.93129 13.7064 9.53441C13.7064 9.53441 13.8189 9.43129 14.0064 9.25316C14.5127 8.78441 15.5814 7.78129 16.6502 6.85316C17.4471 6.15941 18.2439 5.49379 18.7971 5.10941C20.3721 4.01254 22.2189 5.11879 20.9064 7.21879C22.7439 6.90004 23.1939 8.31566 22.3596 9.15941Z" fill="#8FAE3C"/>
<path d="M17.1469 8.88753C16.95 8.88753 16.7813 8.73753 16.7719 8.53128C16.7625 8.32503 16.9219 8.1469 17.1281 8.13753C18.1125 8.08128 18.975 7.87503 19.7719 7.5094C19.9594 7.42503 20.1844 7.50003 20.2688 7.68753C20.3531 7.87503 20.2781 8.10003 20.0906 8.1844C19.2094 8.5969 18.2625 8.8219 17.175 8.88753C17.1656 8.88753 17.1563 8.88753 17.1469 8.88753Z" fill="#829B34"/>
</g>
<defs>
<clipPath id="clip0_270_29502">
<rect width="24" height="24" fill="white"/>
</clipPath>
</defs>
</svg>
