<svg width="24" height="24" viewBox="0 0 24 24" fill="none" xmlns="http://www.w3.org/2000/svg">
<g clip-path="url(#clip0_270_29492)">
<path d="M23.6907 15.8812C23.1844 16.9031 22.1251 17.4281 20.7188 17.325C19.7907 19.0031 18.6563 19.8469 17.3251 19.8469C16.6876 19.8469 16.0032 19.6406 15.3001 19.2469C15.1688 19.1719 15.0938 19.0219 15.1126 18.8719C15.2907 17.5687 15.6001 16.4625 16.0594 15.5156C15.3938 15.2437 14.9344 14.6625 14.6813 13.7719C13.8844 13.9406 13.1157 14.025 12.3751 14.025C11.6626 14.025 10.9688 13.95 10.2938 13.7906C10.0782 14.7469 9.51569 15.5437 8.62506 16.1625C8.77506 16.35 8.91569 16.5469 9.04694 16.7531C9.06569 16.7906 9.08444 16.8281 9.09381 16.875C9.10319 16.9125 9.23444 17.6812 8.67194 18.3562C8.15631 18.9844 7.21881 19.3031 5.90631 19.3031C5.16569 19.3031 4.50006 19.0219 3.97506 18.4875C3.40319 17.9062 3.05631 17.0812 2.99069 16.1906C1.22819 16.1719 0.225062 14.9344 0.0375617 13.7906C-0.149938 12.6375 0.412562 11.625 1.50006 11.1375C1.40631 9.74998 1.72506 8.59685 2.43756 7.79998C3.10319 7.05935 4.06881 6.67498 5.21256 6.72185C5.10006 5.90623 5.27819 5.13748 5.73756 4.5281C6.39381 3.6656 7.55631 3.16873 8.93444 3.16873C9.16881 3.16873 9.40319 3.1781 9.64694 3.20623C10.5563 2.24998 11.7938 1.6781 12.9844 1.6781C14.4657 1.6781 15.5907 2.52185 16.0594 3.9656C16.3313 3.91873 16.5938 3.8906 16.8563 3.8906C18.7594 3.8906 20.1376 5.18435 20.4001 7.1531C20.6626 7.10623 20.9157 7.08748 21.1594 7.08748C22.1719 7.08748 22.9501 7.49998 23.3438 8.2406C23.8219 9.1406 23.6813 10.3875 22.9782 11.5594C24.0094 13.0594 24.2907 14.6906 23.6907 15.8812Z" fill="#8FAE3C"/>
<path d="M16.6126 15.2812C16.0126 16.3593 15.6751 17.5968 15.4876 18.9281C15.3563 19.8843 15.3095 20.8968 15.3095 21.9468H9.4876C9.66572 19.9499 9.49697 18.2156 8.72822 16.9406C8.54072 16.6218 8.31572 16.3406 8.05322 16.0874C9.20635 15.4218 9.87197 14.5124 10.0032 13.3312C11.5876 13.7718 13.247 13.7437 14.9626 13.3312C15.197 14.5218 15.7688 15.1406 16.6126 15.2812Z" fill="#B7C536"/>
<path d="M15.3095 22.3219H9.48764C9.38451 22.3219 9.28139 22.275 9.20639 22.2C9.13139 22.125 9.10326 22.0219 9.11264 21.9094C9.30014 19.8 9.06576 18.2344 8.40014 17.1281C8.23139 16.8375 8.01576 16.575 7.78139 16.35C7.69701 16.2656 7.65951 16.1531 7.66889 16.0312C7.68764 15.9187 7.75326 15.8156 7.85639 15.75C8.92514 15.1406 9.50639 14.325 9.61889 13.275C9.62826 13.1625 9.69389 13.0687 9.77826 13.0031C9.87201 12.9375 9.98451 12.9281 10.0876 12.9562C10.8095 13.1625 11.5783 13.2656 12.3658 13.2656C13.1626 13.2656 13.997 13.1625 14.8595 12.9562C14.9626 12.9375 15.0658 12.9469 15.1501 13.0031C15.2345 13.0594 15.3001 13.1437 15.3189 13.2469C15.5158 14.25 15.947 14.7937 16.6501 14.9062C16.772 14.925 16.8751 15 16.9314 15.1125C16.9876 15.225 16.9783 15.3469 16.922 15.4594C16.3876 16.425 16.0314 17.5781 15.8439 18.975C15.722 19.8375 15.6658 20.8125 15.6658 21.9375C15.6845 22.1531 15.5158 22.3219 15.3095 22.3219ZM9.90014 21.5719H14.9345C14.9439 20.5687 15.0095 19.6781 15.1126 18.8812C15.2908 17.5781 15.6001 16.4719 16.0595 15.5156C15.3939 15.2531 14.9345 14.6625 14.6814 13.7719C13.8845 13.9406 13.1158 14.0156 12.3751 14.0156C11.6626 14.0156 10.9689 13.9406 10.2939 13.7812C10.0783 14.7375 9.51576 15.5344 8.62514 16.1531C8.77514 16.3406 8.91576 16.5375 9.04701 16.7437C9.75951 17.9156 10.0314 19.5 9.90014 21.5719Z" fill="#829B34"/>
<path d="M10.0032 13.6969C9.95632 13.6969 9.91882 13.6875 9.87195 13.6781C9.79695 13.65 8.1282 13.0219 7.42507 12.0563C7.3032 11.8875 7.3407 11.6531 7.50945 11.5313C7.6782 11.4094 7.91257 11.4469 8.03445 11.6156C8.59695 12.3938 10.1157 12.9656 10.1251 12.975C10.3219 13.05 10.4157 13.2656 10.3501 13.4531C10.2938 13.6031 10.1532 13.6969 10.0032 13.6969Z" fill="#829B34"/>
<path d="M14.9627 13.6968C14.7845 13.6968 14.6252 13.5656 14.597 13.3781C14.5689 13.1718 14.7002 12.9843 14.9064 12.9468C14.9533 12.9374 15.9002 12.7593 16.2564 11.7093C16.322 11.5124 16.5377 11.4093 16.7345 11.4749C16.9314 11.5406 17.0345 11.7562 16.9689 11.9531C16.472 13.4437 15.0845 13.6874 15.0283 13.6968C15.0002 13.6968 14.9814 13.6968 14.9627 13.6968Z" fill="#829B34"/>
<path d="M8.05318 16.4531C7.97818 16.4531 7.91255 16.4344 7.84693 16.3875C7.83755 16.3781 6.77818 15.7031 5.76568 15.9281C5.55943 15.975 5.36255 15.8438 5.31568 15.6469C5.2688 15.4406 5.40005 15.2438 5.59693 15.1969C6.92818 14.8969 8.20318 15.7219 8.25943 15.7594C8.42818 15.8719 8.48443 16.1063 8.36255 16.275C8.28755 16.3969 8.17505 16.4531 8.05318 16.4531Z" fill="#829B34"/>
<path d="M16.6124 15.6562C16.4624 15.6562 16.3124 15.5624 16.2561 15.403C16.1905 15.2062 16.2843 14.9905 16.4811 14.9249C16.8186 14.803 18.5436 14.2312 19.3499 14.7655C19.5186 14.878 19.5655 15.1124 19.453 15.2812C19.3405 15.4499 19.1061 15.4968 18.9374 15.3843C18.5811 15.1499 17.4093 15.3937 16.7343 15.628C16.6874 15.6468 16.6499 15.6562 16.6124 15.6562Z" fill="#829B34"/>
<path d="M11.3252 17.9062C11.1189 17.9062 10.9502 17.7375 10.9502 17.5312V13.5844C10.9502 13.3781 11.1189 13.2094 11.3252 13.2094C11.5314 13.2094 11.7002 13.3781 11.7002 13.5844V17.5312C11.7002 17.7375 11.5314 17.9062 11.3252 17.9062Z" fill="#829B34"/>
<path d="M13.9595 16.3968C13.7532 16.3968 13.5845 16.2281 13.5845 16.0218L13.5938 13.5187C13.5938 13.3124 13.7626 13.1437 13.9688 13.1437C14.1751 13.1437 14.3438 13.3124 14.3438 13.5187L14.3345 16.0218C14.3345 16.2374 14.1657 16.3968 13.9595 16.3968Z" fill="#829B34"/>
</g>
<defs>
<clipPath id="clip0_270_29492">
<rect width="24" height="24" fill="white"/>
</clipPath>
</defs>
</svg>
