<svg width="24" height="24" viewBox="0 0 24 24" fill="none" xmlns="http://www.w3.org/2000/svg">
<g clip-path="url(#clip0_270_29477)">
<path d="M23.625 12C23.625 15.2062 22.2562 18.1031 20.0531 20.1468C17.9625 20.8406 14.4938 20.3062 12.9375 18.1593C14.1844 17.7562 15.0562 17.1093 15.5531 16.2093C19.9312 15.6656 22.4156 12.7968 22.3125 6.77808C23.1562 8.3437 23.625 10.1156 23.625 12Z" fill="#B7C536"/>
<path d="M18.1219 20.8125C16.3219 20.8125 13.9313 20.175 12.6375 18.3844C12.5625 18.2907 12.5437 18.1594 12.5812 18.0469C12.6187 17.9344 12.7125 17.8407 12.825 17.8032C13.9688 17.4375 14.775 16.8375 15.225 16.0313C15.2812 15.9282 15.3844 15.8532 15.5062 15.8438C19.9312 15.2907 22.0312 12.3282 21.9375 6.79692C21.9375 6.62817 22.05 6.46879 22.2188 6.43129C22.3875 6.38442 22.5656 6.46879 22.6406 6.61879C23.5312 8.25942 24 10.125 24 12C24 15.2157 22.6875 18.2063 20.3156 20.4282C20.2781 20.4657 20.2312 20.4938 20.175 20.5125C19.575 20.7094 18.8625 20.8125 18.1219 20.8125ZM13.5656 18.3375C14.7469 19.6032 16.6406 20.0625 18.1125 20.0625C18.7406 20.0625 19.35 19.9782 19.8563 19.8188C22.0406 17.7563 23.2406 14.9813 23.2406 12C23.2406 10.8 23.0344 9.60004 22.6406 8.47504C22.2937 13.2563 19.9875 15.975 15.7781 16.5657C15.3094 17.3344 14.5687 17.925 13.5656 18.3375Z" fill="#829B34"/>
<path d="M16.6218 20.6626C16.4905 20.6626 16.3686 20.5969 16.2936 20.4751C16.1905 20.2969 16.2561 20.0626 16.4343 19.9594C16.4718 19.9407 19.1343 18.3844 19.5468 16.3969C19.5936 16.1907 19.7905 16.0594 19.9874 16.1063C20.1936 16.1532 20.3249 16.3501 20.278 16.5469C19.7905 18.8719 16.9218 20.5313 16.7999 20.6063C16.7436 20.6532 16.6874 20.6626 16.6218 20.6626Z" fill="#829B34"/>
<path d="M15.5626 16.2188C14.7095 15.5344 13.5376 13.1812 15.5626 11.2125C18.6657 8.18437 16.1063 3.16875 13.9595 0.890625C17.597 1.45312 20.672 3.70312 22.322 6.7875C22.4251 12.8062 19.9407 15.6656 15.5626 16.2188Z" fill="#B7C536"/>
<path d="M15.5627 16.5938C15.4783 16.5938 15.3939 16.5657 15.3283 16.5094C14.7658 16.0594 14.1283 15.0282 14.0721 13.8469C14.0252 12.7782 14.4471 11.775 15.3002 10.9407C18.3002 8.01566 15.5064 3.07503 13.6877 1.14378C13.5752 1.03128 13.5564 0.853159 13.6314 0.712534C13.7064 0.571909 13.8658 0.496909 14.0252 0.515659C17.7002 1.08753 20.9252 3.36566 22.6596 6.60941C22.6877 6.66566 22.7064 6.72191 22.7064 6.77816C22.8096 12.6844 20.4283 15.9844 15.6189 16.5844C15.5908 16.5938 15.5721 16.5938 15.5627 16.5938ZM14.9439 1.47191C15.7877 2.55941 16.6502 4.05941 17.0908 5.67191C17.7283 8.03441 17.2971 10.0407 15.8252 11.475C15.1221 12.1594 14.7846 12.9469 14.8221 13.8094C14.8689 14.7188 15.3283 15.4688 15.6846 15.8157C19.9689 15.2157 22.0221 12.2907 21.9471 6.88128C20.4846 4.20003 17.9158 2.23128 14.9439 1.47191Z" fill="#829B34"/>
<path d="M18.694 12.9281C18.6002 12.9281 18.5065 12.8906 18.4409 12.8249C18.2909 12.6843 18.2815 12.4499 18.4221 12.2906C19.594 11.0343 20.119 9.59994 20.3159 8.29681C19.7909 9.22494 18.919 10.2468 17.4752 11.2499C17.3065 11.3718 17.0721 11.3249 16.9502 11.1562C16.8284 10.9874 16.8752 10.7531 17.044 10.6312C19.9784 8.60619 20.3721 6.55306 20.2971 5.36244C20.2034 4.73431 20.0815 4.34056 20.0721 4.33119C20.0159 4.14369 20.1096 3.93744 20.2971 3.86244C20.4846 3.78744 20.6909 3.88119 20.7752 4.05931C20.7846 4.08744 20.944 4.45306 21.019 5.06244C21.3096 6.69369 21.5065 10.0874 18.9659 12.7968C18.8909 12.8812 18.7971 12.9281 18.694 12.9281Z" fill="#829B34"/>
<path d="M15.5627 11.2125C13.5377 13.1812 14.7096 15.5344 15.5627 16.2188C15.0658 17.1187 14.1939 17.7656 12.9471 18.1688C12.4502 17.4844 12.1502 16.6406 12.1502 15.6188C12.1502 11.3906 13.2002 9.57187 12.1502 9.65625C8.64395 9.95625 8.4002 8.87813 7.35957 6.2625C6.84395 4.96875 6.09395 3.73125 4.99707 3.20625C6.95645 1.66875 9.44082 0.75 12.1502 0.75C12.7689 0.75 13.3689 0.796875 13.9596 0.890625C16.1064 3.16875 18.6658 8.18437 15.5627 11.2125Z" fill="#B7C536"/>
<path d="M12.9467 18.5438C12.8249 18.5438 12.7124 18.4875 12.6467 18.3844C12.0749 17.5969 11.7842 16.6594 11.7842 15.6188C11.7842 13.7625 11.9811 12.3938 12.1217 11.3906C12.2061 10.8094 12.2905 10.2188 12.2342 10.0312C12.2249 10.0312 12.2061 10.0312 12.1874 10.0312C11.7936 10.0688 11.4467 10.0781 11.128 10.0781C8.46549 10.0781 8.00611 8.89687 7.16236 6.76875C7.11549 6.64687 7.06861 6.525 7.01236 6.40313C6.42174 4.9125 5.69049 3.95625 4.83736 3.54375C4.72486 3.4875 4.64049 3.375 4.62174 3.24375C4.60299 3.1125 4.65924 2.99062 4.76236 2.90625C6.88111 1.24687 9.43111 0.375 12.1499 0.375C12.778 0.375 13.3967 0.421875 14.0155 0.515625C14.0999 0.525 14.1749 0.571875 14.2311 0.628125C15.2436 1.70625 16.528 3.59062 17.0905 5.67188C17.728 8.03438 17.2967 10.0406 15.8249 11.475C15.1217 12.1594 14.7842 12.9469 14.8217 13.8094C14.8686 14.8219 15.4311 15.6281 15.7967 15.9188C15.9374 16.0312 15.9749 16.2375 15.8905 16.3969C15.3467 17.3812 14.3905 18.0938 13.0592 18.525C13.0217 18.5344 12.9842 18.5438 12.9467 18.5438ZM12.2155 9.28125C12.5155 9.28125 12.6936 9.4125 12.7874 9.51562C13.0874 9.8625 13.0124 10.4062 12.853 11.4937C12.7124 12.4688 12.5249 13.8188 12.5249 15.6188C12.5249 16.3969 12.7124 17.1094 13.0967 17.7188C13.9874 17.3906 14.653 16.9031 15.0842 16.2844C14.5967 15.7594 14.1186 14.8594 14.0717 13.8469C14.0249 12.7781 14.4467 11.775 15.2999 10.9406C18.253 8.0625 15.5905 3.23438 13.7717 1.2375C13.2374 1.1625 12.6936 1.125 12.1499 1.125C9.78736 1.125 7.55611 1.82812 5.66236 3.16875C6.46861 3.75 7.15299 4.73438 7.70611 6.12188C7.75299 6.25313 7.80924 6.375 7.85611 6.49688C8.67174 8.55938 8.98111 9.3375 11.128 9.3375C11.428 9.3375 11.7467 9.31875 12.1217 9.29062C12.1499 9.28125 12.1874 9.28125 12.2155 9.28125Z" fill="#829B34"/>
<path d="M6.71243 5.3156C6.65618 5.3156 6.6093 5.30623 6.55305 5.2781C6.36555 5.19373 6.28118 4.96873 6.37493 4.78123C6.8343 3.79685 7.57493 3.0656 8.56868 2.59685C8.75618 2.51248 8.98118 2.58748 9.06555 2.78435C9.14993 2.97185 9.07493 3.19685 8.87805 3.28123C8.0343 3.67498 7.4343 4.2656 7.04993 5.09998C6.99368 5.23123 6.85305 5.3156 6.71243 5.3156Z" fill="#829B34"/>
<path d="M8.10936 8.42807C8.05311 8.42807 7.98748 8.4187 7.93123 8.3812C7.74373 8.28745 7.67811 8.06245 7.77186 7.87495C9.53436 4.5187 12.9375 3.60932 13.0781 3.57182C13.275 3.51557 13.4812 3.63745 13.5375 3.8437C13.5844 4.04057 13.4719 4.24682 13.2656 4.30307C13.2281 4.31245 10.0406 5.17495 8.43748 8.22182C8.37186 8.35307 8.24061 8.42807 8.10936 8.42807Z" fill="#829B34"/>
<path d="M8.6908 9.29066C8.48455 9.29066 8.32518 9.13128 8.3158 8.92503C8.30643 8.71878 8.47518 8.55003 8.68143 8.54066C11.6721 8.45628 12.9752 7.73441 12.9939 7.72503C13.1721 7.62191 13.4064 7.68753 13.5096 7.86566C13.6127 8.04378 13.5564 8.26878 13.3783 8.38128C13.3221 8.41878 11.9252 9.21566 8.70955 9.30003C8.6908 9.29066 8.6908 9.29066 8.6908 9.29066Z" fill="#829B34"/>
<path d="M20.0531 20.1468C17.9906 22.0687 15.2063 23.2406 12.1406 23.2406C5.8125 23.25 0.675 18.2156 0.675 12C0.675 11.4093 0.721875 10.8375 0.80625 10.275C1.02188 8.94372 2.15625 7.6781 2.1 6.56247C2.04375 5.43748 1.36875 5.19373 0.375 4.53748C2.37188 2.8781 3.8625 2.67185 4.99688 3.20623C6.09375 3.73123 6.84375 4.96873 7.35938 6.26248C8.4 8.88748 8.64375 9.95622 12.15 9.65622C13.2 9.56247 12.15 11.3812 12.15 15.6187C12.15 16.6406 12.45 17.4844 12.9469 18.1687C14.4938 20.3156 17.9719 20.8406 20.0531 20.1468Z" fill="#B7C536"/>
<path d="M12.15 23.625C5.61567 23.625 0.300042 18.4125 0.300042 12C0.300042 11.4 0.346917 10.8 0.440667 10.2187C0.440667 10.2093 0.440667 10.2 0.440667 10.1906C0.553167 9.53435 0.853167 8.9156 1.14379 8.3156C1.45317 7.6781 1.75317 7.08747 1.72504 6.58122C1.68754 5.82185 1.32192 5.58748 0.590667 5.11873C0.459417 5.03435 0.318792 4.9406 0.168792 4.84685C0.065667 4.78123 0.009417 4.6781 4.20042e-05 4.55623C-0.00933299 4.43435 0.046917 4.32185 0.131292 4.24685C1.47192 3.13123 2.70942 2.56873 3.81567 2.56873C4.28442 2.56873 4.73442 2.67185 5.15629 2.86873C6.17817 3.35623 7.04067 4.4531 7.70629 6.12185C7.75317 6.2531 7.80942 6.37497 7.85629 6.48747C8.67192 8.54997 8.98129 9.3281 11.1282 9.3281C11.4282 9.3281 11.7469 9.30935 12.1219 9.28122C12.4875 9.2531 12.6938 9.39372 12.7969 9.5156C13.0969 9.86247 13.0219 10.4062 12.8625 11.4937C12.7219 12.4687 12.5344 13.8187 12.5344 15.6187C12.5344 16.5 12.7782 17.2875 13.2563 17.9437C14.3813 19.5 16.5094 20.0625 18.1313 20.0625C18.7969 20.0625 19.425 19.9687 19.95 19.8C20.1188 19.7437 20.2969 19.8093 20.3907 19.9687C20.4844 20.1187 20.4563 20.3156 20.325 20.4375C18.1032 22.4906 15.1969 23.625 12.15 23.625ZM1.17192 10.35C1.08754 10.8937 1.05004 11.4468 1.05004 12C1.05004 18 6.02817 22.875 12.15 22.875C14.5219 22.875 16.8 22.1437 18.6844 20.7937C18.4969 20.8031 18.3094 20.8125 18.1219 20.8125C16.3219 20.8125 13.9313 20.175 12.6375 18.3844C12.0657 17.5969 11.775 16.6594 11.775 15.6187C11.775 13.7625 11.9719 12.3937 12.1125 11.3906C12.1875 10.8375 12.2813 10.2187 12.225 10.0312C12.2157 10.0312 12.1969 10.0312 12.1782 10.0312C11.7844 10.0687 11.4375 10.0781 11.1188 10.0781C8.45629 10.0781 7.99692 8.89685 7.15317 6.76872C7.10629 6.64685 7.05942 6.52498 7.00317 6.4031C6.41254 4.91248 5.68129 3.95623 4.82817 3.54373C4.50942 3.39373 4.17192 3.31873 3.81567 3.31873C3.00004 3.31873 2.06254 3.71248 1.01254 4.49998C1.80004 4.99685 2.41879 5.39998 2.47504 6.54373C2.51254 7.24685 2.17504 7.93123 1.81879 8.6531C1.54692 9.20623 1.26567 9.7781 1.18129 10.3312C1.18129 10.3406 1.18129 10.3406 1.17192 10.35Z" fill="#829B34"/>
<path d="M6.80635 22.3312C6.67511 22.3312 6.54385 22.2562 6.47823 22.1343C3.6001 16.725 2.61573 12.1218 3.56261 8.45622C3.61886 8.25935 3.81573 8.13747 4.02198 8.18435C4.21886 8.2406 4.34073 8.43747 4.29385 8.64372C3.40323 12.1218 4.35948 16.5375 7.14385 21.7781C7.23761 21.9656 7.17198 22.1906 6.98448 22.2843C6.91886 22.3125 6.86261 22.3312 6.80635 22.3312Z" fill="#829B34"/>
<path d="M3.76866 13.9876C3.62804 13.9876 3.48741 13.9032 3.43116 13.7719C2.91554 12.6563 2.37179 11.8688 1.78116 11.3626C1.62179 11.2313 1.60304 10.9876 1.74366 10.8376C1.87491 10.6782 2.11866 10.6594 2.26866 10.8001C2.94366 11.3813 3.54366 12.2532 4.10616 13.4626C4.19054 13.6501 4.11554 13.8751 3.92804 13.9594C3.87179 13.9782 3.82491 13.9876 3.76866 13.9876Z" fill="#829B34"/>
<path d="M10.6409 23.5313C10.5002 23.5313 10.369 23.4563 10.3034 23.325C10.2284 23.175 8.4471 19.6031 7.7721 16.8188C7.53773 15.8438 7.19085 15.3094 6.85335 14.8031C6.24398 13.8844 5.68148 13.0125 5.84085 10.0969C5.85023 9.89063 6.02835 9.73125 6.2346 9.74063C6.44085 9.75 6.60023 9.92813 6.59085 10.1344C6.44085 12.8063 6.92835 13.5375 7.48148 14.3906C7.83773 14.925 8.23148 15.5344 8.50335 16.6406C9.1596 19.3406 10.9596 22.95 10.9784 22.9875C11.0721 23.175 10.9971 23.4 10.8096 23.4938C10.7534 23.5125 10.6971 23.5313 10.6409 23.5313Z" fill="#829B34"/>
<path d="M7.34091 15.2438C7.26591 15.2438 7.20028 15.225 7.13466 15.1782C6.96591 15.0657 6.91903 14.8313 7.03153 14.6625C7.69716 13.6594 8.51279 12.7782 9.45029 12.0469C9.60966 11.9157 9.85341 11.9438 9.97529 12.1125C10.1065 12.2719 10.0784 12.5157 9.90966 12.6375C9.03778 13.3219 8.27841 14.1469 7.65966 15.075C7.58466 15.1875 7.46278 15.2438 7.34091 15.2438Z" fill="#829B34"/>
<path d="M8.12809 17.1C7.94996 17.1 7.78121 16.9688 7.75309 16.7813C7.72496 16.575 7.86559 16.3875 8.07184 16.3594C9.06559 16.2094 9.74996 15.7875 10.1531 15.075C10.2562 14.8969 10.4812 14.8313 10.6593 14.9344C10.8375 15.0375 10.9031 15.2625 10.8 15.4406C10.2843 16.3594 9.40309 16.9219 8.17496 17.1C8.16559 17.1 8.14684 17.1 8.12809 17.1Z" fill="#829B34"/>
</g>
<defs>
<clipPath id="clip0_270_29477">
<rect width="24" height="24" fill="white"/>
</clipPath>
</defs>
</svg>
