<svg width="24" height="24" viewBox="0 0 24 24" fill="none" xmlns="http://www.w3.org/2000/svg">
<g clip-path="url(#clip0_270_29508)">
<path d="M20.8594 12.975C20.5875 12.975 20.3344 12.8532 20.1563 12.6282C19.9688 12.4032 19.875 12.0844 19.875 11.7282C19.5094 11.7094 19.3313 11.5313 19.2469 11.3907C19.1344 11.1844 19.1438 10.95 19.2094 10.7157C18.9657 10.6875 18.6282 10.6032 18.4782 10.2938C18.3188 9.97505 18.4407 9.62817 18.6188 9.32817C18.2532 9.0938 17.8313 8.97192 17.3438 8.97192C16.7063 8.97192 15.9375 9.17817 15.0657 9.5813C14.8969 9.6563 14.6907 9.60005 14.5875 9.44067C14.4844 9.2813 14.5219 9.07505 14.6625 8.95317C15.825 7.98755 17.1375 7.50005 18.5625 7.50005C19.1625 7.50005 19.7907 7.58442 20.4375 7.75317C20.6344 7.54692 20.9063 7.42505 21.225 7.42505C21.6938 7.42505 22.1625 7.67817 22.4063 8.0438C22.4625 8.12817 22.5 8.21255 22.5282 8.29692C22.5469 8.29692 22.5656 8.29692 22.5844 8.29692C22.9875 8.29692 23.3625 8.55942 23.5219 8.95317C23.6063 9.15942 23.6157 9.36567 23.5594 9.56255C23.8313 9.75005 24 10.0969 24 10.5C24 10.9688 23.775 11.3438 23.4375 11.5125C23.475 11.8782 23.3907 12.1969 23.2032 12.4407C23.025 12.675 22.7625 12.8063 22.4813 12.8063C22.2375 12.8063 21.9657 12.7032 21.7313 12.4594C21.4782 12.8344 21.1313 12.975 20.8594 12.975ZM20.2875 10.9407C20.3907 10.9407 20.4844 10.9782 20.55 11.0532C20.6344 11.1375 20.6719 11.2688 20.6532 11.3907C20.55 11.8875 20.6907 12.1032 20.7282 12.1594C20.7657 12.2063 20.8032 12.225 20.85 12.225C20.9719 12.225 21.2063 12.0375 21.3094 11.5219C21.3469 11.3532 21.4875 11.2313 21.6657 11.2219C21.8438 11.2219 21.9938 11.3344 22.0407 11.4938C22.1438 11.8782 22.3407 12.0563 22.4813 12.0563C22.5282 12.0563 22.575 12.0282 22.6125 11.9813C22.7063 11.85 22.725 11.6063 22.65 11.325C22.6219 11.2125 22.6407 11.0907 22.7157 10.9969C22.7907 10.9032 22.8938 10.8469 23.0157 10.8469C23.2594 10.8469 23.2594 10.5188 23.2594 10.4813C23.2594 10.4438 23.25 10.1157 23.0157 10.1157C22.8657 10.1157 22.725 10.0219 22.6688 9.8813C22.6125 9.74067 22.65 9.57192 22.7625 9.4688C22.8563 9.38442 22.8844 9.29067 22.8469 9.19692C22.8094 9.0938 22.7063 9.0188 22.6032 9.0188C22.5469 9.0188 22.4813 9.04692 22.425 9.10317C22.2938 9.22505 22.0969 9.2438 21.9563 9.14067C21.8063 9.03755 21.7594 8.85005 21.825 8.6813C21.8625 8.58755 21.8532 8.51255 21.7969 8.42817C21.6938 8.2688 21.45 8.14692 21.2438 8.14692C21.0282 8.14692 20.9813 8.2688 20.9625 8.31567C20.8875 8.4938 20.6907 8.57817 20.5125 8.52192C19.6125 8.25005 18.7594 8.16567 17.9813 8.25942C18.5157 8.35317 18.9844 8.58755 19.3875 8.93442C19.5375 9.06567 19.5563 9.2813 19.4438 9.44067C19.2375 9.71255 19.1907 9.86255 19.1813 9.9188C19.2188 9.93755 19.3125 9.9563 19.4813 9.9563C19.5657 9.9563 19.6688 9.94692 19.7813 9.93755C19.9219 9.9188 20.0625 9.98442 20.1375 10.1063C20.2125 10.2282 20.2219 10.3782 20.1469 10.5C20.0063 10.7438 19.9594 10.8844 19.9407 10.9594C19.95 10.9594 19.9594 10.9594 19.9782 10.9594C20.0532 10.9594 20.1375 10.95 20.25 10.9313C20.2407 10.9407 20.2594 10.9407 20.2875 10.9407Z" fill="#829B34"/>
<path d="M14.9062 9.60933C14.8218 9.60933 14.7281 9.5812 14.6531 9.51558C14.5031 9.37495 14.4843 9.14058 14.6249 8.99058C14.6718 8.93433 14.7281 8.87808 14.7749 8.82183C15.8906 7.54683 16.4249 6.51558 16.4437 5.57808C16.2749 5.27808 16.2656 4.91245 16.4437 4.56558C16.6874 4.08745 17.2218 3.71245 17.7374 3.6562C17.7374 3.4687 17.7749 3.29058 17.8593 3.11245C18.0749 2.65308 18.5249 2.36245 19.0124 2.36245C19.0218 2.36245 19.0218 2.36245 19.0312 2.36245C19.0406 2.21245 19.0687 2.06245 19.1343 1.92183C19.3312 1.4812 19.7906 1.19058 20.2593 1.19058C20.5124 1.19058 20.7562 1.27495 20.9624 1.42495C21.2906 1.2187 21.6187 1.1062 21.9187 1.1062C22.3593 1.1062 22.7249 1.34058 22.8562 1.72495C22.9968 2.13745 22.8656 2.6062 22.4906 3.03745C22.9781 3.44058 23.0812 3.9187 22.9968 4.24683C22.8937 4.6687 22.5281 4.94995 22.0499 4.97808C22.1531 5.27808 22.1624 5.5687 22.0593 5.8312C21.9093 6.2062 21.5437 6.44058 21.1124 6.44058C21.0374 6.44058 20.9531 6.4312 20.8593 6.41245C20.8593 6.59058 20.8124 6.7687 20.7468 6.94683C20.4937 7.5562 19.8937 7.98745 19.2749 7.98745C18.9656 7.98745 18.6656 7.88433 18.4031 7.68745C18.3562 7.68745 18.3093 7.68745 18.2624 7.68745C17.2968 7.68745 16.3312 8.22183 15.3281 9.32808C15.2812 9.38433 15.2343 9.44058 15.1781 9.49683C15.1124 9.57183 15.0093 9.60933 14.9062 9.60933ZM17.8687 4.39683C17.5968 4.39683 17.2499 4.6312 17.1093 4.90308C17.0062 5.09995 17.0906 5.20308 17.1187 5.24058C17.1656 5.3062 17.1937 5.3812 17.1937 5.4562C17.2031 6.03745 17.0624 6.63745 16.7531 7.27495C17.3531 7.00308 17.9624 6.89058 18.5812 6.94683C18.6562 6.9562 18.7312 6.98433 18.7968 7.04058C18.9468 7.17183 19.1062 7.23745 19.2749 7.23745C19.5937 7.23745 19.9218 6.9937 20.0531 6.66558C20.1187 6.49683 20.1937 6.17808 19.8937 5.88745C19.8749 5.8687 19.8562 5.84995 19.8374 5.84058C19.6874 5.69995 19.6781 5.46558 19.8187 5.31558C19.9593 5.16558 20.1937 5.1562 20.3437 5.28745C20.3624 5.3062 20.3812 5.32495 20.4093 5.3437C20.6531 5.55933 20.9062 5.69058 21.1124 5.69058C21.1968 5.69058 21.3187 5.66245 21.3656 5.54995C21.4406 5.37183 21.3374 5.03433 20.9624 4.67808C20.8312 4.54683 20.8124 4.34058 20.9156 4.19058C21.0187 4.04058 21.2249 3.98433 21.3937 4.0687C21.5999 4.17183 21.7968 4.22808 21.9562 4.22808C22.1249 4.22808 22.2468 4.16245 22.2749 4.05933C22.3124 3.89995 22.1531 3.62808 21.7312 3.41245C21.6187 3.3562 21.5437 3.2437 21.5249 3.11245C21.5156 2.9812 21.5624 2.85933 21.6656 2.78433C22.0874 2.44683 22.2187 2.1187 22.1531 1.94995C22.1156 1.8562 22.0124 1.83745 21.9281 1.83745C21.8062 1.83745 21.5437 1.88433 21.1781 2.17495C21.0187 2.3062 20.7937 2.27808 20.6624 2.12808C20.5406 1.98745 20.4093 1.92183 20.2687 1.92183C20.0906 1.92183 19.9031 2.0437 19.8281 2.21245C19.7437 2.39058 19.7906 2.5687 19.9406 2.74683C20.0718 2.89683 20.0624 3.1312 19.9124 3.26245C19.7624 3.40308 19.5374 3.3937 19.3968 3.25308C19.2843 3.14058 19.1531 3.08433 19.0218 3.08433C18.8343 3.08433 18.6374 3.21558 18.5437 3.40308C18.4874 3.52495 18.4499 3.70308 18.5999 3.89995C18.6374 3.93745 18.6749 3.98433 18.7124 4.02183C18.8343 4.1812 18.8062 4.39683 18.6656 4.52808C18.5156 4.65933 18.2999 4.64995 18.1593 4.5187C18.1218 4.49058 18.0937 4.45308 18.0656 4.41558C17.9999 4.4062 17.9343 4.39683 17.8687 4.39683Z" fill="#829B34"/>
<path d="M14.906 9.60938C14.8498 9.60938 14.7935 9.6 14.7373 9.57187C14.5873 9.49687 14.5029 9.32812 14.5404 9.15937C14.8685 7.60312 14.8873 6.42188 14.5873 5.49375C14.4467 5.56875 14.2967 5.61563 14.1373 5.61563C13.8373 5.61563 13.5654 5.45625 13.4154 5.19375C13.3779 5.12813 13.3498 5.05312 13.331 4.97812C13.3217 4.97812 13.3029 4.97812 13.2935 4.97812C12.9185 4.97812 12.5623 4.7625 12.3842 4.44375C12.3185 4.33125 12.281 4.21875 12.2717 4.09688C11.7842 4.07812 11.4092 3.77813 11.3154 3.32812C11.2592 3.06562 11.3248 2.71875 11.5967 2.42812C11.3998 2.18438 11.306 1.84687 11.3623 1.49062C11.4467 0.95625 11.8685 0.4125 12.5154 0.4125C12.5342 0.4125 12.5623 0.4125 12.581 0.4125C12.7498 0.24375 13.0029 0.140625 13.3217 0.140625C13.6873 0.140625 14.1935 0.28125 14.4748 0.590625C14.5779 0.553125 14.681 0.534375 14.7935 0.534375C15.1873 0.534375 15.5717 0.76875 15.7498 1.125C15.8154 1.25625 15.8529 1.39687 15.8623 1.5375C16.3217 1.65937 16.631 2.11875 16.7248 2.55937C16.8092 2.95312 16.706 3.30938 16.481 3.55313C17.3154 5.5125 16.8842 7.5 15.1873 9.46875C15.1123 9.57187 15.0092 9.60938 14.906 9.60938ZM14.7185 4.47188H14.7279C14.8685 4.48125 14.9904 4.55625 15.0467 4.67813C15.4592 5.50313 15.6185 6.49687 15.506 7.74375C16.2935 6.34687 16.3404 4.9875 15.6654 3.60938C15.6185 3.51562 15.6185 3.4125 15.6467 3.31875C15.6842 3.225 15.7592 3.14062 15.8529 3.10312C16.0123 3.0375 16.0123 2.85938 15.9842 2.72813C15.9373 2.48438 15.7498 2.26875 15.5998 2.26875C15.5717 2.26875 15.5435 2.27813 15.506 2.2875C15.356 2.35312 15.1685 2.30625 15.0654 2.175C14.9623 2.04375 14.9529 1.85625 15.0467 1.725C15.1123 1.64062 15.1217 1.55625 15.0748 1.48125C15.0185 1.37813 14.8967 1.29375 14.7842 1.29375C14.7373 1.29375 14.6623 1.30313 14.5967 1.40625C14.4935 1.55625 14.2967 1.60312 14.1373 1.52812C13.9779 1.45312 13.8935 1.28437 13.9217 1.11562C13.8748 1.03125 13.6029 0.890625 13.3123 0.890625C13.1998 0.890625 13.1435 0.909375 13.1248 0.928125C13.0967 1.02187 13.031 1.10625 12.9467 1.15313C12.8529 1.2 12.7498 1.21875 12.6467 1.18125C12.5998 1.1625 12.5529 1.15313 12.506 1.15313C12.281 1.15313 12.1217 1.37812 12.0935 1.59375C12.0748 1.73438 12.0748 1.97812 12.356 2.0625C12.506 2.10938 12.6092 2.25 12.6185 2.4C12.6279 2.55938 12.5342 2.7 12.3842 2.76562C12.0935 2.8875 12.0185 3.05625 12.0373 3.15938C12.056 3.2625 12.1592 3.32812 12.2998 3.32812C12.3842 3.32812 12.4873 3.30937 12.5904 3.2625C12.7404 3.19687 12.9185 3.24375 13.0217 3.36563C13.1248 3.4875 13.1342 3.66562 13.0498 3.80625C12.9935 3.9 12.9842 3.98438 13.0217 4.05937C13.0685 4.14375 13.1717 4.20938 13.2748 4.20938C13.3592 4.20938 13.4248 4.1625 13.481 4.07812C13.5935 3.90937 13.8185 3.85313 13.9967 3.95625C14.1748 4.06875 14.231 4.29375 14.1185 4.47188C14.0248 4.63125 14.0248 4.75313 14.0529 4.8C14.0717 4.82812 14.0904 4.8375 14.1279 4.8375C14.1935 4.8375 14.2967 4.78125 14.3904 4.62187C14.4654 4.5375 14.5873 4.47188 14.7185 4.47188Z" fill="#829B34"/>
<path d="M14.9062 9.23435C16.5844 8.45623 18.0469 8.29685 19.125 9.23435C18.4594 10.125 18.7875 10.4344 19.8 10.3312C19.3219 11.1469 19.5 11.475 20.2969 11.3156C19.9875 12.825 21.3844 13.1062 21.6937 11.5969C22.0594 12.9281 23.3813 12.5625 23.0156 11.2312C23.8406 11.2312 23.8406 9.75935 23.0156 9.75935C23.6344 9.1781 22.7812 8.26873 22.1625 8.84998C22.5281 8.00623 20.9719 7.33123 20.6063 8.17498C18.3469 7.50935 16.4719 7.93123 14.9062 9.23435Z" fill="#8FAE3C"/>
<path d="M14.9062 9.23439C16.0125 7.96876 17.2031 7.20001 18.5531 7.32189C19.6781 8.31564 21.225 6.55314 20.1094 5.55939C21.3563 6.75001 22.4625 5.57814 21.225 4.39689C22.6031 5.10001 23.2781 3.77814 21.9 3.07501C23.2406 1.99689 22.2844 0.806261 20.9437 1.88439C20.1562 0.975011 18.8625 2.08126 19.65 3.00001C18.7875 2.15626 17.5406 3.42189 18.4125 4.26564C17.8219 3.47814 16.2375 4.66876 16.8281 5.45626C16.8469 6.71251 16.05 7.96876 14.9062 9.23439Z" fill="#8FAE3C"/>
<path d="M14.906 9.23437C15.2528 7.59374 15.3372 6.06562 14.7185 4.83749C14.231 5.64374 13.331 5.09999 13.8091 4.29374C13.3497 5.01562 12.2903 4.34062 12.7497 3.61874C11.6997 4.04999 11.2122 2.85937 12.2528 2.42812C11.2591 2.10937 11.7841 0.506243 12.7685 0.824993C12.9091 0.224993 14.4372 0.590618 14.2966 1.19062C14.7841 0.506243 15.8435 1.25624 15.356 1.94062C16.1622 1.59374 16.8091 3.09374 16.0028 3.44062C16.9872 5.43749 16.5185 7.36874 14.906 9.23437Z" fill="#8FAE3C"/>
<path d="M18.0841 6.32809C17.981 6.32809 17.8685 6.28122 17.7935 6.19684C17.6622 6.03747 17.681 5.80309 17.8404 5.67184C19.0029 4.69684 19.9029 3.65622 20.5591 2.84997C20.6904 2.69059 20.9247 2.66247 21.0841 2.79372C21.2435 2.92497 21.2716 3.15934 21.1404 3.31872C20.4654 4.15309 19.5279 5.24059 18.3185 6.24372C18.2529 6.29997 18.1685 6.32809 18.0841 6.32809Z" fill="#829B34"/>
<path d="M15.1122 4.28433C14.981 4.28433 14.8591 4.2187 14.7935 4.1062C14.2591 3.22495 13.5279 2.5687 12.6185 2.13745C12.431 2.05308 12.3466 1.82808 12.4404 1.64058C12.5247 1.45308 12.7497 1.3687 12.9372 1.46245C13.9779 1.94995 14.8216 2.70933 15.431 3.72183C15.5341 3.89995 15.4779 4.12495 15.3091 4.23745C15.2435 4.26558 15.1779 4.28433 15.1122 4.28433Z" fill="#829B34"/>
<path d="M22.0967 11.175C21.9655 11.175 21.8342 11.1 21.7686 10.9781C21.3561 10.2093 20.7092 9.6562 19.7999 9.26245C19.6124 9.17808 19.5186 8.96245 19.603 8.77495C19.6874 8.58745 19.903 8.4937 20.0905 8.57808C21.1499 9.02808 21.9374 9.71245 22.4249 10.6218C22.5186 10.8 22.453 11.0343 22.2749 11.1281C22.2092 11.1562 22.153 11.175 22.0967 11.175Z" fill="#829B34"/>
<path d="M17.1843 13.0125C17.1468 13.3969 16.8468 14.1 14.7374 15.7688C13.7343 16.5656 12.4031 17.5031 10.9031 18.4875C9.80618 19.2 8.61555 19.9406 7.46243 20.6156C6.16868 21.375 1.86555 23.85 0.628053 23.8407C0.487428 23.8407 0.374928 23.8125 0.271803 23.7563C0.178053 23.7 0.0655528 23.5969 0.00930282 23.4C-0.243822 22.3969 1.9593 18.6094 3.29055 16.4344C3.99368 15.3 4.75305 14.1188 5.49368 13.0313C6.50618 11.5406 7.4718 10.2375 8.28743 9.24377C9.36555 7.93127 10.1531 7.21877 10.6968 7.05002C10.9124 6.9844 11.1468 6.9469 11.3906 6.9469C12.5156 6.9469 13.9218 7.70627 15.1687 8.9719C16.2374 10.0594 17.3249 11.6813 17.1843 13.0125Z" fill="#F88916"/>
<path d="M6.43109 21.1594C6.29047 21.1594 6.16859 21.0844 6.09359 20.9532C5.63422 20.0625 4.98734 19.2657 4.20922 18.6375C4.04984 18.5063 4.02172 18.2719 4.15297 18.1125C4.28422 17.9532 4.51859 17.925 4.67797 18.0563C5.54047 18.75 6.26234 19.6313 6.76859 20.6157C6.86234 20.8032 6.78734 21.0282 6.60922 21.1219C6.54359 21.15 6.48734 21.1594 6.43109 21.1594Z" fill="#E27513"/>
<path d="M10.697 18.5531C10.5658 18.5531 10.4345 18.4781 10.3595 18.3468C10.1345 17.9156 9.8814 17.4843 9.60015 17.0812C9.47827 16.9124 9.52515 16.6781 9.6939 16.5562C9.86265 16.4343 10.097 16.4812 10.2189 16.65C10.5189 17.0812 10.7908 17.5312 11.0345 17.9999C11.1283 18.1874 11.0533 18.4124 10.8751 18.5062C10.8189 18.5343 10.7533 18.5531 10.697 18.5531Z" fill="#E27513"/>
<path d="M8.57811 15.6562C8.48436 15.6562 8.39061 15.6187 8.31561 15.5437C7.52811 14.7562 6.61873 14.1 5.63436 13.5843C5.44686 13.4906 5.38123 13.2656 5.47498 13.0781C5.56873 12.8906 5.79373 12.825 5.98123 12.9187C7.03123 13.4718 7.99686 14.175 8.84061 15.0093C8.99061 15.1593 8.99061 15.3937 8.84061 15.5437C8.76561 15.6187 8.67186 15.6562 8.57811 15.6562Z" fill="#E27513"/>
<path d="M14.5031 15.8531C14.3719 15.8531 14.25 15.7875 14.175 15.6656C13.7063 14.85 13.1719 14.0718 12.5625 13.35C12.4313 13.1906 12.45 12.9562 12.6094 12.825C12.7688 12.6937 13.0031 12.7125 13.1344 12.8718C13.7719 13.6312 14.3344 14.4468 14.8219 15.3C14.925 15.4781 14.8594 15.7125 14.6813 15.8156C14.6344 15.8343 14.5688 15.8531 14.5031 15.8531Z" fill="#E27513"/>
<path d="M10.4997 11.175C10.4153 11.175 10.3403 11.1468 10.2653 11.0906C9.6747 10.6218 9.04658 10.1906 8.3997 9.81559C8.22158 9.71247 8.15595 9.47809 8.26845 9.29997C8.37158 9.12184 8.60595 9.05622 8.78408 9.16872C9.46845 9.56247 10.1247 10.0125 10.7435 10.5093C10.9028 10.6406 10.931 10.875 10.7997 11.0343C10.7153 11.1281 10.6028 11.175 10.4997 11.175Z" fill="#E27513"/>
</g>
<defs>
<clipPath id="clip0_270_29508">
<rect width="24" height="24" fill="white"/>
</clipPath>
</defs>
</svg>
