<svg width="24" height="24" viewBox="0 0 24 24" fill="none" xmlns="http://www.w3.org/2000/svg">
<g clip-path="url(#clip0_270_29505)">
<path d="M5.95312 18.1876L6.73125 17.4563C8.78438 13.2938 9.975 10.0782 10.425 7.77194C15.2437 2.95319 21.075 -0.871806 23.0812 1.12507C24.9844 3.02819 21.6281 8.37194 17.1562 13.0313C13.8656 13.8751 9.4875 15.7313 5.95312 18.1876Z" fill="#FFD11D"/>
<path d="M17.428 13.2938C17.3811 13.3407 17.3155 13.3781 17.2499 13.3969C14.3811 14.1281 9.96548 15.8625 6.16861 18.4969C6.10298 18.5438 6.02798 18.5625 5.95298 18.5625C5.84048 18.5625 5.73736 18.5156 5.66236 18.4219C5.54048 18.2719 5.55923 18.0469 5.69986 17.9157L6.43111 17.2313C8.38111 13.275 9.59986 10.0688 10.0592 7.6969C10.0686 7.6219 10.1061 7.55628 10.1624 7.50003C13.6967 3.97502 18.553 0.196899 21.5999 0.196899C22.3311 0.196899 22.9124 0.412524 23.353 0.85315C25.6124 3.1219 21.5717 8.9719 17.428 13.2938Z" fill="#FFD11D"/>
<path d="M9.95605 14.4094C9.8623 14.4094 9.76855 14.3719 9.69355 14.2969C9.54355 14.1469 9.54355 13.9125 9.69355 13.7625L20.4467 3.03755C20.5967 2.88755 20.8311 2.88755 20.9811 3.03755C21.1311 3.18755 21.1311 3.42192 20.9811 3.57192L10.2279 14.3063C10.1529 14.3813 10.0592 14.4094 9.95605 14.4094Z" fill="#FFB41F"/>
<path d="M12.6748 13.9407C12.5811 13.9407 12.4873 13.9032 12.4123 13.8282C12.2623 13.6782 12.2623 13.4438 12.4123 13.2938L21.1873 4.53755C21.3373 4.38755 21.5717 4.38755 21.7217 4.53755C21.8717 4.68755 21.8717 4.92192 21.7217 5.07192L12.9373 13.8375C12.8623 13.9032 12.7686 13.9407 12.6748 13.9407Z" fill="#FFB41F"/>
<path d="M10.4341 11.7094C10.3403 11.7094 10.2466 11.6719 10.1716 11.5969C10.0216 11.4469 10.0216 11.2126 10.1716 11.0626L18.9466 2.29695C19.0966 2.14695 19.331 2.14695 19.481 2.29695C19.631 2.44695 19.631 2.68132 19.481 2.83132L10.706 11.5969C10.6216 11.6719 10.5278 11.7094 10.4341 11.7094Z" fill="#FFB41F"/>
<path d="M19.1905 8.57811C19.078 8.57811 18.9655 8.52186 18.8905 8.42811C17.953 7.16248 16.8374 6.04686 15.5718 5.10936C15.403 4.98748 15.3749 4.75311 15.4968 4.58436C15.6187 4.41561 15.853 4.38748 16.0218 4.50936C17.3437 5.49373 18.5155 6.65623 19.4999 7.98748C19.6218 8.15623 19.5843 8.39061 19.4249 8.51248C19.3405 8.54998 19.2655 8.57811 19.1905 8.57811Z" fill="#FFB41F"/>
<path d="M20.5969 6.69377C20.4844 6.69377 20.3719 6.63752 20.2969 6.54377C19.5001 5.45627 18.5438 4.50002 17.4469 3.70315C17.2782 3.58127 17.2407 3.3469 17.3626 3.17815C17.4844 3.0094 17.7188 2.9719 17.8876 3.09377C19.0407 3.93752 20.0438 4.95002 20.8969 6.09377C21.0188 6.26252 20.9813 6.4969 20.8219 6.61877C20.7469 6.66565 20.6719 6.69377 20.5969 6.69377Z" fill="#FFB41F"/>
<path d="M17.8028 10.4812C17.6996 10.4812 17.5871 10.4344 17.5121 10.35C16.3309 8.95312 15.0278 7.65 13.6309 6.46875C13.4715 6.3375 13.4528 6.09375 13.584 5.94375C13.7153 5.78437 13.959 5.76562 14.109 5.89687C15.534 7.10625 16.8746 8.4375 18.084 9.8625C18.2153 10.0219 18.1965 10.2562 18.0371 10.3875C17.9809 10.4531 17.8871 10.4812 17.8028 10.4812Z" fill="#FFB41F"/>
<path d="M16.3406 12.3094C16.2281 12.3094 16.1156 12.2625 16.05 12.1687C14.8125 10.5937 13.3875 9.17811 11.8219 7.94061C11.6625 7.80936 11.6344 7.57499 11.7562 7.41561C11.8875 7.25624 12.1219 7.22811 12.2812 7.34999C13.8937 8.62499 15.3656 10.0875 16.6312 11.7C16.7625 11.8594 16.7344 12.0937 16.5656 12.225C16.5094 12.2812 16.425 12.3094 16.3406 12.3094Z" fill="#FFB41F"/>
<path d="M14.2871 13.5375C14.1746 13.5375 14.0621 13.4813 13.9871 13.3875C13.0496 12.1125 11.9059 10.9688 10.5934 10.0031C10.4246 9.88127 10.3871 9.64689 10.5184 9.47814C10.6403 9.30939 10.8746 9.27189 11.0434 9.40314C12.4215 10.425 13.6121 11.6156 14.5965 12.9469C14.7184 13.1156 14.6809 13.35 14.5121 13.4719C14.4465 13.5188 14.3621 13.5375 14.2871 13.5375Z" fill="#FFB41F"/>
<path d="M7.19053 17.3812C7.15303 17.4656 7.10615 17.55 7.06865 17.6344C7.0499 17.6719 7.02178 17.7094 6.99365 17.7469L6.21553 18.4781C6.20615 18.4875 6.1874 18.5062 6.17803 18.5156C5.29678 19.125 4.49053 19.7625 3.7874 20.4C3.73115 20.4469 3.68428 20.4937 3.62803 20.5406C3.58115 20.5875 3.5249 20.6344 3.47803 20.6812C3.43115 20.7281 3.3749 20.775 3.32803 20.8219C3.28115 20.8687 3.23428 20.9156 3.17803 20.9719C3.13115 21.0187 3.08428 21.0656 3.0374 21.1125C2.99053 21.1594 2.94365 21.2062 2.89678 21.2625C2.75615 21.4031 2.6249 21.5531 2.49365 21.7031C2.44678 21.75 2.40928 21.7969 2.3624 21.8531C2.3249 21.9 2.27803 21.9469 2.24053 22.0031C2.20303 22.05 2.15615 22.0969 2.11865 22.1531C2.08115 22.2 2.04365 22.2469 2.00615 22.3031C1.9874 22.3312 1.95928 22.3594 1.94053 22.3875C1.92178 22.4156 1.89365 22.4437 1.8749 22.4719C1.80928 22.5656 1.74365 22.65 1.67803 22.7437C1.66865 22.7531 1.65928 22.7625 1.6499 22.7719C1.55615 22.6969 1.4624 22.6125 1.36865 22.5187C1.95928 21.6937 2.6999 20.8875 3.53428 20.1281C4.2749 19.4531 5.09053 18.8156 5.9624 18.2156C6.35615 17.9156 6.76865 17.6437 7.19053 17.3812Z" fill="#8FAE3C"/>
<path d="M10.7905 7.84687C10.3498 10.1156 9.24358 13.1062 7.49983 16.7531C7.30296 16.875 7.10608 16.9969 6.90921 17.1187C6.51546 17.3625 6.13108 17.625 5.74671 17.8875C5.73733 17.8969 5.72796 17.8969 5.72796 17.9062C5.56858 18.0187 5.40921 18.1312 5.24983 18.2437C5.13733 18.3187 5.03421 18.4031 4.93108 18.4781C4.34046 18.9187 3.78733 19.3781 3.29046 19.8281C3.23421 19.875 3.17796 19.9312 3.12171 19.9781C3.06546 20.025 3.01858 20.0812 2.96233 20.1281C2.90608 20.175 2.85921 20.2312 2.80296 20.2781C2.66233 20.4187 2.52171 20.5594 2.38108 20.7C2.31546 20.7656 2.25921 20.8219 2.20296 20.8875C2.15608 20.9344 2.10921 20.9906 2.06233 21.0375C1.86546 21.2531 1.67796 21.4687 1.49983 21.6844C1.47171 21.7219 1.43421 21.7594 1.40608 21.7969C1.30296 21.9281 1.19983 22.0594 1.10608 22.1906C1.08733 22.2094 1.07796 22.2375 1.05921 22.2562C0.956084 22.4062 0.965459 22.6125 1.09671 22.7437C-1.78142 19.8656 1.66858 15.1687 4.43421 11.3906C6.13108 9.08437 7.88421 6.69375 7.22796 5.85937C7.03108 5.7 6.72171 5.625 6.29046 5.625C5.61546 5.625 4.73421 5.84062 3.96546 6.04687C3.78733 6.09375 3.60921 6.00937 3.52483 5.85C3.44983 5.69062 3.49671 5.49375 3.63733 5.38125C5.79358 3.80625 7.51858 3 8.77483 3C9.46858 3 10.0123 3.23437 10.3967 3.70312C11.0436 4.48125 11.1748 5.87812 10.7905 7.84687Z" fill="#8FAE3C"/>
<path d="M6.89971 17.1188C6.84346 17.2313 6.78721 17.3531 6.73096 17.4656L5.95283 18.1969C5.08096 18.7969 4.26533 19.4438 3.52471 20.1094C2.69033 20.8688 1.94971 21.6656 1.35908 22.5C1.26533 22.4063 1.18096 22.3125 1.10596 22.2188C1.19971 22.0875 1.30283 21.9563 1.40596 21.825C1.43408 21.7875 1.46221 21.75 1.49971 21.7125C1.67783 21.4969 1.86533 21.2813 2.06221 21.0656C2.10908 21.0188 2.15596 20.9625 2.20283 20.9157C2.25908 20.85 2.32471 20.7844 2.38096 20.7281C2.51221 20.5875 2.65283 20.4469 2.80283 20.3063C2.85908 20.2594 2.90596 20.2031 2.96221 20.1563C3.01846 20.1094 3.06533 20.0531 3.12158 20.0063C3.17783 19.9594 3.23408 19.9031 3.29033 19.8563C3.79658 19.4063 4.34033 18.9469 4.93096 18.5063C5.03408 18.4219 5.14658 18.3469 5.24971 18.2719C5.40908 18.1594 5.56846 18.0469 5.72783 17.9344C5.73721 17.925 5.73721 17.925 5.74658 17.9156C6.12158 17.6156 6.50596 17.3625 6.89971 17.1188Z" fill="#8FAE3C"/>
<path d="M6.9 17.1188C6.50625 17.3625 6.12188 17.625 5.7375 17.8875C5.72813 17.8969 5.71875 17.8969 5.71875 17.9063C5.55938 18.0188 5.4 18.1313 5.24063 18.2438C5.12813 18.3188 5.025 18.4032 4.92188 18.4782C4.33125 18.9188 3.77813 19.3782 3.28125 19.8282C3.225 19.875 3.16875 19.9313 3.1125 19.9782C3.05625 20.025 3.00938 20.0813 2.95313 20.1282C2.89688 20.175 2.85 20.2313 2.79375 20.2782C2.71875 20.3438 2.65313 20.4188 2.57813 20.4844C2.50313 20.5594 2.4375 20.625 2.37188 20.6907C2.30625 20.7563 2.25 20.8125 2.19375 20.8782C2.14688 20.925 2.1 20.9813 2.05313 21.0282C1.85625 21.2438 1.66875 21.4594 1.49063 21.675C1.4625 21.7125 1.425 21.75 1.39688 21.7875C1.29375 21.9188 1.19063 22.05 1.09688 22.1813C1.07813 22.2 1.06875 22.2282 1.05 22.2469C0.946876 22.3969 0.956251 22.6032 1.0875 22.7344C1.1625 22.8094 1.25625 22.8469 1.35 22.8469C1.35938 22.8469 1.36875 22.8469 1.37813 22.8469C1.47188 22.8375 1.56563 22.7907 1.63125 22.725C1.64063 22.7157 1.65 22.7063 1.65938 22.6969C1.725 22.6125 1.79063 22.5188 1.85625 22.425C1.875 22.3969 1.90313 22.3688 1.92188 22.3407C1.94063 22.3125 1.96875 22.2844 1.9875 22.2563C2.025 22.2094 2.0625 22.1625 2.1 22.1063C2.1375 22.0594 2.175 22.0125 2.22188 21.9563C2.25938 21.9094 2.30625 21.8625 2.34375 21.8063C2.38125 21.7594 2.42813 21.7125 2.475 21.6563C2.60625 21.5063 2.7375 21.3657 2.87813 21.2157C2.925 21.1688 2.97188 21.1219 3.01875 21.0657C3.06563 21.0188 3.1125 20.9719 3.15938 20.925C3.20625 20.8782 3.25313 20.8313 3.30938 20.775C3.35625 20.7282 3.4125 20.6813 3.45938 20.6344C3.50625 20.5875 3.5625 20.5407 3.60938 20.4938C3.66563 20.4469 3.7125 20.4 3.76875 20.3532C4.47188 19.7157 5.27813 19.0782 6.15938 18.4688C6.17813 18.4594 6.1875 18.45 6.19688 18.4313L6.975 17.7C7.00313 17.6719 7.03125 17.6344 7.05 17.5875C7.0875 17.5032 7.13438 17.4188 7.17188 17.3344C7.275 17.1188 7.37813 16.9125 7.47188 16.7063C7.29375 16.8657 7.09688 16.9875 6.9 17.1188Z" fill="#8FAE3C"/>
<path d="M6.9 17.1188C6.50625 17.3625 6.12188 17.625 5.7375 17.8875C5.72813 17.8969 5.71875 17.8969 5.71875 17.9063C5.55938 18.0188 5.4 18.1313 5.24063 18.2438C5.12813 18.3188 5.025 18.4032 4.92188 18.4782C4.33125 18.9188 3.77813 19.3782 3.28125 19.8282C3.225 19.875 3.16875 19.9313 3.1125 19.9782C3.05625 20.025 3.00938 20.0813 2.95313 20.1282C2.89688 20.175 2.85 20.2313 2.79375 20.2782C2.71875 20.3438 2.65313 20.4188 2.57813 20.4844C2.50313 20.5594 2.4375 20.625 2.37188 20.6907C2.30625 20.7563 2.25 20.8125 2.19375 20.8782C2.14688 20.925 2.1 20.9813 2.05313 21.0282C1.85625 21.2438 1.66875 21.4594 1.49063 21.675C1.4625 21.7125 1.425 21.75 1.39688 21.7875C1.29375 21.9188 1.19063 22.05 1.09688 22.1813C1.07813 22.2 1.06875 22.2282 1.05 22.2469C0.946876 22.3969 0.956251 22.6032 1.0875 22.7344C1.1625 22.8094 1.25625 22.8469 1.35 22.8469C1.35938 22.8469 1.36875 22.8469 1.37813 22.8469C1.47188 22.8375 1.56563 22.7907 1.63125 22.725C1.64063 22.7157 1.65 22.7063 1.65938 22.6969C1.725 22.6125 1.79063 22.5188 1.85625 22.425C1.875 22.3969 1.89375 22.3688 1.92188 22.3407C1.94063 22.3125 1.96875 22.2844 1.9875 22.2563C2.025 22.2094 2.0625 22.1625 2.1 22.1063C2.1375 22.0594 2.18438 22.0125 2.22188 21.9563C2.25938 21.9094 2.30625 21.8625 2.34375 21.8063C2.39063 21.7594 2.42813 21.7125 2.475 21.6563C2.60625 21.5063 2.7375 21.3657 2.87813 21.2157C2.925 21.1688 2.97188 21.1219 3.01875 21.0657C3.06563 21.0188 3.1125 20.9719 3.15938 20.925C3.20625 20.8782 3.25313 20.8313 3.30938 20.775C3.35625 20.7282 3.4125 20.6813 3.45938 20.6344C3.50625 20.5875 3.5625 20.5407 3.60938 20.4938C3.66563 20.4469 3.7125 20.4 3.76875 20.3532C4.47188 19.7157 5.27813 19.0782 6.15938 18.4688C6.17813 18.4594 6.1875 18.45 6.19688 18.4313L6.975 17.7C7.00313 17.6719 7.03125 17.6344 7.05 17.5875C7.0875 17.5032 7.13438 17.4188 7.17188 17.3344C7.275 17.1188 7.37813 16.9125 7.47188 16.7063C7.29375 16.8657 7.09688 16.9875 6.9 17.1188Z" fill="#8AA538"/>
<path d="M21.1686 18.3469C21.0561 18.4594 20.8967 18.4875 20.7561 18.4313C20.6154 18.375 20.5217 18.2344 20.5311 18.0844V17.9344C20.5498 16.9781 20.5498 16.4062 19.7342 15.5812C19.5748 15.4219 19.3779 15.3469 19.1061 15.3469C17.8123 15.3469 15.5154 17.0438 13.0967 18.8438C9.96543 21.1594 6.42168 23.7938 3.64668 23.7938C2.63418 23.7938 1.78105 23.4469 1.09668 22.7625C1.17168 22.8375 1.26543 22.875 1.35918 22.875C1.36855 22.875 1.37793 22.875 1.3873 22.875C1.48105 22.8656 1.5748 22.8188 1.64043 22.7531C1.6498 22.7438 1.65918 22.7344 1.66855 22.725C1.73418 22.6406 1.7998 22.5469 1.86543 22.4531C1.88418 22.425 1.90293 22.3969 1.93105 22.3688C1.9498 22.3406 1.97793 22.3125 1.99668 22.2844C2.03418 22.2375 2.07168 22.1906 2.10918 22.1344C2.14668 22.0875 2.19355 22.0406 2.23105 21.9844C2.26855 21.9375 2.31543 21.8906 2.35293 21.8344C2.3998 21.7875 2.4373 21.7406 2.48418 21.6844C2.61543 21.5344 2.74668 21.3938 2.8873 21.2438C2.93418 21.1969 2.98105 21.15 3.02793 21.0938C3.0748 21.0469 3.12168 21 3.16855 20.9531C3.21543 20.9063 3.2623 20.8594 3.31855 20.8031C3.36543 20.7563 3.42168 20.7094 3.46855 20.6625C3.51543 20.6156 3.57168 20.5688 3.61855 20.5219C3.6748 20.475 3.72168 20.4281 3.77793 20.3813C4.48105 19.7438 5.2873 19.1063 6.16855 18.4969C6.1873 18.4875 6.19668 18.4781 6.20605 18.4594L6.98418 17.7281C7.0123 17.7 7.04043 17.6625 7.05918 17.6156C7.09668 17.5312 7.14355 17.4469 7.18106 17.3625C7.28418 17.1469 7.38731 16.9406 7.48106 16.7344C10.9029 14.6719 14.5498 13.2938 17.0529 12.6563C18.3654 12.3188 19.5092 12.1406 20.3717 12.1406C21.1967 12.1406 21.7498 12.3 22.0686 12.6188C22.8092 13.3688 22.7811 16.7344 21.1686 18.3469Z" fill="#8AA538"/>
<path d="M3.95612 22.3875C3.778 22.3875 3.61862 22.2562 3.5905 22.0687C3.56237 21.8625 3.703 21.675 3.89987 21.6375C5.52175 21.3844 7.63112 20.2781 10.3311 18.2437C10.4999 18.1219 10.7342 18.15 10.8561 18.3187C10.978 18.4875 10.9499 18.7219 10.7811 18.8437C7.978 20.9531 5.7655 22.1062 4.01237 22.3781C3.99362 22.3875 3.97487 22.3875 3.95612 22.3875Z" fill="#8FAE3C"/>
</g>
<defs>
<clipPath id="clip0_270_29505">
<rect width="24" height="24" fill="white"/>
</clipPath>
</defs>
</svg>
