<svg width="24" height="24" viewBox="0 0 24 24" fill="none" xmlns="http://www.w3.org/2000/svg">
<g clip-path="url(#clip0_270_29519)">
<path d="M4.74363 19.4906C4.57488 19.9875 4.31238 20.7375 4.35925 21.2062C4.36863 21.2344 4.36863 21.2625 4.36863 21.2906C4.36863 21.4969 4.19988 21.6656 3.99363 21.6656C3.90925 21.6656 3.82488 21.6375 3.74988 21.5812C3.22488 21.1406 2.73738 20.9156 2.30613 20.9156C1.98738 20.9156 1.68738 21.0375 1.38738 21.2906C1.31238 21.3562 1.20925 21.3844 1.1155 21.375C1.01238 21.3656 0.928004 21.3187 0.862379 21.2437C0.290504 20.55 0.0748787 19.7531 0.206129 18.825C0.234254 18.6562 0.365504 18.525 0.534254 18.5062C0.693629 18.4875 0.853004 18.5812 0.918629 18.7219C1.23738 18.5906 1.93113 18.1687 2.28738 17.9531C2.5405 17.8031 2.75613 17.6719 2.89675 17.5969C2.953 17.5594 3.18738 17.2969 3.553 16.5563C3.5905 16.4813 3.64675 16.425 3.71238 16.3875C4.04988 16.2 4.27488 16.125 4.46238 16.125C4.678 16.125 4.85613 16.2469 4.92175 16.4344C5.0155 16.6969 4.92175 17.1844 4.65925 18.2531C4.64988 18.2719 4.64988 18.3 4.6405 18.3187C4.68738 18.3375 4.73425 18.3563 4.77175 18.3844C5.053 18.6 4.94988 18.9 4.74363 19.4906Z" fill="#E26F47"/>
<path d="M4.98727 14.7561C4.91227 15.2999 4.53727 16.2374 4.21852 16.8749C3.65602 18.028 3.34664 18.1968 3.24352 18.253C3.12164 18.3186 2.91539 18.4499 2.67164 18.5905C1.60289 19.2374 1.11539 19.5093 0.806018 19.5093C0.731018 19.5093 0.665393 19.4905 0.599768 19.4624C0.440393 19.3874 0.318518 19.2374 0.224768 19.0124C-0.318982 17.6343 0.215393 12.2343 0.684143 10.3593C0.731018 10.1905 0.881018 10.0686 1.05914 10.078C1.23727 10.078 1.37789 10.2093 1.41539 10.378C1.61227 11.3343 1.79977 11.8311 1.90289 11.9718C2.14664 12.2999 3.24352 13.1061 4.11539 13.6874C4.13414 13.5843 4.16227 13.4811 4.19039 13.3686C4.22789 13.1905 4.38727 13.0686 4.57477 13.078C4.75289 13.0874 4.90289 13.228 4.93102 13.3968C5.00602 14.0249 5.03414 14.4749 4.98727 14.7561Z" fill="#EC754B"/>
<path d="M6.2156 10.3687C5.89685 11.1937 5.64373 11.7281 5.45623 11.9999C5.28748 12.2437 5.09998 12.7874 4.92185 13.5374C4.80935 13.9968 4.74373 14.3718 4.74373 14.3718C4.72498 14.4937 4.6406 14.5968 4.5281 14.6531C4.48123 14.6718 4.43435 14.6812 4.3781 14.6812C4.3031 14.6812 4.23748 14.6624 4.17185 14.6156C3.9281 14.4562 1.76248 13.0312 1.3031 12.4031C1.0406 12.0468 0.824977 11.1843 0.693727 10.5187C0.543727 9.77806 0.309352 8.50307 0.496852 8.18432C0.571852 8.05307 0.731227 7.89369 1.05935 7.89369C1.06873 7.89369 1.0781 7.89369 1.08748 7.89369C1.06873 7.83744 1.05935 7.79056 1.0406 7.74369C0.881227 7.18119 0.712477 6.59994 1.1906 6.42182C1.24685 6.40307 1.3031 6.39369 1.36873 6.39369C1.6781 6.39369 1.88435 6.66557 2.03435 6.88119C2.04373 6.89994 2.06248 6.91869 2.08123 6.93744C2.23123 6.85307 2.5031 6.67494 3.0281 6.32807C3.13123 6.26244 3.26248 6.24369 3.37498 6.29057C3.48748 6.33744 3.57185 6.43119 3.59998 6.55307C3.63748 6.71244 3.68435 6.75931 3.68435 6.75931L3.8156 6.89057C4.38748 7.43432 4.96873 8.00619 5.17498 8.36244C5.26873 8.53119 5.36248 8.77494 5.47498 9.07494C5.54998 9.29057 5.6906 9.64681 5.79373 9.84369C5.86873 9.82494 5.9531 9.83432 6.0281 9.87181C6.20623 9.97494 6.2906 10.1812 6.2156 10.3687Z" fill="#E26F47"/>
<path d="M23.7839 10.7249C22.5839 12.3187 20.8683 13.1624 18.8152 13.1624C17.1089 13.1624 15.2339 12.5718 13.4152 11.4468C13.2933 11.3718 13.2277 11.2406 13.237 11.0999C13.237 11.0999 13.237 11.0812 13.237 11.0624C13.2183 11.0531 13.1902 11.0343 13.1714 11.0249C13.0495 10.9499 12.8339 10.8187 12.787 10.5374C12.7402 10.2468 12.9277 9.96556 13.1433 9.75931C13.1245 9.67494 13.1152 9.58119 13.1339 9.47806C13.1527 9.36556 13.1902 9.11244 14.1464 8.53119C14.1652 8.52181 14.1933 8.51244 14.212 8.50306L15.1683 8.15619C15.337 8.09994 15.5245 8.16556 15.6183 8.31556L15.9089 8.79369L16.5839 9.13119C16.6777 9.17806 16.7433 9.26244 16.7714 9.35619C16.9589 9.97494 18.2808 10.3312 20.3902 10.3312C21.9652 10.3312 23.4277 10.1343 23.4464 10.1343C23.5964 10.1156 23.7464 10.1812 23.8214 10.3124C23.887 10.4437 23.8777 10.6031 23.7839 10.7249Z" fill="#E26F47"/>
<path d="M23.9999 8.96245C23.9999 9.1687 23.8311 9.33745 23.6249 9.33745C23.5499 9.33745 23.4843 9.3187 23.4186 9.2812C22.9311 8.96245 22.3124 8.61558 22.1061 8.54995C22.0968 8.55933 22.0874 8.5687 22.078 8.57808C22.003 8.66245 21.8624 8.80308 21.628 8.80308C21.5811 8.80308 21.5343 8.7937 21.4874 8.78433C21.3561 8.74683 20.9718 8.70933 20.7561 8.6812C20.6624 8.67183 20.5874 8.66245 20.5499 8.65308C20.2499 8.61558 20.128 8.33433 20.0624 8.18433C20.053 8.16558 20.0436 8.13745 20.0343 8.1187C19.9218 8.06245 19.6499 7.9687 19.4624 7.94995C19.453 7.99683 19.4343 8.05308 19.4249 8.09058C19.3686 8.32495 19.3124 8.6062 19.0499 8.73745C18.9655 8.77495 18.8718 8.7937 18.7686 8.7937C18.5905 8.7937 18.3749 8.73745 18.1499 8.6812C17.9905 8.6437 17.8124 8.59683 17.7093 8.59683C17.6905 8.61558 17.653 8.65308 17.6343 8.67183C17.5218 8.7937 17.3249 9.00933 16.9686 8.97183C16.7249 8.9437 16.5843 8.80308 16.4999 8.66245C16.4436 8.73745 16.378 8.8312 16.3218 8.91558C16.2655 8.99995 16.1811 9.06558 16.078 9.08433C15.9749 9.10308 15.8718 9.08433 15.7874 9.0187L15.5155 8.82183L14.503 9.18745C14.278 9.32808 14.053 9.48745 13.9311 9.59058C13.978 9.64683 14.0061 9.72183 14.0061 9.79683C14.0155 9.9187 13.9593 10.0406 13.8655 10.1156C13.7624 10.2 13.6593 10.3031 13.5936 10.3875C13.7343 10.4812 14.0061 10.6593 13.9968 11.0437C13.9968 11.0718 13.9874 11.1468 13.9874 11.1468C13.9405 11.5781 13.6968 12.3187 13.6686 12.4031C13.6124 12.5531 13.4718 12.6562 13.3124 12.6562H13.2936C11.0249 12.6562 8.21239 12.3843 6.20614 10.3875C6.20614 10.3968 6.19676 10.3968 6.19676 10.4062C6.10301 10.5937 5.93426 10.6968 5.73739 10.6968C5.69989 10.6968 5.66239 10.6968 5.62489 10.6875C5.24051 10.6031 5.04364 10.125 4.76239 9.3562C4.67801 9.12183 4.58426 8.87808 4.52801 8.76558C4.34989 8.46558 3.63739 7.7812 3.29051 7.45308L3.15926 7.32183C3.02801 7.19058 2.92489 7.00308 2.86864 6.74995C2.71864 6.1312 2.81239 5.12808 3.08426 4.3687C3.12176 4.2562 3.21551 4.17183 3.31864 4.13433C6.89989 2.97183 10.6499 2.32495 13.8843 2.32495C20.2311 2.32495 23.9155 4.72495 23.9999 8.9062C23.9999 8.93433 23.9999 8.9437 23.9999 8.96245Z" fill="#EC754B"/>
<path d="M10.4531 10.303C10.425 10.303 10.3875 10.303 10.3593 10.2937C8.49371 9.80616 7.18121 9.14991 6.35621 8.27804C6.21559 8.12804 6.22496 7.89366 6.37496 7.74366C6.52496 7.60304 6.75934 7.61241 6.90934 7.76241C7.62184 8.52179 8.84996 9.13116 10.5562 9.57179C10.7531 9.62804 10.875 9.82491 10.8281 10.0312C10.7718 10.1905 10.6218 10.303 10.4531 10.303Z" fill="#E26F47"/>
</g>
<defs>
<clipPath id="clip0_270_29519">
<rect width="24" height="24" fill="white"/>
</clipPath>
</defs>
</svg>
