<svg width="24" height="24" viewBox="0 0 24 24" fill="none" xmlns="http://www.w3.org/2000/svg">
<g clip-path="url(#clip0_270_29496)">
<path d="M24.0002 3.83442C24.0002 6.5438 21.5346 10.2188 16.2471 15.3751C10.2284 21.1688 5.95336 23.9907 3.18774 23.9907C2.26899 23.9907 1.50961 23.6813 0.928363 23.0719C0.337738 22.5094 0.0283634 21.7782 0.00961343 20.8969C-0.0466366 18.1219 2.77524 13.8282 8.63461 7.76255C13.8002 2.47505 17.4752 0.0187988 20.1846 0.0187988C21.2346 0.0187988 22.144 0.403174 22.8846 1.15317C23.6159 1.87505 24.0002 2.77505 24.0002 3.83442Z" fill="#8FAE3C"/>
<path d="M22.6502 2.7657C22.294 2.7657 21.9096 2.59695 21.5908 2.2782C21.019 1.70632 20.944 0.937573 21.4221 0.468823C21.5721 0.318823 21.8065 0.318823 21.9565 0.468823C22.1065 0.618823 22.1065 0.853198 21.9565 1.0032C21.7315 1.2282 21.9658 1.59382 22.1252 1.7532C22.2846 1.91257 22.6502 2.15632 22.8752 1.93132C23.0252 1.78132 23.2596 1.78132 23.4096 1.93132C23.5596 2.08132 23.5596 2.3157 23.4096 2.4657C23.194 2.66257 22.9315 2.7657 22.6502 2.7657Z" fill="#849E33"/>
<path d="M7.7346 11.7376C7.63147 11.7376 7.53772 11.7001 7.46272 11.6251C7.3221 11.4751 7.3221 11.2407 7.4721 11.0907L8.26897 10.3219C13.519 5.2782 18.0565 0.918824 21.469 0.712574C21.6752 0.703199 21.8533 0.853199 21.8627 1.06882C21.8721 1.27507 21.7221 1.4532 21.5065 1.46257C18.3658 1.65007 13.7158 6.12195 8.79397 10.8563L7.9971 11.6251C7.9221 11.7001 7.82835 11.7376 7.7346 11.7376Z" fill="#849E33"/>
<path d="M12.6098 16.6031C12.516 16.6031 12.4129 16.5656 12.3473 16.4906C12.1973 16.3406 12.2067 16.1063 12.3473 15.9563C17.7098 10.6406 21.5535 5.39064 22.3879 2.25001C22.4442 2.05314 22.6504 1.93126 22.8473 1.98751C23.0442 2.04376 23.166 2.25001 23.1098 2.44689C22.2379 5.75626 18.4129 11.0063 12.8723 16.5C12.8067 16.5656 12.7129 16.6031 12.6098 16.6031Z" fill="#849E33"/>
<path d="M8.57847 15.7875C8.45659 15.7875 8.34409 15.7312 8.26909 15.6281C8.14722 15.4594 8.19409 15.225 8.36284 15.1031C9.86284 14.0438 11.8878 11.8313 14.2316 9.28125C16.4347 6.87187 18.9378 4.14375 21.6003 1.73438C21.7503 1.59375 21.9941 1.60312 22.1347 1.7625C22.2753 1.9125 22.266 2.15625 22.1066 2.29688C19.4722 4.6875 16.9878 7.40625 14.7847 9.79688C12.4128 12.3844 10.3597 14.6156 8.79409 15.7219C8.73784 15.7687 8.65347 15.7875 8.57847 15.7875Z" fill="#849E33"/>
</g>
<defs>
<clipPath id="clip0_270_29496">
<rect width="24" height="24" fill="white"/>
</clipPath>
</defs>
</svg>
