<svg width="24" height="24" viewBox="0 0 24 24" fill="none" xmlns="http://www.w3.org/2000/svg">
<g clip-path="url(#clip0_80_33242)">
<path d="M13.5188 19.6035C13.5094 19.7254 13.4438 19.8379 13.3406 19.9035C13.0219 20.091 12.6938 20.2504 12.3469 20.391C11.5969 20.6816 10.8 20.8316 9.98438 20.8316C8.11875 20.8316 6.25313 20.0535 4.6125 18.5816C2.0625 16.2848 0.168753 12.6566 0.00937825 9.73164C-0.0656217 8.25977 0.300003 7.02227 1.07813 6.15039C1.93125 5.19414 3.27188 4.69727 4.95938 4.69727C6.84375 4.69727 9.09375 5.33477 11.1469 6.45039C11.5219 6.65664 11.8969 6.87227 12.2438 7.10664C12.4031 7.20977 12.4594 7.41602 12.375 7.58477C11.475 9.45977 10.9594 11.6629 10.9594 13.6129C10.9594 16.0223 11.8219 18.0379 13.3875 19.2754C13.4813 19.3598 13.5281 19.4816 13.5188 19.6035Z" fill="#F4EFC3"/>
<path d="M24 13.6127C24 15.9283 23.2781 17.8877 21.9188 19.2939C20.6625 20.5877 18.9563 21.3002 17.1 21.3002C16.9969 21.3002 16.8844 21.3002 16.7719 21.2908C15.3375 21.2252 14.0063 20.7283 12.9094 19.8658C11.1656 18.4783 10.2 16.2564 10.2 13.6127C10.2 11.5502 10.7438 9.22519 11.6906 7.25644C12.8438 4.8752 14.3906 3.30957 16.0688 2.84082C16.4156 2.74707 16.7625 2.7002 17.1094 2.7002C18.9375 2.7002 20.6906 4.0127 22.0594 6.39394C23.2688 8.51269 24 11.2127 24 13.6127Z" fill="#F9F6CD"/>
<path d="M16.7719 19.4253C16.7344 19.4253 16.7062 19.4253 16.6687 19.4159C14.3062 18.769 12.8156 17.344 12.2344 15.2065C12.1781 15.0097 12.3 14.8034 12.4969 14.7472C12.6937 14.6909 12.9 14.8128 12.9562 15.0097C13.4719 16.9034 14.7469 18.1128 16.8656 18.694C17.0625 18.7503 17.1844 18.9565 17.1281 19.1534C17.0906 19.3128 16.9406 19.4253 16.7719 19.4253Z" fill="#F4EFC3"/>
</g>
<defs>
<clipPath id="clip0_80_33242">
<rect width="24" height="24" fill="white"/>
</clipPath>
</defs>
</svg>
