<svg width="24" height="24" viewBox="0 0 24 24" fill="none" xmlns="http://www.w3.org/2000/svg">
<path d="M19.1437 9.81553C19.0031 12.3655 17.1656 15.853 14.3437 18.9187C11.4187 22.1062 8.2031 23.9999 5.74685 23.9999C4.6031 23.9999 3.63748 23.6062 2.86873 22.8374C2.16561 22.1343 1.87498 21.2624 1.99686 20.2687C2.37186 17.3343 6.25311 14.0812 9.45936 12.1874C10.6406 11.503 11.7469 10.2749 12.8156 9.09365C13.7812 8.01553 14.7 7.00303 15.6 6.49678C15.6469 6.46865 15.6937 6.45928 15.7406 6.4499C15.825 6.44053 15.8906 6.43115 15.9562 6.43115C16.0781 6.43115 16.2562 6.4499 16.3875 6.58115C16.575 6.76865 16.5656 7.0124 16.4156 8.30615C16.3687 8.6999 16.3031 9.28115 16.2844 9.65615C16.5469 9.47803 16.9219 9.1874 17.175 8.98115C17.9344 8.38115 18.15 8.23115 18.375 8.23115C18.8156 8.23115 18.975 8.7374 19.1437 9.73115C19.1437 9.75928 19.1437 9.7874 19.1437 9.81553Z" fill="#BE6BB2"/>
<path d="M5.94375 22.6871C5.25 22.6871 4.63125 22.509 4.09688 22.1528C3.92813 22.0403 3.88125 21.8059 3.99375 21.6278C4.10625 21.459 4.34063 21.4121 4.51875 21.5246C6.08438 22.584 8.80313 21.5528 11.5969 18.8153C11.7469 18.6746 11.9813 18.6746 12.1313 18.8246C12.2719 18.9746 12.2719 19.209 12.1219 19.359C10.7156 20.7278 9.27188 21.7309 7.94063 22.2653C7.22813 22.5371 6.5625 22.6871 5.94375 22.6871Z" fill="#AA5BA3"/>
<path d="M20.1187 5.95293C19.9594 6.20605 19.7906 6.45918 19.6312 6.7123C20.1187 8.50293 19.9875 9.7498 19.1906 10.8561C19.1156 10.9592 19.0031 11.0154 18.8906 11.0154C18.8625 11.0154 18.825 11.0154 18.7969 11.0061C18.6469 10.9686 18.5344 10.8373 18.5156 10.6873C18.5156 10.6873 18.4781 10.2936 18.4031 9.8623C18.3375 9.4873 18.2906 9.25293 18.2437 9.1123C18.0656 9.24355 17.8312 9.43105 17.6437 9.58105C16.7812 10.2654 16.3594 10.5748 16.0406 10.5748C15.9094 10.5748 15.7969 10.5279 15.7125 10.4436C15.4781 10.2092 15.4969 9.7873 15.6844 8.23105C15.7219 7.90293 15.7687 7.48105 15.7875 7.21855C15.3187 7.28418 14.5687 7.50918 14.5594 7.50918C14.4 7.55605 14.2219 7.49043 14.1375 7.3498C14.0531 7.20918 14.0625 7.02168 14.175 6.8998C15.1594 5.82168 16.3312 5.37168 17.6625 5.56855C19.8562 3.57168 20.7187 2.09043 20.325 1.06855C20.2687 0.92793 20.3062 0.768555 20.4094 0.66543L20.9437 0.131055C21.0187 0.0560547 21.1219 0.0185547 21.2344 0.0185547C21.3375 0.0279297 21.4406 0.0748047 21.5062 0.15918C22.7906 1.81855 21.4875 3.8248 20.1187 5.95293Z" fill="#8FAE3C"/>
</svg>

