<svg width="24" height="24" viewBox="0 0 24 24" fill="none" xmlns="http://www.w3.org/2000/svg">
<g clip-path="url(#clip0_270_29530)">
<path d="M23.7843 12.1125C22.4249 16.3312 16.7718 21.375 12.3093 23.6344C12.2531 23.6625 12.1968 23.6719 12.1406 23.6719C12.0281 23.6719 11.9249 23.625 11.8499 23.5406C11.7374 23.4094 11.7374 23.2125 11.8406 23.0719C12.2624 22.5188 12.0937 21.4219 11.3812 19.9688C9.51555 16.2 4.5843 11.3438 1.8843 11.3438C1.52805 11.3438 1.2468 11.4281 1.00305 11.6063C0.862429 11.7094 0.665554 11.7 0.534304 11.5875C0.403054 11.475 0.365554 11.2781 0.459304 11.1281C3.06555 6.38437 8.36243 1.96875 12.0187 0.225C12.3374 0.075 12.7031 0 13.1062 0C15.7124 0 19.6031 3.19687 21.8531 6.29062C22.8468 7.64062 24.4031 10.1906 23.7843 12.1125Z" fill="#4AA5BA"/>
<path d="M21.0471 9.45938C20.9158 9.45938 20.7846 9.38438 20.7189 9.26251C19.8658 7.70626 18.5814 6.27188 16.7814 4.86563C16.6221 4.73438 16.5846 4.50001 16.7158 4.34063C16.8471 4.18126 17.0814 4.14375 17.2408 4.275C19.1252 5.74688 20.4752 7.25626 21.3752 8.90626C21.4783 9.08438 21.4033 9.31876 21.2252 9.41251C21.1689 9.45001 21.1033 9.45938 21.0471 9.45938Z" fill="#FFE5C4"/>
<path d="M12.4407 23.5219C12.422 23.5406 12.4032 23.5688 12.3845 23.5875C12.047 23.8688 11.6157 24.0094 11.1001 24.0094C8.18447 24.0094 3.0376 19.3031 1.02197 15.6C-0.00927973 13.6875 -0.206155 12.1406 0.468845 11.1094C0.49697 11.0719 0.525095 11.0344 0.562595 11.0063C0.92822 10.7438 1.37822 10.6031 1.88447 10.6031C3.83447 10.6031 6.19697 12.5438 7.44385 13.6969C9.38447 15.5063 11.1095 17.7188 12.0563 19.6406C12.9095 21.375 13.0501 22.7156 12.4407 23.5219Z" fill="#FFE5C4"/>
<path d="M6.85342 19.9688C6.66592 19.9688 6.49717 19.8281 6.47842 19.6313L6.24404 17.325L4.53779 15.6094C4.38779 15.4594 4.38779 15.225 4.53779 15.075C4.68779 14.925 4.92217 14.925 5.07217 15.075L6.87217 16.8844C6.92842 16.9406 6.97529 17.025 6.97529 17.1094L7.22842 19.5469C7.24717 19.7531 7.09717 19.9406 6.89092 19.9594C6.88154 19.9688 6.86279 19.9688 6.85342 19.9688Z" fill="#4AA5BA"/>
<path d="M8.36275 17.9532C8.33462 17.9532 8.3065 17.9532 8.27837 17.9438L6.51587 17.5219C6.319 17.475 6.18775 17.2688 6.23462 17.0719C6.2815 16.875 6.48775 16.7438 6.68462 16.7907L8.44712 17.2125C8.644 17.2594 8.77525 17.4657 8.72837 17.6625C8.69087 17.8407 8.5315 17.9532 8.36275 17.9532Z" fill="#4AA5BA"/>
</g>
<defs>
<clipPath id="clip0_270_29530">
<rect width="24" height="24" fill="white"/>
</clipPath>
</defs>
</svg>
