<svg width="24" height="24" viewBox="0 0 24 24" fill="none" xmlns="http://www.w3.org/2000/svg">
<path d="M21.6563 16.5092V20.9623C21.6563 21.0748 21.6 21.1873 21.5063 21.2623L18.0656 23.9248C18 23.9811 17.9156 23.9998 17.8313 23.9998C17.775 23.9998 17.7188 23.9904 17.6625 23.9623C17.5313 23.8967 17.4563 23.7654 17.4563 23.6248V19.2092C17.4563 19.0967 17.5125 18.9842 17.5969 18.9186L21.0375 16.2186C21.15 16.1342 21.3 16.1154 21.4313 16.1811C21.5719 16.2279 21.6563 16.3592 21.6563 16.5092Z" fill="#9BD7DD"/>
<path d="M21.6563 7.14355V16.5092C21.6563 16.6217 21.6 16.7342 21.5156 16.7998L18.0656 19.4998C18 19.5561 17.9156 19.5842 17.8313 19.5842C17.775 19.5842 17.7188 19.5748 17.6625 19.5467C17.5313 19.4811 17.4563 19.3498 17.4563 19.2092V8.20293C17.4563 8.03418 17.5594 7.89355 17.7188 7.84668L21.1594 6.7873C21.2719 6.7498 21.3938 6.76855 21.4875 6.84355C21.6 6.90918 21.6563 7.02168 21.6563 7.14355Z" fill="#EFEFEF"/>
<path d="M21.6469 7.19987C21.6281 7.34049 21.525 7.46237 21.3844 7.49987L17.9437 8.55924C17.9062 8.56862 17.8687 8.57799 17.8312 8.57799C17.7375 8.57799 17.6437 8.54049 17.5781 8.47487C17.4844 8.38112 17.4375 8.24049 17.475 8.11862L18.1687 5.21237C18.1969 5.09049 18.2812 4.99674 18.3937 4.94987C18.5062 4.90299 18.6375 4.92174 18.7406 4.98737L21.4875 6.83424C21.6094 6.90924 21.675 7.05924 21.6469 7.19987Z" fill="#9BD7DD"/>
<path d="M6.27916 16.3135H14.276V11.5416H6.27916L6.27916 16.3135Z" fill="#1DDCFF"/>
<path d="M18.2156 19.2095V23.6251C18.2156 23.8313 18.0469 24.0001 17.8406 24.0001H2.71875C2.5125 24.0001 2.34375 23.8313 2.34375 23.6251V19.2095C2.34375 19.0032 2.5125 18.8345 2.71875 18.8345H17.8312C18.0469 18.8345 18.2156 19.0032 18.2156 19.2095Z" fill="#BDF3FF"/>
<path d="M21.525 7.42524C21.4594 7.49087 21.3656 7.51899 21.2813 7.51899C21.2063 7.51899 21.1313 7.50024 21.075 7.45337L18.3281 5.61587C18.1969 5.53149 18.1406 5.37212 18.1688 5.21274L18.8063 2.57837C18.8438 2.41899 18.975 2.30649 19.1344 2.28774C19.2938 2.26899 19.4438 2.35337 19.5094 2.50337L21.6188 6.98462C21.6938 7.13462 21.6563 7.32212 21.525 7.42524Z" fill="#90CAD3"/>
<path d="M18.2156 8.20312V19.2094C18.2156 19.4156 18.0469 19.5844 17.8406 19.5844H2.71875C2.5125 19.5844 2.34375 19.4156 2.34375 19.2094V8.20312C2.34375 7.99687 2.5125 7.82812 2.71875 7.82812H17.8312C18.0469 7.82812 18.2156 7.99687 18.2156 8.20312Z" fill="#F7F7F7"/>
<path d="M19.5375 2.75635L18.2063 8.29697C18.1688 8.46572 18.0188 8.5876 17.8406 8.5876H2.71875C2.59688 8.5876 2.48438 8.53135 2.40938 8.42822C2.34375 8.3251 2.325 8.19385 2.37188 8.08135L4.49063 2.53135C4.54688 2.38135 4.6875 2.2876 4.8375 2.2876H19.1625C19.275 2.2876 19.3875 2.34385 19.4531 2.42822C19.5375 2.52197 19.5563 2.64385 19.5375 2.75635Z" fill="#BDF3FF"/>
<path d="M19.5469 0.375V2.6625C19.5469 2.86875 19.3781 3.0375 19.1719 3.0375H4.84688C4.64063 3.0375 4.47188 2.86875 4.47188 2.6625V0.375C4.47188 0.16875 4.64063 0 4.84688 0H19.1719C19.3781 0 19.5469 0.16875 19.5469 0.375Z" fill="#BDF3FF"/>
<path d="M14.6531 11.5405V16.3218C14.6531 16.528 14.4844 16.6968 14.2781 16.6968H6.28125C6.075 16.6968 5.90625 16.528 5.90625 16.3218V11.5405C5.90625 11.3343 6.075 11.1655 6.28125 11.1655H14.2781C14.4844 11.1655 14.6531 11.3343 14.6531 11.5405Z" fill="#BDF3FF"/>
</svg>
