<svg width="24" height="24" viewBox="0 0 24 24" fill="none" xmlns="http://www.w3.org/2000/svg">
<g clip-path="url(#clip0_270_29511)">
<path d="M23.4188 14.0718C23.1657 16.4906 22.0407 18.7312 20.2313 20.3624C18.2157 22.1906 15.4876 23.1562 12.347 23.1562C12.2063 23.1562 12.0657 23.1562 11.9157 23.1468H11.9063C8.63447 22.9687 5.8126 21.8624 3.75947 19.9312C1.93135 18.2156 0.796975 15.9374 0.571975 13.5187C0.384475 11.4656 0.88135 9.44057 1.96885 7.82807C3.15947 6.06557 5.00635 4.82807 7.30322 4.27495C10.0595 3.44057 9.42197 0.581196 9.39385 0.459321C9.35635 0.299946 9.43135 0.131196 9.57197 0.0468208C9.7126 -0.0375542 9.89073 -0.0188042 10.0126 0.0936958C10.4157 0.468696 10.7626 0.899946 11.1282 1.7437C11.1563 1.80932 11.1938 1.88432 11.2407 1.95932C11.2501 1.9312 11.2595 1.90307 11.2688 1.87495C11.372 1.56557 11.4751 1.23745 11.7001 0.909321C11.7938 0.778071 11.9345 0.618696 12.0938 0.459321C12.197 0.346821 12.3188 0.215571 12.3751 0.149946C12.4782 -5.42211e-05 12.6751 -0.0469292 12.8438 0.0374458C13.0126 0.121821 13.0876 0.309321 13.0407 0.478071C13.0407 0.487446 12.7595 1.49057 13.2938 2.4187C13.697 3.12182 14.4563 3.62807 15.5532 3.92807C21.572 5.18432 23.8407 9.92807 23.4188 14.0718Z" fill="#F6AF72"/>
<path d="M11.9252 23.1562C11.8595 23.1562 11.7845 23.1375 11.7189 23.1C6.95642 20.025 4.42517 16.8187 4.21892 13.5562C3.95642 9.56247 7.12517 6.41247 9.53454 4.38747C9.69392 4.25622 9.92829 4.27497 10.0595 4.43435C10.1908 4.59372 10.172 4.8281 10.0127 4.95935C7.73454 6.88122 4.72517 9.8531 4.96892 13.5093C5.13767 16.0687 6.90017 18.6375 10.2377 21.15C7.29392 16.5656 8.38142 12.5531 9.52517 8.34372C9.85329 7.1531 10.1814 5.9156 10.4345 4.65935C10.472 4.4531 10.6689 4.32185 10.8752 4.35935C11.0814 4.39685 11.2127 4.59372 11.1752 4.79997C10.922 6.08435 10.5845 7.33122 10.2564 8.5406C8.95329 13.3218 7.82829 17.4468 12.2252 22.5375C12.347 22.6781 12.347 22.8843 12.2252 23.025C12.1408 23.1093 12.0377 23.1562 11.9252 23.1562Z" fill="#E8955D"/>
<path d="M11.9249 23.1562C11.8218 23.1562 11.7187 23.1093 11.6437 23.0249C11.5218 22.8843 11.5218 22.6781 11.6437 22.5374C16.8374 16.4906 13.9874 8.73744 11.8312 4.64994C11.7374 4.46244 11.803 4.23744 11.9905 4.14369C12.178 4.04994 12.403 4.11556 12.4968 4.30306C14.5499 8.17494 17.1843 15.2343 13.4905 21.2812C17.1468 18.6281 19.003 15.8999 19.0218 13.1437C19.0499 9.58119 15.9937 6.85306 13.4249 5.19369C13.2468 5.08119 13.1999 4.84681 13.3124 4.67806C13.4249 4.49994 13.6593 4.45306 13.828 4.56556C17.7374 7.09681 19.7905 10.0687 19.7624 13.1531C19.7343 16.5843 17.1655 19.9312 12.1218 23.0999C12.0655 23.1374 11.9999 23.1562 11.9249 23.1562Z" fill="#E8955D"/>
<path d="M13.9503 24C13.9034 24 13.8565 23.9906 13.8097 23.9719L11.9159 23.1844L10.0878 23.7844C9.89091 23.85 9.67528 23.7469 9.60966 23.55C9.54403 23.3531 9.65653 23.1375 9.84403 23.0812L11.8034 22.4344C11.8878 22.4062 11.9815 22.4062 12.0659 22.4437L14.0815 23.2875C14.269 23.3719 14.3628 23.5875 14.2784 23.775C14.2315 23.9156 14.0909 24 13.9503 24Z" fill="#E8955D"/>
<path d="M12.9281 23.9999C12.8437 23.9999 12.7593 23.9718 12.6843 23.9155L11.9437 23.2968L11.3624 23.8874C11.2218 24.0374 10.9781 24.0374 10.8281 23.8968C10.6781 23.7561 10.6781 23.5124 10.8187 23.3624L11.6437 22.5186C11.7843 22.378 11.9999 22.3686 12.1499 22.4905L13.1531 23.3343C13.3124 23.4655 13.3312 23.6999 13.1999 23.8593C13.1437 23.953 13.0406 23.9999 12.9281 23.9999Z" fill="#E8955D"/>
</g>
<defs>
<clipPath id="clip0_270_29511">
<rect width="24" height="24" fill="white"/>
</clipPath>
</defs>
</svg>
