<svg width="24" height="24" viewBox="0 0 24 24" fill="none" xmlns="http://www.w3.org/2000/svg">
<g clip-path="url(#clip0_270_29539)">
<path d="M13.6972 7.75318C13.4909 8.35318 13.1909 9.48756 12.8347 10.8282C13.5378 7.44381 10.6316 4.79068 9.75969 4.33131C8.88781 3.88131 7.90344 3.95631 7.19094 4.09693C6.48781 4.22818 5.99094 5.25006 5.19406 5.50318C4.39719 5.75631 3.80656 5.95318 3.26281 6.20631C2.28781 6.65631 1.24719 9.55318 1.65969 11.6719C0.675311 8.95318 0.290936 6.40318 0.815936 5.57818C1.33156 4.76256 1.83781 3.79693 2.75656 2.78443C3.67531 1.77193 5.51281 0.309433 7.72531 0.375058C9.93781 0.440683 10.7066 0.600058 11.9816 1.89381C13.2659 3.18756 14.4284 5.56881 13.6972 7.75318Z" fill="#92A5AC"/>
<g opacity="0.5">
<path d="M11.9909 1.89371C10.7065 0.609338 9.94717 0.449963 7.7253 0.374963C5.5128 0.309338 3.66592 1.75309 2.75655 2.76559C1.84717 3.77809 1.33155 4.75309 0.815922 5.56871C0.300297 6.39371 -0.074703 6.40309 0.900297 9.12184C0.900297 9.12184 1.18155 3.68434 6.0378 1.79059C10.9034 -0.103162 11.9909 1.89371 11.9909 1.89371Z" fill="white"/>
</g>
<path d="M12.8346 10.8281C12.544 11.9156 12.2252 13.1343 11.8877 14.325C12.019 12 11.3159 8.16559 8.25961 8.45621C7.37836 8.56871 7.22836 9.05621 6.34711 9.30934C5.46586 9.56246 4.85649 9.59996 4.44399 10.0218C3.57211 11.1468 2.60649 13.3781 3.57211 15.7125C3.03774 14.8218 2.55024 13.8562 2.14711 12.8812C1.97836 12.4781 1.81899 12.0656 1.66899 11.6625C1.25649 9.54371 2.28774 6.64684 3.27211 6.19684C3.80649 5.94371 4.40649 5.74684 5.20336 5.49371C6.00024 5.24059 6.49711 4.21871 7.20024 4.08746C7.90337 3.95621 8.89711 3.87184 9.76899 4.32184C10.6315 4.79059 13.5377 7.44371 12.8346 10.8281Z" fill="#92A5AC"/>
<g opacity="0.5">
<path d="M12.094 6.81564C11.3253 5.49376 10.2378 4.58439 9.75963 4.33126C8.88775 3.88126 7.90338 3.95626 7.19088 4.09689C6.48775 4.22814 5.99088 5.25001 5.19401 5.50314C4.39713 5.75626 3.8065 5.95314 3.26275 6.20626C2.28776 6.65626 1.24713 9.55314 1.65963 11.6719C1.80963 12.075 1.969 12.4875 2.13775 12.8906C2.13775 12.8906 2.55963 8.49376 3.41276 7.37814C3.66588 7.05001 4.58463 6.39376 5.65338 6.29064C6.34713 6.22501 7.144 4.65001 7.91276 4.67814C10.0315 4.75314 12.094 6.81564 12.094 6.81564Z" fill="white"/>
</g>
<path d="M11.8781 14.325C11.5406 15.5063 11.1938 16.6406 10.8563 17.5688C12.1594 13.5656 8.7094 12.8344 8.02502 12.9938C7.29377 13.1625 6.3844 13.65 5.87815 15.6563C5.3719 17.6625 8.81252 19.8656 8.81252 19.8656C6.8344 19.9031 4.9969 18.0844 3.56252 15.7219C2.5969 13.3781 3.56252 11.1563 4.4344 10.0219C4.8469 9.60002 5.45627 9.56252 6.33752 9.30939C7.21877 9.05627 7.36877 8.56877 8.25002 8.45627C11.3156 8.15627 12.0188 12 11.8781 14.325Z" fill="#92A5AC"/>
<g opacity="0.5">
<path d="M11.2687 10.4062C10.7249 9.19682 9.78743 8.30619 8.2593 8.45619C7.37805 8.56869 7.22805 9.05619 6.3468 9.30932C5.46555 9.56244 4.85618 9.59994 4.44368 10.0218C3.5718 11.1468 2.60618 13.3781 3.5718 15.7124C3.5718 15.7124 4.3218 11.1843 5.16555 10.6968C6.0093 10.2093 6.1218 10.3593 6.91868 10.0593C7.7343 9.74995 7.74368 9.34682 8.6343 9.33744C9.5343 9.32807 11.2687 10.4062 11.2687 10.4062Z" fill="white"/>
</g>
<path d="M10.8659 17.5688C10.744 17.8969 10.6315 18.2063 10.5096 18.4688C10.5096 18.4782 10.5003 18.4782 10.5003 18.4876C10.2096 19.1532 9.93776 19.6126 9.70339 19.7251C9.40339 19.8188 9.11276 19.8657 8.82214 19.8657C8.82214 19.8657 5.38151 17.6719 5.88776 15.6563C6.39401 13.6501 7.29401 13.1626 8.03464 12.9938C8.70964 12.8344 12.169 13.5657 10.8659 17.5688Z" fill="#92A5AC"/>
<g opacity="0.5">
<path d="M10.8565 14.55C10.1627 13.1719 8.48459 12.8813 8.03459 12.9938C7.30334 13.1625 6.39396 13.65 5.88771 15.6563C5.71896 16.3125 5.98146 16.9969 6.40334 17.6063C6.40334 17.6063 6.22521 15.4313 7.60334 14.2031C8.98146 12.975 10.8565 14.55 10.8565 14.55Z" fill="white"/>
</g>
<path d="M2.14707 12.8812C1.9127 12.5343 1.7627 12.1125 1.66895 11.6625L2.14707 12.8812Z" fill="#92A5AC"/>
<path d="M1.66891 12.0375C1.51891 12.0375 1.36891 11.9438 1.31266 11.7938C0.497035 9.53438 -0.20609 6.49687 0.50641 5.37187C0.609535 5.2125 0.703285 5.04375 0.80641 4.875C1.23766 4.1625 1.71578 3.36562 2.47516 2.52187C3.00953 1.93125 4.95016 0 7.57516 0C7.63141 0 7.68766 0 7.74391 0C9.96579 0.075 10.8658 0.225 12.2627 1.63125C13.697 3.08437 14.8127 5.5875 14.0439 7.875C13.847 8.45625 13.547 9.58125 13.2002 10.8844L13.1908 10.9219C13.1345 11.1187 12.9377 11.2406 12.7408 11.1938C12.5439 11.1469 12.422 10.95 12.4595 10.7531C13.1158 7.6125 10.4064 5.1 9.58141 4.66875C9.19703 4.47187 8.73766 4.36875 8.22203 4.36875C7.92203 4.36875 7.61266 4.39687 7.25641 4.4625C7.01266 4.50937 6.75016 4.7625 6.46891 5.03438C6.14078 5.35313 5.77516 5.70937 5.29703 5.85938C4.48141 6.1125 3.91891 6.30938 3.41266 6.54375C2.63453 6.90938 1.63141 9.59062 2.02516 11.5969C2.06266 11.7937 1.95016 11.9813 1.75328 12.0281C1.73453 12.0375 1.69703 12.0375 1.66891 12.0375ZM7.57516 0.75C5.25953 0.75 3.51578 2.48438 3.03766 3.01875C2.32516 3.80625 1.86578 4.575 1.45328 5.25937C1.35016 5.4375 1.24703 5.60625 1.14391 5.76562C0.872035 6.19688 0.90016 7.47188 1.33141 9.27188C1.60328 7.70625 2.30641 6.23438 3.11266 5.85938C3.64703 5.60625 4.24703 5.40938 5.08141 5.14688C5.39078 5.05313 5.67203 4.77187 5.95328 4.5C6.30016 4.1625 6.65641 3.81562 7.12516 3.73125C7.52828 3.65625 7.88453 3.61875 8.23141 3.61875C8.86891 3.61875 9.45016 3.75 9.93766 4.00313C10.7439 4.425 12.5439 6.06562 13.1345 8.31562C13.2095 8.04375 13.2845 7.81875 13.3408 7.63125C14.0064 5.65313 12.9658 3.40313 11.7283 2.15625C10.5377 0.965625 9.86266 0.825 7.71579 0.75C7.66891 0.75 7.62204 0.75 7.57516 0.75Z" fill="#92A5AC"/>
<path d="M3.57189 16.0875C3.44064 16.0875 3.31877 16.0219 3.25314 15.9094C2.72814 15.0375 2.24064 14.0719 1.80002 13.0313C1.63127 12.6281 1.46252 12.2063 1.31252 11.7938C1.30314 11.775 1.30314 11.7563 1.29377 11.7375C0.881269 9.61877 1.85627 6.44065 3.10314 5.8594C3.63752 5.60627 4.23752 5.4094 5.07189 5.1469C5.38127 5.05315 5.66252 4.7719 5.94377 4.50002C6.29064 4.16252 6.64689 3.81565 7.11564 3.73127C7.51877 3.65627 7.87502 3.61877 8.22189 3.61877C8.85939 3.61877 9.44064 3.75002 9.92814 4.00315C11.0156 4.57502 13.9313 7.37815 13.2 10.9125C13.2 10.9219 13.2 10.9219 13.1906 10.9313L13.1625 11.0344C12.8813 12.0844 12.5625 13.275 12.2344 14.4281C12.1781 14.6156 12 14.7281 11.8125 14.6906C11.625 14.6625 11.4938 14.4938 11.5031 14.2969C11.5875 12.7969 11.3156 10.65 10.2656 9.5344C9.74064 8.98127 9.09377 8.7469 8.29689 8.8219C7.90314 8.86877 7.69689 9.0094 7.43439 9.17815C7.18127 9.3469 6.90002 9.52502 6.45002 9.65627C6.21564 9.7219 6.00939 9.77815 5.81252 9.82502C5.29689 9.9469 4.95002 10.0313 4.72502 10.2563C4.36877 10.725 2.84064 12.9563 3.91877 15.5625C3.99377 15.7406 3.91877 15.9563 3.74064 16.0406C3.68439 16.0781 3.62814 16.0875 3.57189 16.0875ZM2.02502 11.5688C2.16564 11.9625 2.32502 12.3563 2.48439 12.7406C2.58752 12.975 2.69064 13.2094 2.79377 13.4438C2.85002 12 3.44064 10.6969 4.14377 9.7969C4.15314 9.78752 4.16252 9.77815 4.17189 9.76877C4.55627 9.3844 5.05314 9.25315 5.63439 9.11252C5.82189 9.06565 6.01877 9.01877 6.24377 8.95315C6.59064 8.85002 6.79689 8.71877 7.02189 8.56877C7.32189 8.3719 7.64064 8.16565 8.21252 8.09065H8.22189C9.25314 7.98752 10.1344 8.30627 10.8094 9.02815C11.5219 9.78752 11.9344 10.8844 12.1219 12.0188C12.2344 11.6156 12.3375 11.2219 12.4313 10.8469L12.4594 10.7531C13.1063 7.61252 10.3969 5.1094 9.57189 4.67815C9.18752 4.48127 8.72814 4.37815 8.21252 4.37815C7.91252 4.37815 7.60314 4.40627 7.24689 4.4719C7.00314 4.51877 6.74064 4.7719 6.45939 5.04377C6.13127 5.36252 5.76564 5.71877 5.28752 5.86877C4.47189 6.1219 3.90939 6.31877 3.40314 6.55315C2.64377 6.90002 1.65002 9.56252 2.02502 11.5688Z" fill="#92A5AC"/>
<path d="M8.7469 20.2406C6.36565 20.2406 4.44377 17.8875 3.24377 15.9093C3.24377 15.9 3.2344 15.9 3.2344 15.8906C3.22502 15.8812 3.22502 15.8718 3.21565 15.8625C2.25002 13.5187 3.05627 11.1937 4.1344 9.79685C4.14377 9.78747 4.15315 9.7781 4.16253 9.76872C4.5469 9.38435 5.04378 9.2531 5.62503 9.11247C5.81253 9.0656 6.0094 9.01872 6.2344 8.9531C6.58127 8.84997 6.78753 8.71872 7.01253 8.56872C7.31253 8.37185 7.63127 8.1656 8.20315 8.0906H8.21252C9.24377 7.98747 10.125 8.30622 10.8094 9.0281C12.0282 10.3218 12.3563 12.6187 12.2531 14.3531C12.2531 14.3812 12.2438 14.4093 12.2438 14.4375C11.8594 15.7968 11.5219 16.8656 11.2125 17.7093C11.1469 17.9062 10.9313 18 10.7344 17.9343C10.5375 17.8687 10.4344 17.6625 10.5 17.4656C10.9219 16.1906 10.8563 15.1687 10.3219 14.4281C9.6844 13.5468 8.5969 13.3593 8.23128 13.3593C8.1469 13.3593 8.1094 13.3687 8.10003 13.3687C7.4719 13.5187 6.70315 13.9218 6.2344 15.7593C5.86877 17.1937 8.1094 18.9843 9.0094 19.5562C9.15002 19.6406 9.21565 19.8187 9.16878 19.9781C9.1219 20.1375 8.98127 20.25 8.81252 20.25C8.80315 20.2406 8.77502 20.2406 8.7469 20.2406ZM3.9094 15.5437C4.9594 17.2687 6.0844 18.4687 7.19065 19.0593C6.22502 18.1687 5.19378 16.8562 5.5219 15.5625C6.09378 13.3031 7.18127 12.8062 7.94065 12.6281C8.02502 12.6093 8.12815 12.6 8.24065 12.6C8.83127 12.6 10.1438 12.8906 10.9313 13.9781C11.1094 14.2312 11.25 14.4937 11.3531 14.7937C11.4 14.625 11.4563 14.4468 11.5031 14.2687C11.5875 12.7687 11.3063 10.6593 10.2563 9.54372C9.73128 8.9906 9.09377 8.75622 8.28753 8.83122C7.89377 8.8781 7.68752 9.01872 7.42502 9.18747C7.1719 9.35622 6.89065 9.53435 6.44065 9.6656C6.20627 9.73122 6.00003 9.78747 5.80315 9.83435C5.28752 9.95622 4.94065 10.0406 4.71565 10.2656C4.36877 10.7343 2.85003 12.9468 3.9094 15.5437Z" fill="#92A5AC"/>
<path d="M8.82182 20.2312C8.74682 20.2312 8.6812 20.2125 8.61557 20.175C8.46557 20.0812 4.94995 17.8031 5.52182 15.5625C6.0937 13.3031 7.1812 12.8062 7.94057 12.6281C8.02495 12.6094 8.12807 12.6 8.24057 12.6C8.8312 12.6 10.1437 12.8906 10.9312 13.9781C11.6156 14.9156 11.7093 16.1625 11.2124 17.6906C11.2124 17.7 11.2031 17.7094 11.2031 17.7187C11.0718 18.0656 10.9593 18.3656 10.8468 18.6281C10.8468 18.6375 10.8374 18.6375 10.8374 18.6469C10.4812 19.4812 10.1718 19.9219 9.85307 20.0719C9.83432 20.0812 9.82495 20.0812 9.8062 20.0906C9.48745 20.175 9.15932 20.2312 8.82182 20.2312ZM8.24995 13.35C8.16557 13.35 8.12807 13.3594 8.1187 13.3594C7.49057 13.5094 6.72182 13.9125 6.25307 15.75C5.9062 17.1281 7.97807 18.8531 8.92495 19.4812C9.14057 19.4719 9.34682 19.4344 9.56245 19.3687C9.60932 19.3312 9.81557 19.1437 10.1624 18.3375C10.1624 18.3281 10.1718 18.3281 10.1718 18.3187C10.2749 18.0656 10.3874 17.7844 10.5187 17.4375C10.5187 17.4375 10.5187 17.4375 10.5187 17.4281C10.9312 16.1531 10.8749 15.1406 10.3406 14.4094C9.6937 13.5375 8.6062 13.35 8.24995 13.35Z" fill="#92A5AC"/>
<path d="M19.0781 21.0845C16.725 22.9407 13.875 24.0001 11.2781 24.0001C9.82499 24.0001 8.54061 23.6626 7.56561 23.0251C7.50936 22.9876 7.47186 22.9407 7.44374 22.8845C6.71249 21.5063 8.97186 14.1845 10.4344 10.9032C10.5187 10.7157 10.7344 10.6313 10.9219 10.7063C11.1094 10.7907 11.2031 11.0063 11.1187 11.1938C10.9875 11.5126 7.97811 18.9376 9.93749 21.497C10.3969 22.097 11.175 22.397 12.2625 22.397C15.0187 22.397 18.6375 20.4751 18.675 20.4563C18.8437 20.3626 19.0594 20.4188 19.1625 20.5782C19.275 20.747 19.2375 20.9626 19.0781 21.0845Z" fill="#A0B1B5"/>
<path d="M18.8533 20.7844C20.644 19.3782 22.2377 17.4376 23.3534 14.9438C23.6721 13.6501 22.7065 13.3313 22.6596 11.1938C22.6408 9.70318 20.4752 7.35006 18.2721 6.50631C16.0596 5.66256 13.2471 6.50631 11.4658 9.67506C11.2502 10.0501 11.0252 10.5094 10.8002 11.0157C10.8002 11.0157 10.8002 11.0251 10.7908 11.0344C10.7908 11.0344 10.7908 11.0438 10.7815 11.0438C10.5471 11.6157 7.57522 19.0032 9.6471 21.7126C11.794 24.5251 18.7502 20.8407 18.8533 20.7844ZM11.3252 20.1563C11.0252 19.7063 11.9252 17.1563 11.9252 17.1563C11.9252 17.1563 12.6377 13.9501 13.0877 13.3313C13.5377 12.7126 15.169 10.5094 17.5596 11.1094C19.9502 11.7094 20.2596 13.5282 20.269 14.3438C20.2783 15.1594 20.4002 16.5094 19.2565 18.0844C18.1221 19.6594 12.9377 22.4063 11.3252 20.1563Z" fill="#92A5AC"/>
<path d="M19.2654 18.0844C20.4092 16.5094 20.2873 15.1594 20.2779 14.3437C20.2685 13.5281 19.9685 11.7187 17.5685 11.1094C15.1779 10.5094 13.5467 12.7125 13.0967 13.3312C12.6467 13.95 11.9342 17.1562 11.9342 17.1562C11.9342 17.1562 11.0342 19.7062 11.3342 20.1562C12.9373 22.4062 18.1217 19.6594 19.2654 18.0844Z" fill="#FFE5C4"/>
<g opacity="0.7">
<path d="M17.5685 11.1094C15.1779 10.5094 13.5467 12.7125 13.0967 13.3312C12.6467 13.95 11.9342 17.1562 11.9342 17.1562C11.9342 17.1562 11.0342 19.7062 11.3342 20.1562C11.9998 21.0844 13.2842 21.1594 14.6342 20.8219C14.6342 20.8219 13.3029 19.6594 13.406 17.1C13.6873 13.0031 17.5685 11.1094 17.5685 11.1094Z" fill="white"/>
</g>
<path d="M12.2624 23.1469C10.9406 23.1469 9.95618 22.7438 9.34681 21.9469C8.40931 20.7188 8.27806 18.5532 8.98119 15.4969C9.48744 13.2563 10.2749 11.2781 10.4343 10.9031C10.4343 10.8938 10.4437 10.8938 10.4437 10.8844C10.4531 10.875 10.4531 10.8563 10.4531 10.8563C10.6874 10.3313 10.9124 9.8719 11.1281 9.48752C12.4406 7.15315 14.4374 5.8219 16.6031 5.8219C17.2218 5.8219 17.8312 5.9344 18.4031 6.1594C20.7656 7.0594 23.0156 9.50627 23.0343 11.1938C23.0531 12.1781 23.2874 12.7406 23.4843 13.2375C23.6999 13.7719 23.9062 14.2688 23.7187 15.0375C23.7093 15.0563 23.7093 15.075 23.6999 15.1032C22.6499 17.475 21.0562 19.5469 19.0874 21.0844C19.0687 21.1031 19.0406 21.1125 19.0124 21.1313C18.7218 21.2813 15.1124 23.1469 12.2624 23.1469ZM11.1187 11.2125C9.94681 14.0813 8.38119 19.4625 9.94681 21.4969C10.4062 22.0969 11.1843 22.3969 12.2718 22.3969C14.9062 22.3969 18.3374 20.6344 18.6562 20.4657C20.5312 18.9844 21.9843 17.0907 22.9968 14.8219C23.1187 14.3063 22.9874 13.9969 22.7906 13.5188C22.5749 12.9938 22.3031 12.3281 22.2843 11.2031C22.2656 9.9844 20.3062 7.6969 18.1312 6.86252C17.6437 6.67502 17.1281 6.58127 16.6031 6.58127C14.7187 6.58127 12.9656 7.78127 11.7843 9.8719C11.5781 10.2375 11.3624 10.6781 11.1374 11.1844C11.1374 11.1938 11.1374 11.1938 11.1281 11.1938C11.1281 11.1938 11.1187 11.2031 11.1187 11.2125Z" fill="#92A5AC"/>
<path d="M14.8407 19.5187C14.6907 19.5187 14.5407 19.425 14.4845 19.275C14.4095 19.0781 14.5126 18.8625 14.7095 18.7968C16.3689 18.1875 17.3814 17.4843 18.0001 16.5281C18.1126 16.35 18.347 16.3031 18.5157 16.4156C18.6939 16.5281 18.7407 16.7625 18.6282 16.9312C17.7189 18.3562 16.1907 19.05 14.972 19.5C14.9251 19.5093 14.8876 19.5187 14.8407 19.5187Z" fill="white"/>
<path d="M18.5439 15.7219C18.4407 15.7219 18.347 15.6844 18.272 15.6094C17.672 14.9906 17.072 14.7937 16.3782 15C16.1814 15.0562 15.9751 14.9437 15.9095 14.7469C15.8532 14.55 15.9657 14.3437 16.1626 14.2781C16.8282 14.0812 17.4564 14.1469 18.0376 14.4656C17.8501 13.5375 17.5314 12.9094 17.0439 12.525C16.8845 12.3937 16.8564 12.1594 16.9876 12C17.1189 11.8406 17.3532 11.8125 17.5126 11.9437C18.3001 12.5812 18.7501 13.65 18.9095 15.3094C18.9282 15.4687 18.8345 15.6187 18.6939 15.6844C18.647 15.7031 18.6001 15.7219 18.5439 15.7219Z" fill="white"/>
</g>
<defs>
<clipPath id="clip0_270_29539">
<rect width="24" height="24" fill="white"/>
</clipPath>
</defs>
</svg>
