<svg width="24" height="24" viewBox="0 0 24 24" fill="none" xmlns="http://www.w3.org/2000/svg">
<path d="M16.8657 8.18442C17.4376 7.67817 18.2157 7.37817 19.2001 7.28442L16.8657 8.18442Z" fill="#EA615D"/>
<path d="M4.99707 6.98439C6.13145 6.91876 7.06895 7.15314 7.80957 7.69689L4.99707 6.98439Z" fill="#EA615D"/>
<path d="M9.65615 22.1907C9.3374 21.5344 9.16865 20.8782 9.1499 20.2219L9.65615 22.1907Z" fill="#EA615D"/>
<path d="M15.0752 21.7125L15.5721 20.0062L15.0752 21.7125Z" fill="#EA615D"/>
<path d="M16.0498 18.5438C16.8654 15.7406 16.9686 13.8563 16.6311 11.1562L16.0498 18.5438Z" fill="#EA615D"/>
<path d="M22.425 10.0219C21.0469 15.2438 20.4844 20.5688 20.475 20.625C20.475 20.6438 20.4656 20.6625 20.4656 20.6813C20.0437 22.3219 18.8437 23.3813 17.4093 23.3813C16.5937 23.3813 15.8062 23.025 15.1406 22.3594C14.6437 23.1188 13.6969 24 12 24C10.4625 24 9.98435 23.5688 9.5156 22.7344C8.69998 23.2407 7.78123 23.5032 6.87185 23.5125C6.3656 23.5125 5.8781 23.4282 5.45623 23.25C5.02498 23.0813 4.64998 22.8282 4.3406 22.5094C3.71248 21.8532 3.4031 20.9156 3.44998 19.8C3.57185 17.2219 3.2156 16.1813 2.6906 14.5969C2.36248 13.6313 1.96873 12.4313 1.5656 10.5938C1.10623 8.45627 1.33123 6.80627 2.23123 5.69065C3.01873 4.71565 4.31248 4.2094 5.96248 4.2094C6.4781 4.2094 7.03123 4.25627 7.61248 4.3594C8.15623 3.11252 9.31873 2.24065 10.8562 1.9594C10.9781 1.94065 11.1094 1.97815 11.1937 2.0719C11.2781 2.16565 11.3156 2.28752 11.2875 2.41877C11.1281 3.1219 10.875 4.41565 10.5656 6.6469C10.5562 6.7219 10.5469 6.76878 10.5469 6.77815C10.5187 6.92815 10.3969 7.05002 10.2469 7.07815C9.4031 7.22815 8.88748 7.46252 8.4281 7.75315C8.88748 8.19377 9.27185 8.76565 9.56248 9.45003C10.5844 8.58753 11.7187 8.1469 12.9469 8.1469C13.8656 8.1469 14.8406 8.39065 15.8625 8.87815C16.0031 8.61565 16.1812 8.3719 16.3687 8.16565C15.6187 7.21877 14.4656 6.6844 12.8625 6.5344C12.7219 6.52502 12.5906 6.4219 12.5437 6.29065C12.1687 5.2594 12.7031 3.7219 13.2844 2.36252C13.3594 2.1844 13.5562 2.09065 13.7437 2.1469C15.15 2.58752 16.1343 3.46877 16.5 4.60315C16.9875 4.40627 17.5219 4.30315 18.075 4.30315C19.5656 4.30315 21.0281 5.02502 21.8812 6.1969C22.6781 7.25627 22.8656 8.62503 22.425 10.0219Z" fill="#EB573B"/>
<path d="M16.8657 8.55942C16.7626 8.55942 16.6595 8.51254 16.5845 8.42817C16.4439 8.26879 16.4626 8.03442 16.622 7.90317C17.2501 7.35004 18.1126 7.01254 19.1626 6.90942C19.3689 6.89067 19.5564 7.04067 19.5751 7.24692C19.5939 7.45317 19.4439 7.64067 19.2376 7.65942C18.3376 7.75317 17.6251 8.02505 17.1095 8.46567C17.0439 8.5313 16.9595 8.55942 16.8657 8.55942Z" fill="#DD4A36"/>
<path d="M7.80948 8.08124C7.73448 8.08124 7.65948 8.06249 7.58448 8.00624C6.91885 7.51874 6.05635 7.30312 5.01573 7.35937C4.80948 7.36874 4.63135 7.20937 4.62198 7.00312C4.6126 6.79687 4.77198 6.61874 4.97823 6.60937C6.19698 6.53437 7.21885 6.80624 8.03447 7.39687C8.20322 7.51874 8.24073 7.75312 8.11885 7.92187C8.03448 8.02499 7.92198 8.08124 7.80948 8.08124Z" fill="#DD4A36"/>
<path d="M17.1185 8.46563C16.8091 8.7375 16.556 9.08438 16.3872 9.50625C16.3497 9.6 16.2654 9.68437 16.1716 9.7125C16.0685 9.75 15.9654 9.74063 15.8716 9.69375C14.831 9.15 13.856 8.86875 12.956 8.86875C11.7466 8.86875 10.6685 9.35625 9.68412 10.3406C9.60912 10.4156 9.51537 10.4531 9.42162 10.4531C9.39349 10.4531 9.36537 10.4531 9.33724 10.4438C9.20599 10.4156 9.11224 10.3219 9.06537 10.2C8.71849 9.21563 8.23099 8.475 7.58412 8.00625C7.48099 7.93125 7.42474 7.81875 7.43412 7.69687C7.43412 7.575 7.49037 7.4625 7.59349 7.39688C8.16537 6.99375 8.77474 6.60938 9.85287 6.375C10.1622 4.21875 10.406 2.93438 10.5654 2.24062C10.8372 1.0125 11.0341 0.684375 11.1654 0.534375C11.5685 0.09375 12.2622 0 12.7779 0C12.8435 0 14.3622 0.00937499 14.606 0.65625C14.6997 0.909375 14.5872 1.20938 14.1935 2.12813C14.1279 2.2875 14.0529 2.45625 13.9779 2.63438C13.7154 3.2625 13.0404 4.85625 13.1997 5.80313C15.0185 6.02813 16.3591 6.75937 17.1841 7.9875C17.2872 8.12812 17.2591 8.34375 17.1185 8.46563Z" fill="#8FAE3C"/>
<path d="M9.65615 22.5657C9.51553 22.5657 9.38428 22.4907 9.31865 22.3594C8.97178 21.6563 8.79365 20.9438 8.7749 20.2313C8.7749 20.0251 8.93428 19.8563 9.14053 19.8469C9.34678 19.8376 9.51553 20.0063 9.5249 20.2126C9.53428 20.8126 9.69365 21.4219 9.99365 22.0313C10.0874 22.2188 10.0124 22.4438 9.8249 22.5376C9.76865 22.5563 9.7124 22.5657 9.65615 22.5657Z" fill="#DD4A36"/>
<path d="M15.0748 22.0875C15.0373 22.0875 15.0092 22.0781 14.9717 22.0687C14.7748 22.0125 14.6623 21.8062 14.7186 21.6L15.2155 19.8937C15.2717 19.6968 15.478 19.5843 15.6842 19.6406C15.8811 19.6968 15.9936 19.9031 15.9373 20.1093L15.4405 21.8156C15.3936 21.9843 15.2436 22.0875 15.0748 22.0875Z" fill="#DD4A36"/>
<path d="M16.0499 18.9187C16.0124 18.9187 15.9843 18.9093 15.9468 18.9C15.7499 18.8437 15.6374 18.6375 15.6937 18.4312C16.4718 15.7781 16.6124 13.95 16.2656 11.1937C16.2374 10.9875 16.3874 10.8 16.5937 10.7718C16.7999 10.7437 16.9874 10.8937 17.0156 11.1C17.3812 13.9781 17.2312 15.8812 16.4249 18.6468C16.3593 18.8062 16.2093 18.9187 16.0499 18.9187Z" fill="#DD4A36"/>
</svg>
