<svg width="24" height="24" viewBox="0 0 24 24" fill="none" xmlns="http://www.w3.org/2000/svg">
<g clip-path="url(#clip0_270_29499)">
<path d="M4.38743 18.9374C3.00931 18.9374 1.71556 18.6093 0.524935 17.9718C0.49681 17.9624 0.47806 17.9437 0.45931 17.9249C0.131185 17.6343 0.0936849 17.3156 0.12181 17.0906C0.243685 16.0781 2.04368 15.0843 2.40931 14.8968C4.00306 14.0624 6.41244 12.7968 7.48118 12.0281C9.60931 10.4812 11.1656 8.85931 12.4218 7.55618C13.8093 6.11243 14.9156 4.97806 16.1812 4.47181C16.3499 4.40618 16.5374 4.47181 16.6312 4.62181C16.7249 4.77181 16.7062 4.96868 16.5749 5.09993C15.6562 5.97181 14.7937 7.27493 13.7906 8.78431C12.5437 10.6687 10.9874 13.0218 8.70931 15.4312C8.01556 16.1624 6.74994 17.2499 4.72494 18.8531C4.65931 18.9093 4.57493 18.9374 4.49994 18.9374C4.46243 18.9374 4.42493 18.9374 4.38743 18.9374ZM0.918685 17.3343C1.97806 17.8968 3.14056 18.1874 4.35931 18.1874C5.60618 17.1843 7.31243 15.8062 8.16556 14.9062C10.3968 12.5437 11.9343 10.2281 13.1624 8.36243C13.5281 7.80931 13.8749 7.28431 14.2124 6.79681C13.8187 7.18118 13.3968 7.61243 12.9468 8.08118C11.6718 9.40306 10.0781 11.0531 7.90306 12.6374C6.78744 13.4343 4.34994 14.7187 2.73743 15.5624C2.00618 15.9468 0.899935 16.7249 0.85306 17.1749C0.85306 17.2031 0.85306 17.2593 0.918685 17.3343Z" fill="#829B34"/>
<path d="M16.3126 4.81873C14.1751 6.83435 12.5157 10.8562 8.43757 15.1687C7.62194 16.0218 6.04694 17.325 4.49069 18.5625C3.20632 18.5812 1.92194 18.3 0.703194 17.6437C-0.318681 16.7531 2.57819 15.2343 2.57819 15.2343C4.35007 14.3062 6.63757 13.0969 7.69694 12.3375C12.1032 9.12185 13.9782 5.74685 16.3126 4.81873Z" fill="#8FAE3C"/>
<path d="M1.16234 23.5499C1.09671 23.5499 1.03109 23.5312 0.974838 23.4937C0.543588 23.2405 0.431088 22.8843 0.412338 22.6312C0.327963 21.4218 2.26859 19.8374 2.65296 19.5374C3.16859 19.1343 3.71234 18.703 4.25609 18.2718C5.51234 17.2687 7.28421 15.8343 8.16546 14.9155C10.3967 12.553 11.9342 10.2374 13.1623 8.37178C14.1842 6.8249 15.0655 5.48428 16.0498 4.55615C17.0998 3.5624 18.2061 3.10303 19.5092 3.10303C19.5936 3.10303 19.678 3.10303 19.753 3.1124C19.8467 3.1124 19.9405 3.15928 20.0061 3.2249C20.1092 3.3374 20.1373 3.49678 20.0811 3.62803C20.053 3.69365 20.0061 3.7499 19.9498 3.7874C19.9123 3.81553 19.4717 4.14365 18.5998 5.08115C18.0842 5.63428 17.5217 6.29053 16.9311 7.0124C16.5561 7.47178 16.1623 7.97803 15.7592 8.50303C15.4217 8.95303 15.0561 9.43115 14.6623 9.99365C14.353 10.4249 14.0155 10.903 13.6686 11.3999C13.2467 12.0093 12.8061 12.6562 12.3561 13.3312C12.0655 13.7718 11.803 14.1749 11.5592 14.5499C11.1655 15.1499 10.8092 15.7124 10.4623 16.2655C10.2748 16.5655 10.078 16.8749 9.88109 17.1937C9.82484 17.2874 9.76859 17.3624 9.72171 17.428C9.53421 17.6812 9.32796 17.9249 9.08421 18.1687C8.71859 18.5249 8.28734 18.8624 7.76234 19.1999C7.38734 19.4437 6.95609 19.6874 6.40296 19.9687C6.06546 20.1374 5.72796 20.3062 5.39984 20.4655C5.06234 20.6343 4.71546 20.803 4.37796 20.9718C4.02171 21.1593 3.74046 21.3093 3.47796 21.4687C2.49359 22.0593 1.85609 22.6593 1.49984 23.353C1.45296 23.4468 1.36859 23.5124 1.27484 23.5405C1.22796 23.5405 1.19984 23.5499 1.16234 23.5499ZM18.6842 3.91865C17.9248 4.06865 17.2498 4.45303 16.5655 5.09053C15.6467 5.9624 14.7842 7.26553 13.7811 8.7749C12.5342 10.6593 10.978 13.0124 8.69984 15.4218C8.00609 16.153 6.74046 17.2405 4.71546 18.8437C4.17171 19.2749 3.61859 19.7062 3.11234 20.1187C2.32484 20.7374 1.26546 21.8249 1.16234 22.453C1.60296 21.8624 2.22171 21.328 3.08421 20.8124C3.35609 20.653 3.65609 20.4843 4.03109 20.2874C4.36859 20.1093 4.72484 19.9405 5.06234 19.7718C5.39046 19.6124 5.72796 19.453 6.05609 19.2843C6.59046 19.0124 6.99359 18.778 7.34984 18.553C7.82796 18.2437 8.22171 17.9437 8.54984 17.6155C8.76546 17.3999 8.94359 17.1937 9.11234 16.9687C9.15921 16.9124 9.19671 16.8468 9.25296 16.7624C9.44984 16.453 9.64671 16.1343 9.83421 15.8343C10.1811 15.2812 10.5467 14.7187 10.9405 14.1187C11.1842 13.7437 11.4467 13.3405 11.7467 12.8999C12.1967 12.2249 12.6373 11.5687 13.0686 10.9593C13.4248 10.453 13.7623 9.9749 14.0717 9.54365C14.4748 8.98115 14.8405 8.49365 15.1873 8.04365C15.5905 7.50928 15.9936 7.00303 16.3686 6.53428C16.9686 5.79365 17.5405 5.12803 18.0655 4.55615C18.2998 4.3124 18.5061 4.09678 18.6842 3.91865Z" fill="#829B34"/>
<path d="M19.7528 3.46867C19.7528 3.47804 19.7528 3.47804 19.7528 3.46867C19.7528 3.47804 19.7528 3.46867 19.7528 3.46867C19.7528 3.47804 19.7528 3.47804 19.7528 3.46867C19.7153 3.49679 19.256 3.83429 18.3372 4.81867C17.8872 5.29679 17.3247 5.94367 16.6497 6.76867C16.2935 7.20929 15.8997 7.70617 15.4778 8.26867C15.131 8.72804 14.7653 9.22492 14.3716 9.75929C14.0528 10.1999 13.7153 10.6687 13.3685 11.1749C12.956 11.7749 12.5153 12.4218 12.056 13.1062C11.7935 13.4999 11.531 13.903 11.2497 14.3249C10.8935 14.8687 10.5278 15.4405 10.1435 16.0405C9.95597 16.3405 9.75909 16.6499 9.56222 16.9687C9.51534 17.0437 9.46847 17.1187 9.41222 17.1843C9.23409 17.4374 9.02784 17.6624 8.81222 17.878C8.43722 18.2437 8.00597 18.5718 7.54659 18.8624C7.12472 19.1343 6.67472 19.378 6.21534 19.6124C5.54034 19.9593 4.84659 20.278 4.19034 20.6155C3.87159 20.7843 3.56222 20.9437 3.27159 21.1218C2.37159 21.6655 1.60284 22.2937 1.15284 23.1468C-0.290908 22.2937 2.87784 19.8093 2.87784 19.8093C3.38409 19.4062 3.93722 18.9749 4.48097 18.5343C6.02784 17.2968 7.60284 16.003 8.42784 15.1405C12.506 10.828 14.1653 6.80617 16.3028 4.79054C17.2778 3.90929 18.3372 3.41242 19.7528 3.46867Z" fill="#8FAE3C"/>
<path d="M4.05006 24C3.03756 24 2.02506 23.8406 1.05006 23.5312C0.946936 23.4937 0.862561 23.4187 0.815686 23.3156C0.778186 23.2125 0.778186 23.1 0.834436 22.9969C1.26569 22.1812 1.97819 21.4875 3.09381 20.8219C3.24381 20.7281 3.43131 20.7563 3.55319 20.8781C3.67506 21 3.69381 21.1875 3.60944 21.3375C3.54381 21.45 3.50631 21.5719 3.50631 21.7031C3.50631 22.0875 3.81569 22.3969 4.20006 22.3969C4.58444 22.3969 4.89381 22.0875 4.89381 21.7031C4.89381 21.3281 4.58444 21.0094 4.20944 21.0094C4.04069 21.0094 3.89069 20.8875 3.85319 20.7188C3.81569 20.55 3.89069 20.3813 4.05006 20.2969C4.38756 20.1187 4.74381 19.95 5.08131 19.7812C5.40944 19.6219 5.74694 19.4625 6.07506 19.2938C6.21569 19.2188 6.39381 19.2469 6.50631 19.3594C6.61881 19.4719 6.65631 19.6406 6.59069 19.7906C6.53444 19.9125 6.50631 20.0344 6.50631 20.175C6.50631 20.6812 6.91881 21.0938 7.42506 21.0938C7.66881 21.0938 7.90319 21 8.07194 20.8219C8.25006 20.6438 8.34381 20.4188 8.34381 20.1656C8.34381 19.6969 7.99694 19.3031 7.52819 19.2469C7.36881 19.2281 7.23756 19.1156 7.20944 18.9562C7.17194 18.7969 7.23756 18.6375 7.36881 18.5531C7.84694 18.2437 8.24069 17.9437 8.56881 17.6156C8.67194 17.5125 8.82194 17.4844 8.95319 17.5312C9.08444 17.5781 9.18756 17.7 9.20631 17.8406C9.29069 18.4781 9.83444 18.9562 10.4719 18.9562C11.1751 18.9562 11.7563 18.375 11.7563 17.6719C11.7563 16.9688 11.1844 16.3875 10.4719 16.3875C10.3876 16.3875 10.3126 16.3969 10.2376 16.4062C10.0876 16.4344 9.93756 16.3781 9.85319 16.2469C9.76881 16.125 9.76881 15.9562 9.84381 15.8344C10.1907 15.2812 10.5563 14.7188 10.9501 14.1188C11.0438 13.9688 11.2407 13.9125 11.4001 13.9781C11.5688 14.0438 11.6626 14.2125 11.6344 14.3906C11.6157 14.475 11.6157 14.5594 11.6157 14.6437C11.6157 15.45 12.2719 16.0969 13.0688 16.0969C13.8751 16.0969 14.5219 15.4406 14.5219 14.6344C14.5219 13.8281 13.8657 13.1813 13.0688 13.1813C12.7876 13.1813 12.5063 13.2656 12.2719 13.4156C12.1219 13.5094 11.9251 13.4906 11.8032 13.3688C11.6813 13.2469 11.6626 13.0406 11.7563 12.9C12.2063 12.225 12.6469 11.5688 13.0782 10.9594C13.1719 10.8188 13.3501 10.7625 13.5001 10.8188C13.6594 10.875 13.7626 11.0156 13.7532 11.1844C13.7532 11.2125 13.7532 11.2312 13.7532 11.2594C13.7532 11.9437 14.3063 12.4969 14.9907 12.4969C15.3282 12.4969 15.6376 12.3656 15.8719 12.1312C16.1063 11.8969 16.2376 11.5875 16.2376 11.25C16.2376 10.5656 15.6844 10.0125 15.0001 10.0125C14.8313 10.0125 14.6813 10.0406 14.5313 10.1063C14.3719 10.1719 14.1938 10.125 14.0907 9.99375C13.9876 9.8625 13.9876 9.675 14.0813 9.54375C14.4844 8.98125 14.8501 8.49375 15.1969 8.04375C15.2813 7.93125 15.4219 7.875 15.5626 7.90313C15.7032 7.93125 15.8157 8.03437 15.8532 8.16562C15.9563 8.50312 16.2657 8.72812 16.6126 8.72812C17.0532 8.72812 17.4094 8.37187 17.4094 7.93125C17.4094 7.50937 17.0813 7.1625 16.6594 7.14375C16.5188 7.13437 16.3969 7.05 16.3313 6.91875C16.2751 6.7875 16.2938 6.6375 16.3782 6.525C18.4969 3.90937 19.5094 3.17812 19.5469 3.15C19.6876 3.04687 19.8844 3.05625 20.0157 3.17813C20.1469 3.3 20.1751 3.4875 20.0907 3.64688C20.0626 3.69375 19.4251 4.8375 19.5094 7.88437C19.7626 10.5562 17.6626 15.0187 14.5032 18.5062C11.2876 22.0594 7.57506 24 4.05006 24ZM1.74381 22.95C2.50319 23.1469 3.27194 23.25 4.05006 23.25C8.52194 23.25 12.1594 19.9781 13.9313 18.0187C16.9219 14.7281 18.9938 10.3969 18.7501 7.95938C18.7501 7.95 18.7501 7.94062 18.7501 7.93125C18.7126 6.4875 18.8251 5.4375 18.9657 4.70625C18.5438 5.1375 18.0001 5.7375 17.3063 6.57187C17.8032 6.825 18.1407 7.35 18.1407 7.94062C18.1407 8.79375 17.4469 9.4875 16.6032 9.4875C16.1532 9.4875 15.7313 9.28125 15.4407 8.95312C15.3563 9.05625 15.2813 9.16875 15.1969 9.28125C16.2001 9.38438 16.9782 10.2375 16.9782 11.2594C16.9782 11.7937 16.7719 12.2906 16.3969 12.6656C16.0219 13.0406 15.5251 13.2469 14.9907 13.2469C14.9157 13.2469 14.8313 13.2469 14.7563 13.2375C15.0751 13.6219 15.2626 14.1094 15.2626 14.6437C15.2626 15.8625 14.2782 16.8563 13.0594 16.8563C12.7688 16.8563 12.4969 16.8 12.2438 16.6969C12.4032 16.9875 12.4969 17.3156 12.4969 17.6719C12.4969 18.7969 11.5876 19.7062 10.4719 19.7062C9.67506 19.7062 8.97194 19.2375 8.64381 18.5531C8.55006 18.6281 8.45631 18.7031 8.36256 18.7781C8.80319 19.0781 9.08444 19.5844 9.09381 20.1562C9.09381 20.6063 8.92506 21.0188 8.60631 21.3375C8.28756 21.6562 7.87506 21.825 7.42506 21.825C6.54381 21.825 5.82194 21.1406 5.75631 20.2781C5.64381 20.3344 5.52194 20.3906 5.40944 20.4469C5.31569 20.4938 5.22194 20.5406 5.12819 20.5781C5.44694 20.8406 5.64381 21.2437 5.64381 21.6844C5.64381 22.4813 4.99694 23.1281 4.20006 23.1281C3.47819 23.1281 2.88756 22.6031 2.77506 21.9188C2.33444 22.2656 1.99694 22.5938 1.74381 22.95ZM10.8282 15.6844C10.9407 15.7031 11.0438 15.7312 11.1563 15.7687C11.0907 15.6656 11.0344 15.5438 10.9969 15.4313C10.9407 15.5156 10.8844 15.6 10.8282 15.6844ZM13.0501 12.45C13.1719 12.45 13.2844 12.4594 13.3969 12.4781C13.3126 12.3656 13.2376 12.2438 13.1813 12.1219C13.1063 12.2344 13.0313 12.3469 12.9563 12.4594C12.9844 12.45 13.0219 12.45 13.0501 12.45Z" fill="#829B34"/>
<path d="M19.1157 7.9312C19.6126 12.9843 10.7157 26.2406 1.1626 23.1749C1.6126 22.3218 2.38135 21.6937 3.28135 21.15C3.17822 21.3093 3.12197 21.5062 3.12197 21.7125C3.12197 22.3031 3.6001 22.7812 4.19072 22.7812C4.78135 22.7812 5.25947 22.3031 5.25947 21.7125C5.25947 21.1218 4.79072 20.6531 4.2001 20.6437C4.85635 20.3062 5.5501 19.9874 6.2251 19.6406C6.1501 19.8093 6.10322 19.9874 6.10322 20.1843C6.10322 20.8968 6.68447 21.4781 7.39697 21.4781C8.10947 21.4781 8.69072 20.8968 8.69072 20.1843C8.69072 19.5187 8.18447 18.9749 7.54697 18.9C8.00635 18.6093 8.4376 18.2812 8.8126 17.9156C8.91572 18.7312 9.60947 19.3593 10.4532 19.3593C11.372 19.3593 12.1126 18.6187 12.1032 17.7C12.1032 16.7812 11.3626 16.0406 10.4438 16.0406C10.3407 16.0406 10.2376 16.0499 10.1345 16.0687C10.5095 15.4687 10.8845 14.8968 11.2407 14.3531C11.222 14.4562 11.2126 14.5593 11.2126 14.6718C11.2126 15.6843 12.0376 16.4999 13.0407 16.4999C14.0532 16.4999 14.8688 15.6749 14.8688 14.6624C14.8688 13.6499 14.0438 12.8343 13.0407 12.8343C12.6751 12.8343 12.3282 12.9468 12.047 13.1343C12.5063 12.4406 12.947 11.8031 13.3595 11.2031C13.3595 11.2312 13.3595 11.2593 13.3595 11.2875C13.3595 12.1781 14.0813 12.9 14.972 12.9C15.8626 12.9 16.5845 12.1781 16.5845 11.2781C16.5845 10.3875 15.8626 9.66558 14.972 9.66558C14.7563 9.66558 14.5501 9.71245 14.3626 9.78745C14.7563 9.2437 15.122 8.74683 15.4688 8.29683C15.6095 8.78433 16.0595 9.1312 16.5845 9.1312C17.2313 9.1312 17.747 8.6062 17.747 7.95933C17.747 7.3312 17.2501 6.82495 16.6313 6.79683C18.6751 4.26558 19.6688 3.53433 19.7251 3.49683C19.7157 3.53433 19.0313 4.72495 19.1157 7.9312Z" fill="#8FAE3C"/>
<path d="M5.25908 21.703C5.25908 22.2937 4.78096 22.7718 4.19033 22.7718C3.59971 22.7718 3.12158 22.2937 3.12158 21.703C3.12158 21.4968 3.17783 21.3093 3.28096 21.1405C3.57158 20.9624 3.88096 20.7937 4.19971 20.6343C4.79033 20.6437 5.25908 21.1124 5.25908 21.703Z" fill="#B7C536"/>
<path d="M8.69981 20.1656C8.69981 20.8781 8.11856 21.4593 7.40606 21.4593C6.69356 21.4593 6.1123 20.8781 6.1123 20.1656C6.1123 19.9687 6.1498 19.7906 6.23418 19.6218C6.69356 19.3875 7.14355 19.1437 7.56543 18.8718C8.19356 18.9562 8.69981 19.5 8.69981 20.1656Z" fill="#B7C536"/>
<path d="M12.1124 17.6812C12.1124 18.6 11.3718 19.3406 10.4624 19.3406C9.61865 19.3406 8.9249 18.7125 8.82178 17.8968C9.10303 17.625 9.35615 17.325 9.57178 16.9875C9.76865 16.6687 9.96553 16.3593 10.153 16.0593C10.2562 16.0406 10.3593 16.0312 10.4624 16.0312C11.3718 16.0218 12.1124 16.7718 12.1124 17.6812Z" fill="#B7C536"/>
<path d="M14.8872 14.6531C14.8872 15.6656 14.0716 16.4906 13.0591 16.4906C12.0466 16.4906 11.231 15.675 11.231 14.6625C11.231 14.5593 11.2403 14.4468 11.2591 14.3437C11.531 13.9218 11.8028 13.5187 12.0653 13.125C12.356 12.9375 12.6935 12.825 13.0591 12.825C14.0622 12.825 14.8872 13.6406 14.8872 14.6531Z" fill="#B7C536"/>
<path d="M16.6029 11.2687C16.6029 12.1594 15.8811 12.8906 14.9904 12.8906C14.0998 12.8906 13.3779 12.1688 13.3779 11.2781C13.3779 11.25 13.3779 11.2219 13.3779 11.1938C13.7248 10.6969 14.0623 10.2188 14.3811 9.77813C14.5686 9.70313 14.7748 9.65625 14.9904 9.65625C15.8717 9.65625 16.6029 10.3781 16.6029 11.2687Z" fill="#B7C536"/>
<path d="M17.7654 7.94058C17.7654 8.58745 17.2404 9.11245 16.6029 9.11245C16.0779 9.11245 15.6279 8.76558 15.4873 8.27808C15.9092 7.71558 16.3029 7.2187 16.6592 6.77808C17.2686 6.8062 17.7654 7.32183 17.7654 7.94058Z" fill="#B7C536"/>
<path d="M5.63408 21.703C5.63408 22.4999 4.98721 23.1468 4.19033 23.1468C3.39346 23.1468 2.74658 22.4999 2.74658 21.703C2.74658 21.4312 2.82158 21.1687 2.96221 20.9437C2.99033 20.8968 3.03721 20.8499 3.08408 20.8218C3.35596 20.653 3.65596 20.4937 4.03096 20.2968C4.08721 20.2687 4.14346 20.2593 4.20908 20.2593C4.99658 20.2687 5.63408 20.9155 5.63408 21.703Z" fill="#B7C536"/>
<path d="M9.07481 20.1656C9.07481 20.6156 8.90605 21.0281 8.5873 21.3469C8.26855 21.6656 7.85605 21.8344 7.40605 21.8344C6.4873 21.8344 5.7373 21.0844 5.7373 20.1656C5.7373 19.9219 5.78418 19.6875 5.8873 19.4719C5.9248 19.3969 5.98105 19.3313 6.05605 19.2938C6.58105 19.0219 6.99355 18.7875 7.3498 18.5625C7.4248 18.5156 7.50918 18.4969 7.59355 18.5062C8.4373 18.6094 9.07481 19.3219 9.07481 20.1656Z" fill="#B7C536"/>
<path d="M11.1562 15.7781C11.4 16.2 11.7844 16.5281 12.2438 16.7062C12.0094 16.275 11.6156 15.9468 11.1562 15.7781Z" fill="#B7C536"/>
<path d="M13.4062 12.478C13.725 12.8999 14.2031 13.1812 14.7562 13.2468C14.4187 12.8437 13.9406 12.5624 13.4062 12.478ZM11.1562 15.778C11.4 16.1999 11.7844 16.528 12.2438 16.7062C12.0094 16.2749 11.6156 15.9468 11.1562 15.778Z" fill="#B7C536"/>
<path d="M12.4876 17.6811C12.4876 18.8061 11.5782 19.7155 10.4626 19.7155C9.44072 19.7155 8.57822 18.9561 8.44697 17.9436C8.42822 17.8311 8.4751 17.7092 8.55948 17.6249C8.83135 17.353 9.06572 17.0811 9.25322 16.7811C9.4501 16.4624 9.64698 16.153 9.83448 15.853C9.89073 15.7686 9.9751 15.703 10.0782 15.6842C10.2001 15.6561 10.3313 15.6467 10.4626 15.6467C10.7063 15.6467 10.9407 15.6936 11.1563 15.7686C11.4001 16.1905 11.7845 16.5186 12.2439 16.6967C12.4032 16.9967 12.4876 17.3342 12.4876 17.6811Z" fill="#B7C536"/>
<path d="M14.9811 9.28125C14.7186 9.28125 14.4654 9.32812 14.2311 9.43125C14.1654 9.45937 14.1092 9.50625 14.0717 9.5625C13.7529 10.0031 13.4154 10.4719 13.0686 10.9781C13.0217 11.0344 13.0029 11.1094 13.0029 11.1844C13.0029 11.2125 13.0029 11.25 13.0029 11.2781C13.0029 11.7281 13.1529 12.15 13.4154 12.4875C13.7342 12.9094 14.2123 13.1906 14.7654 13.2562C14.8404 13.2656 14.9154 13.2656 14.9998 13.2656C15.5342 13.2656 16.0311 13.0594 16.4061 12.6844C16.7811 12.3094 16.9873 11.8031 16.9873 11.2781C16.9779 10.1719 16.0779 9.28125 14.9811 9.28125ZM15.8623 12.15C15.6279 12.3844 15.3186 12.5156 14.9811 12.5156V12.8906V12.5156C14.3061 12.5156 13.7623 11.9812 13.7436 11.3062C14.0436 10.875 14.3342 10.4625 14.6061 10.0875C14.7279 10.05 14.8498 10.0312 14.9811 10.0312C15.6654 10.0312 16.2186 10.5844 16.2186 11.2687C16.2279 11.6062 16.0967 11.9156 15.8623 12.15Z" fill="#B7C536"/>
<path d="M15.2623 14.6531C15.2623 15.8719 14.2779 16.8562 13.0592 16.8656C12.7686 16.8656 12.4967 16.8094 12.2436 16.7062C12.0092 16.275 11.6248 15.9469 11.1561 15.7781C10.9592 15.45 10.8561 15.0656 10.8467 14.6625C10.8467 14.5312 10.8561 14.4094 10.8842 14.2781C10.8936 14.2312 10.9123 14.1844 10.9404 14.1375C11.1842 13.7625 11.4467 13.3594 11.7467 12.9187C11.7748 12.8812 11.8123 12.8437 11.8498 12.8156C12.2061 12.5812 12.6186 12.4594 13.0498 12.4594C13.1717 12.4594 13.2842 12.4687 13.4061 12.4875C13.7248 12.9094 14.2029 13.1906 14.7561 13.2562C15.0654 13.6312 15.2623 14.1187 15.2623 14.6531Z" fill="#B7C536"/>
<path d="M16.5938 9.48743C15.9187 9.48743 15.3094 9.03743 15.1125 8.38118C15.075 8.26868 15.1031 8.1468 15.1687 8.04368C15.5719 7.5093 15.975 7.00305 16.35 6.5343C16.425 6.44055 16.5375 6.39368 16.6594 6.39368C17.4844 6.43118 18.1312 7.10618 18.1312 7.93118C18.1406 8.79368 17.4469 9.48743 16.5938 9.48743ZM15.9094 8.3343C16.05 8.57805 16.3125 8.73743 16.6031 8.73743V9.11243V8.73743C17.0438 8.73743 17.3906 8.38118 17.3906 7.94055C17.3906 7.57493 17.1469 7.26555 16.8094 7.18118C16.5188 7.5468 16.2187 7.93118 15.9094 8.3343Z" fill="#B7C536"/>
<path d="M22.1437 3.87183C22.05 3.87183 21.9656 3.86245 21.8812 3.82495C21.8343 3.8062 21.7968 3.78745 21.7593 3.75933C21.7312 3.7312 21.15 3.23433 20.9625 2.54058C20.4656 2.97183 20.0906 3.63745 20.0812 3.6562C19.9781 3.83433 19.7531 3.89995 19.575 3.8062C19.3968 3.70308 19.3312 3.47808 19.425 3.29995C19.7437 2.7187 20.325 1.95933 21.0093 1.61245C21.2812 0.928078 22.0875 0.384328 23.4187 0.018703C23.6156 -0.037547 23.8218 0.074953 23.8781 0.281203C23.9343 0.478078 23.8218 0.684328 23.6156 0.740578C22.9031 0.937453 22.3593 1.19058 22.0312 1.46245C22.1343 1.49058 22.2281 1.5187 22.3312 1.57495C23.2125 2.0062 23.2968 2.70933 23.1 3.18745C22.9312 3.60933 22.5375 3.87183 22.1437 3.87183ZM21.6562 2.18433C21.675 2.55933 21.975 2.9437 22.1718 3.12183C22.2562 3.11245 22.3593 3.0187 22.4156 2.89683C22.5187 2.65308 22.3687 2.42808 22.0031 2.24995C21.8906 2.18433 21.7687 2.17495 21.6562 2.18433Z" fill="#829B34"/>
</g>
<defs>
<clipPath id="clip0_270_29499">
<rect width="24" height="24" fill="white"/>
</clipPath>
</defs>
</svg>
