<svg width="24" height="24" viewBox="0 0 24 24" fill="none" xmlns="http://www.w3.org/2000/svg">
<g clip-path="url(#clip0_244_32127)">
<path d="M22.8938 10.0125C22.2938 11.0438 21.8156 12.3281 21.2625 13.8187C20.4656 15.9562 19.5656 18.375 18.0188 20.775C16.7156 22.8 13.9313 24 10.575 24C7.47188 24 4.48125 22.9594 2.57813 21.2062L2.56875 21.1969C1.45313 20.0906 0.0937513 16.4156 0.506251 13.1719C0.918751 9.9 3.99375 6.79688 5.9625 5.91562C6.8625 5.5125 7.39688 4.78125 7.96875 4.00313C8.49375 3.28125 9.04688 2.53125 9.90938 2.03438C11.325 1.20938 15 0 17.5031 0C17.925 0 18.3 0.0375 18.6188 0.103125C20.5125 0.515625 20.9531 1.2375 21.5063 2.14687C21.6375 2.3625 21.7688 2.5875 21.9375 2.82188C22.7813 4.04063 24.5531 7.15313 22.8938 10.0125Z" fill="#E4C074"/>
<path d="M2.45625 9.88126C2.34375 9.88126 2.24063 9.83438 2.16563 9.74063C2.03438 9.58125 2.0625 9.34688 2.22188 9.21563C4.41563 7.41563 6.6 7.06875 8.7 8.16563C8.8875 8.25938 8.95313 8.48438 8.85938 8.67188C8.76563 8.85938 8.54063 8.925 8.35313 8.83125C6.51563 7.86563 4.66875 8.18438 2.69063 9.79688C2.625 9.85313 2.54063 9.88126 2.45625 9.88126Z" fill="#D1A962"/>
<path d="M20.2687 15.7594C20.2406 15.7594 20.2125 15.7594 20.1937 15.75C19.9875 15.7032 19.8656 15.5063 19.9031 15.3C20.2781 13.5657 19.6219 11.7844 17.9531 10.0125C17.8125 9.86254 17.8219 9.62816 17.9719 9.47816C18.1219 9.33754 18.3562 9.34691 18.5062 9.49691C20.3531 11.4563 21.075 13.4625 20.6437 15.4594C20.5969 15.6375 20.4375 15.7594 20.2687 15.7594Z" fill="#D1A962"/>
<path d="M22.9031 6.01877C22.7719 6.01877 22.6406 5.94377 22.575 5.8219C21.5062 3.7969 19.4156 2.84065 16.1812 2.8969C15.975 2.90627 15.8062 2.73753 15.7969 2.53128C15.7875 2.32503 15.9562 2.15628 16.1625 2.1469C19.6594 2.08128 22.0312 3.1969 23.2312 5.46565C23.325 5.65315 23.2594 5.87815 23.0719 5.9719C23.025 6.00003 22.9687 6.01877 22.9031 6.01877Z" fill="#D1A962"/>
<path d="M5.16562 12.1781C5.01562 12.1781 4.875 12.0937 4.81875 11.9437C4.74375 11.7562 4.82812 11.5312 5.025 11.4562C6.64687 10.7812 8.08125 10.6969 9.38437 11.175C9.58125 11.25 9.675 11.4656 9.60937 11.6531C9.53437 11.85 9.31875 11.9437 9.13125 11.8781C8.00625 11.4656 6.75937 11.55 5.31562 12.15C5.26875 12.1687 5.2125 12.1781 5.16562 12.1781Z" fill="#D1A962"/>
<path d="M16.8469 16.7813C16.8281 16.7813 16.8 16.7813 16.7812 16.7719C16.575 16.7344 16.4437 16.5375 16.4812 16.3407C16.5656 15.8438 16.5094 15.4594 16.2937 15.1688C15.9937 14.7657 15.3562 14.4938 14.4094 14.3719C14.2031 14.3438 14.0625 14.1563 14.0812 13.95C14.1094 13.7438 14.2969 13.5938 14.5031 13.6219C15.6844 13.7719 16.4625 14.1282 16.8937 14.7094C17.2312 15.1688 17.3437 15.7594 17.2219 16.4532C17.1844 16.6594 17.025 16.7813 16.8469 16.7813Z" fill="#D1A962"/>
<path d="M7.95937 12.7687C7.85625 12.7687 7.7625 12.7312 7.6875 12.6468C7.51875 12.4687 7.35937 12.375 7.20937 12.375C7.05937 12.375 6.88125 12.4687 6.68437 12.6562C6.53437 12.8062 6.3 12.8062 6.15 12.6562C6 12.5062 6 12.2719 6.15 12.1219C6.4875 11.7844 6.85312 11.6156 7.20937 11.6156C7.56562 11.625 7.90312 11.7937 8.22187 12.1312C8.3625 12.2812 8.35312 12.5156 8.20312 12.6656C8.14687 12.7406 8.05312 12.7687 7.95937 12.7687Z" fill="#D1A962"/>
<path d="M16.1813 16.2751C16.1719 16.2751 16.1625 16.2751 16.1437 16.2751C15.4969 16.2188 15.0375 15.8532 14.8031 15.2157C14.7281 15.0188 14.8313 14.8032 15.0281 14.7375C15.225 14.6625 15.4406 14.7657 15.5062 14.9626C15.6375 15.3282 15.8531 15.4969 16.2094 15.5344C16.4156 15.5532 16.5656 15.7313 16.5469 15.9375C16.5375 16.125 16.3688 16.2751 16.1813 16.2751Z" fill="#D1A962"/>
<path d="M17.9625 7.87504C17.8219 7.87504 17.6906 7.80004 17.625 7.66879C17.1844 6.76879 16.3125 6.11254 15.0469 5.70942C14.85 5.64379 14.7375 5.43754 14.8031 5.24067C14.8687 5.04379 15.075 4.93129 15.2719 4.99692C16.7437 5.46567 17.7656 6.25317 18.3 7.34067C18.3937 7.52817 18.3187 7.75317 18.1312 7.84692C18.075 7.86567 18.0187 7.87504 17.9625 7.87504Z" fill="#D1A962"/>
<path d="M17.9625 6.66566C17.7938 6.66566 17.6437 6.55316 17.5969 6.38441C17.4937 6.00004 17.2219 5.71879 16.7531 5.54066C16.5562 5.46566 16.4625 5.25004 16.5375 5.05316C16.6125 4.85629 16.8281 4.76254 17.025 4.83754C17.7188 5.10941 18.1594 5.56879 18.3187 6.19691C18.375 6.39379 18.2531 6.60004 18.0469 6.65629C18.0188 6.66566 17.9906 6.66566 17.9625 6.66566Z" fill="#D1A962"/>
<path d="M11.9438 6.0938C11.4188 6.0938 10.9125 5.8313 10.7063 5.43755C10.5469 5.13755 10.5563 4.79067 10.7531 4.49067C11.0438 4.0313 11.5969 3.7688 12.2438 3.7688C12.4219 3.7688 12.75 3.78755 12.9656 3.94692C13.2375 4.1438 13.3219 4.58442 13.275 4.9313C13.2188 5.42817 12.9281 5.81255 12.4875 5.99067C12.3188 6.0563 12.1406 6.0938 11.9438 6.0938ZM12.2438 4.5188C11.9438 4.5188 11.5688 4.62192 11.3906 4.90317C11.3344 4.99692 11.3438 5.0438 11.3719 5.0813C11.4469 5.21255 11.6813 5.3438 11.9531 5.3438C12.0469 5.3438 12.1406 5.32505 12.2156 5.29692C12.3656 5.24067 12.4594 5.12817 12.5156 4.9688C12.5719 4.79067 12.5438 4.62192 12.5156 4.5563C12.4594 4.53755 12.3656 4.5188 12.2438 4.5188Z" fill="#D1A962"/>
<path d="M4.36875 19.2375C3.91875 19.2375 3.55312 18.975 3.35625 18.5063C3.15937 18.0282 3.16875 17.325 3.525 16.9594C3.75 16.7344 4.125 16.6125 4.56562 16.6125C5.11875 16.6125 5.85937 16.8282 6.13125 17.4188C6.31875 17.8219 6.24375 18.1407 6.14062 18.3282C5.93437 18.7407 5.42812 19.0313 4.60312 19.2C4.52812 19.2375 4.44375 19.2375 4.36875 19.2375ZM4.575 17.3719C4.29375 17.3719 4.11562 17.4469 4.05937 17.5032C3.98437 17.5782 3.92812 17.9344 4.05 18.2344C4.1625 18.4969 4.3125 18.4969 4.36875 18.4969C4.39687 18.4969 4.43437 18.4969 4.4625 18.4875C5.26875 18.3188 5.44687 18.0844 5.48437 18.0094C5.49375 17.9813 5.53125 17.9157 5.45625 17.7469C5.35312 17.5313 4.9875 17.3719 4.575 17.3719Z" fill="#D1A962"/>
<path d="M10.125 22.4157C10.0031 22.4157 9.88125 22.35 9.80625 22.2375C9.45938 21.6844 8.99063 21.525 8.24063 21.6938C8.03438 21.7407 7.8375 21.6188 7.79062 21.4125C7.74375 21.2063 7.86562 21.0094 8.07187 20.9625C9.12188 20.7188 9.91875 21.0094 10.4438 21.8344C10.5563 22.0125 10.5 22.2375 10.3312 22.35C10.2656 22.3969 10.1906 22.4157 10.125 22.4157Z" fill="#D1A962"/>
<path d="M13.2562 21.4312C13.0687 21.4312 12.8812 21.3843 12.7312 21.3C12.3844 21.1031 12.15 20.5968 12.2062 20.1562C12.2531 19.8 12.4781 19.5281 12.8156 19.4343C12.9187 19.4062 13.0219 19.3875 13.125 19.3875C13.7906 19.3875 14.2406 20.0062 14.2406 20.5781C14.2406 20.8406 14.1187 21.075 13.8937 21.2343C13.7062 21.3656 13.4906 21.4312 13.2562 21.4312ZM13.1156 20.1375C13.0875 20.1375 13.05 20.1468 13.0125 20.1562C12.975 20.1656 12.9469 20.175 12.9469 20.25C12.9281 20.4187 13.0406 20.6156 13.0969 20.6531C13.1906 20.7 13.3687 20.6906 13.4531 20.6343C13.4812 20.6156 13.4812 20.5968 13.4812 20.5875C13.4812 20.4 13.3406 20.1375 13.1156 20.1375Z" fill="#D1A962"/>
<path d="M0.796875 14.6156C0.628125 14.6156 0.46875 14.4938 0.43125 14.3156C0.384375 14.1094 0.515625 13.9125 0.721875 13.875C1.09688 13.7906 1.575 13.6031 1.6875 13.1625C1.79063 12.75 1.55625 12.2156 1.07813 11.8125C0.91875 11.6813 0.9 11.4375 1.04063 11.2875C1.17188 11.1281 1.41563 11.1094 1.56563 11.25C2.26875 11.85 2.5875 12.6563 2.40938 13.3594C2.31563 13.725 1.9875 14.3813 0.88125 14.625C0.853125 14.6156 0.825 14.6156 0.796875 14.6156Z" fill="#D1A962"/>
<path d="M22.4531 9.90002C21.7406 9.90002 21.4031 9.49689 21.3281 9.11252C21.1875 8.40002 21.8344 7.43439 23.1094 7.13439C23.3063 7.08752 23.5125 7.20939 23.5594 7.41564C23.6063 7.61252 23.4844 7.81877 23.2781 7.86564C22.3781 8.08127 22.0031 8.70002 22.0594 8.97189C22.0969 9.15939 22.4062 9.17814 22.6781 9.13127C22.8844 9.10314 23.0719 9.24377 23.1094 9.44064C23.1375 9.64689 22.9969 9.83439 22.8 9.87189C22.6687 9.89064 22.5562 9.90002 22.4531 9.90002Z" fill="#D1A962"/>
</g>
<defs>
<clipPath id="clip0_244_32127">
<rect width="24" height="24" fill="white"/>
</clipPath>
</defs>
</svg>
