<svg width="24" height="24" viewBox="0 0 24 24" fill="none" xmlns="http://www.w3.org/2000/svg">
<g clip-path="url(#clip0_454_46319)">
<path d="M15.4781 6.69395C15.4219 6.76895 15.3469 6.81582 15.2625 6.83458C15.2531 6.83458 15.2344 6.84395 15.225 6.84395C14.7844 6.90957 14.3719 7.0127 13.9687 7.11583C13.8562 7.14395 13.7531 7.17208 13.6406 7.2002C13.05 7.34083 12.5437 7.43458 11.9906 7.43458C11.3437 7.43458 10.7625 7.30332 10.1156 7.14395L10.0125 7.11583C9.45937 6.9752 8.88749 6.83458 8.23124 6.7877C8.13749 6.77833 8.05312 6.74082 7.98749 6.6752C7.06874 5.7002 6.84374 4.78145 7.33124 3.95645C7.38749 3.8627 7.48124 3.79708 7.58437 3.77833C7.68749 3.75957 7.79999 3.7877 7.88437 3.85332C8.64374 4.45332 9.42187 4.67833 10.2844 4.52833C10.5656 1.6877 11.6719 0.1877 13.5844 0.0658249C13.725 0.0564499 13.8562 0.122075 13.9312 0.24395L14.6531 1.4252C14.7281 1.5377 14.7281 1.6877 14.6625 1.80957C14.5969 1.93145 14.4656 1.99707 14.3344 1.99707H14.3156C13.4062 1.99707 13.0312 2.67208 12.8906 3.08458C12.6656 3.74083 12.7781 4.3502 12.9656 4.5002C13.1344 4.63145 13.3125 4.69707 13.5281 4.69707C13.9594 4.69707 14.475 4.43458 14.9437 3.9752C15.0469 3.88145 15.1875 3.84395 15.3187 3.88145C15.45 3.91895 15.5531 4.03145 15.5719 4.1627C15.6 4.28457 15.6187 4.39707 15.6469 4.50957C15.8062 5.29707 15.9656 6.0377 15.4781 6.69395Z" fill="#8FAE3C"/>
<path d="M23.4843 17.6345C22.7625 20.9439 19.6781 22.5189 16.35 23.1658C15.4406 23.3439 14.5218 23.447 13.6218 23.5033C13.0968 23.5314 12.5812 23.5501 12.0843 23.5501C11.4937 23.5501 10.875 23.5314 10.2468 23.4845C9.83433 23.4564 9.41246 23.4095 8.99996 23.3533C8.78433 23.3251 8.57808 23.297 8.37183 23.2595C4.83746 22.6783 1.45308 21.122 0.693709 17.6251C-0.337541 12.8814 2.41871 7.81889 5.55933 6.77827C6.67496 6.41264 7.57496 6.33764 8.36246 6.39389C9.08433 6.44076 9.70308 6.60951 10.3031 6.75014C10.9031 6.90014 11.475 7.03139 12.0937 7.03139C12.6375 7.03139 13.1437 6.92826 13.6593 6.80639C14.175 6.68451 14.6906 6.54389 15.2718 6.45014C15.5531 6.40327 15.8531 6.37514 16.1718 6.37514C16.875 6.36576 17.6718 6.45952 18.6281 6.77827C21.7593 7.82827 24.525 12.9001 23.4843 17.6345Z" fill="#F79932"/>
<path d="M12 23.9347C11.3719 23.9347 10.7438 23.9159 10.1344 23.869C9.69376 23.8409 9.27188 23.794 8.85938 23.7378C8.62501 23.7097 8.41876 23.6722 8.21251 23.644C8.20313 23.644 8.20313 23.644 8.19376 23.644C3.65626 22.9034 0.900006 20.8503 0.225006 17.7284C-0.871869 12.6753 2.08126 7.51904 5.35313 6.44092C6.21563 6.15967 7.01251 6.01904 7.80001 6.01904C7.96876 6.01904 8.13751 6.02842 8.29688 6.03779C9.00938 6.08467 9.61876 6.23467 10.2 6.38467L10.3031 6.41279C10.9219 6.56279 11.4469 6.68467 12 6.68467C12.4781 6.68467 12.9375 6.60029 13.4719 6.46904C13.575 6.44092 13.6875 6.41279 13.7906 6.39404C14.2031 6.29092 14.6344 6.18779 15.1031 6.11279C15.1125 6.11279 15.1125 6.11279 15.1125 6.11279C15.4406 6.06592 15.75 6.03779 16.0594 6.02842C16.1063 6.02842 16.1438 6.02842 16.1906 6.02842C16.9781 6.02842 17.775 6.16904 18.6375 6.45029C21.9094 7.52842 24.8531 12.694 23.7563 17.7284C23.1 20.719 20.5313 22.7347 16.3313 23.5503C15.4688 23.719 14.5406 23.8315 13.575 23.8972C13.5656 23.8972 13.5563 23.8972 13.5469 23.8972C13.05 23.9159 12.5156 23.9347 12 23.9347ZM8.35313 22.9034C8.54063 22.9315 8.73751 22.9597 8.96251 22.9878C9.35626 23.044 9.76875 23.0815 10.1906 23.1097C11.2688 23.194 12.3938 23.194 13.5 23.1284C13.5094 23.1284 13.5188 23.1284 13.5281 23.1284C14.4656 23.0722 15.375 22.9597 16.2094 22.8003C18.9188 22.2753 22.3125 20.9347 23.0438 17.5597C24.0469 12.9659 21.3375 8.10967 18.4219 7.15342C17.6438 6.90029 16.9219 6.76904 16.2094 6.76904C16.1719 6.76904 16.1344 6.76904 16.0875 6.76904C15.8156 6.76904 15.5344 6.79717 15.2438 6.84404H15.2344C14.7938 6.90967 14.3813 7.01279 13.9781 7.11592C13.8656 7.14404 13.7625 7.17217 13.65 7.20029C13.0594 7.34092 12.5531 7.43467 12 7.43467C11.3531 7.43467 10.7719 7.30342 10.125 7.14404L10.0219 7.11592C9.46876 6.97529 8.89688 6.83467 8.24063 6.78779C8.09063 6.77842 7.94063 6.76904 7.79063 6.76904C7.07813 6.76904 6.35626 6.89092 5.57813 7.15342C2.66251 8.10967 -0.0468695 12.9659 0.956256 17.5597C1.72501 21.1034 5.39063 22.4159 8.33438 22.9034C8.34376 22.9034 8.35313 22.9034 8.35313 22.9034Z" fill="#F2872F"/>
<path d="M8.91571 23.7378C8.90633 23.7378 8.89696 23.7378 8.88758 23.7378C7.43446 23.6253 6.13133 22.9035 5.11883 21.6378C4.20008 20.4941 3.55321 18.9753 3.24383 17.241C2.53133 13.2378 3.75946 8.04408 8.11883 6.06595C8.30633 5.98158 8.53133 6.06595 8.61571 6.25345C8.70008 6.44095 8.61571 6.66595 8.42821 6.75033C4.43446 8.5597 3.31883 13.3878 3.97508 17.1003C4.56571 20.4847 6.51571 22.791 8.94383 22.9785C9.15008 22.9972 9.30008 23.1753 9.29071 23.3816C9.27196 23.5878 9.10321 23.7378 8.91571 23.7378Z" fill="#F2872F"/>
<path d="M15.4219 23.6907C15.225 23.6907 15.0657 23.5407 15.0469 23.3438C15.0282 23.1375 15.1875 22.9594 15.3938 22.9407C17.8219 22.7532 19.7719 20.4469 20.3719 17.0532C21.0188 13.35 19.9125 8.54066 15.9188 6.73128C15.7313 6.64691 15.6469 6.42191 15.7313 6.23441C15.8157 6.04691 16.0407 5.96253 16.2282 6.04691C20.5782 8.01566 21.8063 13.2 21.1032 17.1844C20.7938 18.9188 20.1469 20.4469 19.2282 21.5813C18.2063 22.8469 16.9032 23.5688 15.45 23.6813C15.45 23.6907 15.4407 23.6907 15.4219 23.6907Z" fill="#F2872F"/>
<path d="M10.1626 23.8598C10.0969 23.8598 10.0407 23.841 9.97505 23.8129C7.99693 22.6879 7.04068 17.1098 7.38755 12.6098C7.53755 10.6223 8.09068 7.18163 10.0782 6.42226C10.2751 6.34726 10.4907 6.44101 10.5657 6.63788C10.6407 6.83476 10.5469 7.05038 10.3501 7.12538C9.19693 7.56601 8.37193 9.63788 8.13756 12.6754C7.79068 17.2316 8.8688 22.3316 10.3501 23.166C10.5282 23.2691 10.5938 23.4941 10.4907 23.6816C10.4157 23.7941 10.2938 23.8598 10.1626 23.8598Z" fill="#F2872F"/>
<path d="M13.5375 23.8878C13.4063 23.8878 13.2844 23.8222 13.2094 23.7003C13.1063 23.5222 13.1719 23.2878 13.35 23.1847C14.8594 22.3315 15.9469 17.194 15.6 12.619C15.3657 9.60028 14.5782 7.62216 13.425 7.18153C13.2282 7.10653 13.1344 6.89091 13.2094 6.69403C13.2844 6.49716 13.5 6.40341 13.6969 6.47841C15.6657 7.22841 16.2094 10.6128 16.3594 12.5628C16.5282 14.794 16.3688 17.2878 15.9282 19.4159C15.5813 21.0659 14.925 23.1659 13.7344 23.8409C13.6688 23.869 13.6032 23.8878 13.5375 23.8878Z" fill="#F2872F"/>
</g>
<defs>
<clipPath id="clip0_454_46319">
<rect width="24" height="24" fill="white"/>
</clipPath>
</defs>
</svg>
