<svg width="20" height="20" viewBox="0 0 20 20" fill="none" xmlns="http://www.w3.org/2000/svg">
<g clip-path="url(#clip0_602_36246)">
<path d="M5.68763 18.0705C5.36731 19.1799 4.21888 19.6877 3.297 19.6877C3.13294 19.6877 2.89856 19.6721 2.71106 19.5783C2.39856 19.4221 2.22669 19.1564 2.08606 18.9455C2.03919 18.8674 1.96106 18.758 1.922 18.7267C1.84388 18.7346 1.672 18.7971 1.547 18.8439C1.27356 18.9377 0.968877 19.0549 0.687627 19.0549C0.523564 19.0549 0.398564 19.0158 0.304814 18.9689C0.211064 18.9142 0.140752 18.8517 0.0938765 18.7892C-0.171749 18.4455 0.148564 17.9299 0.961064 16.6799C1.53919 15.7892 2.6095 14.1408 2.3595 13.7033C2.25794 13.5236 2.15638 13.2658 2.06263 12.9377C2.02356 12.8049 2.08606 12.6564 2.20325 12.5861C2.32044 12.5158 2.47669 12.5314 2.57825 12.633C2.96888 13.008 3.36731 13.1877 3.797 13.1877C4.172 13.1877 4.57825 13.0471 5.01575 12.7814C5.11731 12.7189 5.24231 12.7189 5.34388 12.7814C5.44544 12.8439 5.50013 12.9533 5.49231 13.0783C5.39856 14.1174 5.52356 15.0939 5.64075 15.9533C5.75013 16.7814 5.84388 17.5158 5.68763 18.0705Z" fill="#F68455"/>
<path d="M1.88299 17.8282C1.81268 17.8282 1.74237 17.8047 1.67987 17.7579C1.54705 17.6485 1.53143 17.4532 1.6408 17.3204C2.21893 16.6172 2.44549 16.2344 2.5783 15.7422C2.62518 15.5782 2.78924 15.4766 2.96112 15.5157C3.12518 15.5626 3.22674 15.7266 3.18768 15.8985C3.0158 16.5704 2.69549 17.0391 2.12518 17.7188C2.06268 17.7891 1.97674 17.8282 1.88299 17.8282Z" fill="#E26F47"/>
<path d="M3.2734 18.617C3.12496 18.617 2.99996 18.5155 2.96871 18.367C2.93746 18.1952 3.04684 18.0311 3.2109 17.9999C4.03902 17.8358 4.24996 17.3514 4.10934 15.9139C4.09371 15.742 4.21871 15.5858 4.39059 15.5702C4.56246 15.5545 4.71871 15.6795 4.73434 15.8514C4.85152 17.078 4.84371 18.3045 3.3359 18.6092C3.31246 18.617 3.29684 18.617 3.2734 18.617Z" fill="#E26F47"/>
<path d="M15.0234 1.39062C15.0156 1.51562 14.9375 1.61719 14.8203 1.66406C12.8672 2.40625 11.4531 3.71875 10.9375 5.28125C10.6406 6.17188 10.6953 7.03906 11.0703 7.64844C11.1094 7.70312 11.1328 7.76563 11.1328 7.83594C11.1328 8.00781 10.9922 8.14844 10.8203 8.14844H10.8125C10.7734 8.14844 10.7265 8.14062 10.6875 8.125C10.6484 8.10938 10.6172 8.09375 10.5781 8.07812C10.0234 7.86719 9.42967 7.84375 8.85936 8.00781C8.74217 8.03906 8.61717 8 8.53905 7.91406C6.70311 5.76562 6.39061 3.4375 7.60936 1C7.64842 0.921875 7.71873 0.859375 7.80467 0.835938C8.99998 0.492187 10.2422 0.3125 11.4062 0.3125C12.539 0.3125 13.5312 0.484375 14.3359 0.828125C14.3437 0.828125 14.3437 0.835938 14.3515 0.835938C14.5234 0.914062 14.6953 1.00781 14.8672 1.10156C14.9687 1.15625 15.0312 1.27344 15.0234 1.39062Z" fill="#F68455"/>
<path d="M19.9298 9.66406C19.5548 11.1641 18.8282 11.8906 17.2501 12.3516C16.586 12.5469 16.0548 12.6328 15.5782 12.6328C14.7345 12.6328 14.047 12.3437 13.4923 11.75C13.1564 11.3906 12.9064 10.9062 12.6407 10.3906C12.547 10.2109 12.4532 10.0312 12.3517 9.85156C12.3048 9.76562 12.297 9.66406 12.336 9.57031C13.3829 7.20313 15.2579 5.79688 17.3595 5.79688C17.961 5.79688 18.5782 5.90625 19.2032 6.13281C19.2892 6.16406 19.3517 6.22656 19.3907 6.3125C19.9064 7.60156 20.1173 8.91406 19.9298 9.66406Z" fill="#F68455"/>
<path d="M7.47656 8.81267C7.03125 9.21892 6.63281 9.74235 6.29688 10.3752C6.25781 10.4455 6.19531 10.5002 6.125 10.5236C5.51562 10.7267 4.92969 10.8361 4.38281 10.8361C3.45312 10.8361 2.59375 10.5392 1.82031 9.9611C1.74219 9.8986 1.69531 9.81267 1.69531 9.7111C1.70312 8.29704 1.90625 6.23454 2.85937 4.45329C2.91406 4.34392 3.03125 4.28142 3.14844 4.28923C3.26562 4.29704 3.375 4.36735 3.42187 4.48454C4.21875 6.4611 5.42969 7.63298 7.36719 8.28923C7.46875 8.32829 7.54687 8.41423 7.57031 8.5236C7.59375 8.62517 7.55469 8.74235 7.47656 8.81267Z" fill="#F68455"/>
<path d="M9.08623 7.80454C9.05498 7.9061 8.97686 7.98423 8.87529 8.01548C8.38311 8.1561 7.91436 8.42173 7.47686 8.82017C7.42217 8.87485 7.34405 8.89829 7.26592 8.89829C7.23467 8.89829 7.19561 8.89048 7.16436 8.88266C5.04717 8.1561 3.71123 6.87485 2.84405 4.7186C2.8128 4.63267 2.81279 4.53892 2.85967 4.45298C3.47686 3.29673 4.32061 2.42954 5.3753 1.86704C6.02373 1.4686 6.86748 1.10923 7.8128 0.83579C7.92998 0.80454 8.06279 0.843603 8.14092 0.937353C8.21904 1.0311 8.23467 1.16392 8.17998 1.27329C7.06279 3.49985 7.34404 5.53892 9.03154 7.50767C9.09405 7.58579 9.11748 7.69517 9.08623 7.80454Z" fill="#E26F47"/>
<path d="M19.4218 6.42993C19.4218 6.6018 19.2812 6.74243 19.1093 6.74243C19.0703 6.74243 19.039 6.73461 18.9999 6.7268C18.4452 6.53149 17.8906 6.42993 17.3671 6.42993C15.5234 6.42993 13.8593 7.70336 12.914 9.83618C12.8671 9.94555 12.7578 10.0159 12.6406 10.0237H12.6249C12.5078 10.0237 12.4062 9.96118 12.3515 9.85961C11.9687 9.17211 11.5078 8.48461 10.6953 8.13305C10.6406 8.10961 10.5937 8.07055 10.5546 8.01586C10.0624 7.24243 9.9765 6.17211 10.3359 5.09399C10.914 3.3518 12.4687 1.89086 14.5937 1.08618C14.6796 1.05493 14.7734 1.06274 14.8515 1.1018C17.5781 2.6018 18.8515 4.98461 19.3749 6.2893C19.4062 6.32836 19.4218 6.37524 19.4218 6.42993Z" fill="#E26F47"/>
<path d="M6.2972 10.3752C6.1722 10.6174 6.0472 10.8752 5.93783 11.1486C5.69564 11.7424 5.55501 12.3674 5.49251 13.0549C5.4847 13.1486 5.43001 13.2424 5.34408 13.2892C4.81283 13.6252 4.28939 13.797 3.7972 13.797C3.20345 13.797 2.64876 13.5549 2.14095 13.0705C2.10189 13.0314 2.07064 12.9845 2.05501 12.9299C1.81283 12.0627 1.68001 10.8908 1.68783 9.71111C1.68783 9.59392 1.75814 9.48455 1.8597 9.42986C1.96908 9.37517 2.09408 9.3908 2.18783 9.46111C2.8597 9.96111 3.57064 10.2111 4.37533 10.2111C4.61751 10.2111 4.86751 10.1877 5.12533 10.1408C5.38314 10.0939 5.64876 10.0236 5.9222 9.93767C6.03939 9.89861 6.18001 9.92986 6.25814 10.0314C6.34408 10.1252 6.35189 10.2658 6.2972 10.3752Z" fill="#E26F47"/>
</g>
<defs>
<clipPath id="clip0_602_36246">
<rect width="20" height="20" fill="white"/>
</clipPath>
</defs>
</svg>
