<svg width="24" height="24" viewBox="0 0 24 24" fill="none" xmlns="http://www.w3.org/2000/svg">
<g clip-path="url(#clip0_270_29514)">
<path d="M22.9499 16.228C20.9999 19.7249 16.7155 21.9937 12.028 21.9937C7.29361 21.9937 2.98111 19.7343 1.03111 16.2374C-0.440769 13.5937 -0.337644 10.6593 1.32173 7.96865C2.52173 6.09365 4.41548 5.14678 6.93736 5.14678C7.58423 5.14678 8.27798 5.20303 9.03736 5.33428C9.13111 5.35303 9.21548 5.3999 9.27173 5.4749C9.66548 5.97178 10.0499 6.25303 10.3499 6.28115C10.528 6.2999 10.6686 6.43115 10.6874 6.60928C10.7061 6.7874 10.603 6.95615 10.4342 7.0124C9.59048 7.30303 8.99048 7.75303 8.63423 8.38115C9.21548 7.71553 9.92798 7.19053 10.753 7.19053H10.7624C11.1374 7.1999 11.7374 7.4249 12.4311 7.6874C13.1624 7.95928 13.9967 8.26865 14.4374 8.26865H14.4561C14.6342 8.26865 14.803 8.29678 14.9624 8.34365C14.6436 8.15615 14.2592 8.01553 13.7999 7.9499C13.603 7.92178 13.4624 7.74365 13.4811 7.54678C13.4999 7.3499 13.6686 7.1999 13.8655 7.1999C14.2311 7.20928 14.6342 7.1624 15.0186 7.0874C14.5405 7.06865 14.1655 7.0124 13.8655 6.92803C13.7061 6.88115 13.5936 6.73115 13.603 6.55303C13.6124 6.38428 13.7249 6.23428 13.8936 6.19678C14.3717 6.09365 15.0467 5.72803 15.703 5.22178C15.7592 5.18428 15.8155 5.15615 15.8905 5.14678C16.3405 5.09053 16.7811 5.07178 17.1936 5.07178C19.6405 5.07178 21.478 5.9999 22.6499 7.8374C24.3467 10.5655 24.4499 13.5468 22.9499 16.228Z" fill="#EB573B"/>
<path d="M17.5594 6.7687C17.5312 6.90933 17.4937 7.1437 16.2281 7.54683C16.0406 7.61245 15.7687 7.68745 15.4687 7.75308C16.2562 8.25933 16.7437 8.99995 16.8562 9.68433C16.9406 10.2093 16.7812 10.6312 16.425 10.8093C16.3687 10.8375 16.3125 10.8468 16.2562 10.8468C16.2 10.8468 16.1437 10.8375 16.0875 10.8093C15.9844 10.7531 15.9094 10.6593 15.8906 10.5375C15.8812 10.4718 15.6094 9.02808 14.4656 9.00933H14.4562C13.875 9.00933 13.0125 8.69058 12.1875 8.37183C11.6437 8.16558 11.025 7.9312 10.7719 7.92183C9.975 7.9312 9.14062 8.7187 8.20312 10.3218C8.11875 10.4625 7.95 10.5375 7.78125 10.5C7.62187 10.4531 7.5 10.3125 7.5 10.1437C7.48125 8.52183 8.11875 7.34058 9.39375 6.63745C9.15937 6.45933 8.925 6.22495 8.68125 5.92495C8.1 5.1937 7.65 4.27495 7.44375 3.79683C6.88125 2.5312 6.99375 2.32495 7.04062 2.22183C7.10625 2.0812 7.2375 1.99683 7.39687 1.99683C7.65937 1.99683 7.77187 2.18433 7.96875 2.50308C8.3625 3.12183 9.24375 4.53745 11.3062 5.1937C11.5687 4.1812 12.3094 2.7562 12.9937 2.7562C13.4156 2.7562 13.8094 3.03745 14.0156 3.27183C14.2031 3.48745 14.2875 3.70308 14.2594 3.89995C14.2312 4.12495 14.0625 4.32183 13.7906 4.64058C13.6687 4.79058 13.5281 4.94995 13.3969 5.1187C14.1562 5.01558 15.0187 4.69683 15.675 4.45308C16.2562 4.23745 16.5469 4.13433 16.7625 4.13433C16.8844 4.13433 16.9969 4.17183 17.0812 4.24683C17.175 4.3312 17.2312 4.45308 17.2312 4.58433C17.2312 4.68745 17.2219 5.01558 16.1719 5.81245C16.0125 5.93433 15.7406 6.1312 15.4125 6.32808C15.7781 6.32808 16.1437 6.30933 16.4344 6.29995C16.65 6.29058 16.8375 6.2812 16.9781 6.2812C17.1375 6.2812 17.2219 6.29058 17.3062 6.3187C17.4937 6.40308 17.5969 6.59058 17.5594 6.7687Z" fill="#8FAE3C"/>
<path d="M5.82154 18.7219C5.74654 18.7219 5.67154 18.7031 5.60592 18.6563C2.59654 16.5094 1.51842 14.0531 1.99654 10.4344C2.02467 10.2281 2.21217 10.0875 2.41842 10.1156C2.62467 10.1438 2.76529 10.3313 2.73717 10.5375C2.28717 13.8844 3.24342 16.0594 6.03717 18.0563C6.20592 18.1781 6.24342 18.4125 6.12154 18.5813C6.05592 18.6656 5.94342 18.7219 5.82154 18.7219Z" fill="#DD4A36"/>
</g>
<defs>
<clipPath id="clip0_270_29514">
<rect width="24" height="24" fill="white"/>
</clipPath>
</defs>
</svg>
