<svg width="103" height="40" viewBox="0 0 103 40" fill="none" xmlns="http://www.w3.org/2000/svg">
<path d="M74.1761 4.60157L74.0004 2.97072C73.7841 2.99102 73.5543 3.00455 73.311 3.00455C72.3176 3.00455 71.1282 2.79478 69.9117 2.34815C68.2831 1.75942 66.9585 0.85941 66.2218 0L64.9851 1.07595C65.8028 2.0098 66.9855 2.85568 68.4115 3.50531C67.2829 6.69934 65.3501 9.50765 62.8428 11.6731V7.09859C62.8428 4.47299 60.714 2.34815 58.0919 2.34139C55.4698 2.34139 53.3477 4.46623 53.341 7.09859V16.0987C52.3475 16.2544 51.3338 16.3423 50.2999 16.3423C41.9604 16.3423 34.8847 11.0167 32.222 3.58652C33.7291 2.93012 34.9793 2.0504 35.8309 1.07595L34.5941 0C33.8507 0.85941 32.5329 1.75942 30.9042 2.34815C29.6878 2.79478 28.4984 3.00455 27.5049 2.99779C27.2616 2.99779 27.0319 2.98425 26.8156 2.96395L26.6399 4.5948C26.917 4.62187 27.2076 4.64217 27.5049 4.64217C28.4916 4.64217 29.5729 4.47299 30.6812 4.14141C33.5669 12.2077 41.2508 17.9799 50.2999 17.9799C59.3692 17.9799 67.0734 12.1739 69.9388 4.08051C71.1147 4.44593 72.2636 4.64217 73.3043 4.64217C73.6017 4.64217 73.8855 4.62863 74.1693 4.5948L74.1761 4.60157ZM54.99 7.09859C54.99 6.23918 55.3346 5.46098 55.9023 4.89932C56.47 4.33765 57.2404 3.98577 58.0987 3.98577C58.9569 3.98577 59.7341 4.33089 60.295 4.89932C60.8559 5.46774 61.2074 6.23918 61.2074 7.09859V12.9318C60.4775 13.4393 59.7138 13.8927 58.9164 14.2987V7.09859H57.2742V15.0228C56.5308 15.3137 55.7739 15.5709 54.9832 15.7671V7.09859H54.99Z" fill="#E8E8E8"/>
<path d="M4.9469 33.3615L4.91987 33.4968L4.9469 33.3615C3.73045 33.1044 2.98706 32.8201 2.56806 32.4953C2.15582 32.1705 2.03418 31.8186 2.02742 31.3111C2.02742 30.8442 2.23692 30.4314 2.62213 30.1269C3.00734 29.8224 3.56825 29.6329 4.26433 29.6329C5.37941 29.6329 6.37961 29.9848 7.39331 30.8103L7.50144 30.8983L8.39351 29.7073L8.29214 29.6261C7.14327 28.7058 5.94033 28.2253 4.29137 28.2253C3.20332 28.2253 2.25719 28.5502 1.58139 29.1186C0.90558 29.6802 0.493338 30.4923 0.493338 31.4194C0.493338 32.3735 0.804209 33.0976 1.45298 33.6254C2.095 34.1532 3.04788 34.5051 4.33867 34.7893C5.50106 35.033 6.21065 35.3036 6.60938 35.6217C7.00811 35.9397 7.12299 36.2848 7.12975 36.7924C7.12975 37.3202 6.90673 37.7533 6.50125 38.0646C6.09577 38.3759 5.50782 38.5653 4.7847 38.5653C3.2709 38.5653 2.20313 38.0578 1.05426 37.0225L0.952886 36.9277L0 38.0578L0.101371 38.1458C1.45298 39.3571 2.94651 39.9661 4.74416 39.9661C5.87275 39.9661 6.85943 39.6481 7.56227 39.0729C8.2651 38.4977 8.6841 37.6586 8.6841 36.657C8.6841 35.7706 8.37999 35.06 7.75149 34.5254C7.12299 33.9908 6.19714 33.6254 4.9469 33.3547V33.3615Z" fill="#E8E8E8"/>
<path d="M18.3962 29.3621C17.6393 28.726 16.5647 28.3877 15.2807 28.3877H10.9758V39.8104H12.5032V35.872H15.0712C16.2809 35.872 17.4027 35.554 18.2272 34.9179C19.0585 34.2818 19.5788 33.3208 19.5788 32.0689C19.5788 30.9253 19.1463 29.9915 18.3894 29.3554L18.3962 29.3621ZM17.2541 33.8081C16.754 34.2141 16.0173 34.4577 15.1185 34.4577H12.5032V29.8223H15.1861C16.0646 29.8223 16.781 30.0253 17.2743 30.411C17.7609 30.7968 18.0448 31.3516 18.0448 32.1299C18.0448 32.8336 17.7609 33.4088 17.2608 33.8148L17.2541 33.8081Z" fill="#E8E8E8"/>
<path d="M26.9511 28.1982C25.221 28.1982 23.7545 28.8885 22.7341 29.9712C21.7068 31.0539 21.1189 32.5359 21.1189 34.1126C21.1189 35.6893 21.7001 37.1645 22.7206 38.2405C23.7343 39.3164 25.194 39.9999 26.9241 39.9999C28.6541 39.9999 30.1206 39.3097 31.1411 38.227C32.1683 37.1442 32.7563 35.6623 32.7563 34.0855C32.7563 32.5088 32.1751 31.0336 31.1546 29.9577C30.1409 28.8817 28.6812 28.1982 26.9511 28.1982ZM26.9511 38.5721C24.4844 38.5721 22.7003 36.569 22.6935 34.0855C22.6935 31.602 24.4506 29.6328 26.9173 29.6328C29.384 29.6328 31.1681 31.6359 31.1749 34.1194C31.1749 36.6029 29.4178 38.5721 26.9511 38.5721Z" fill="#E8E8E8"/>
<path d="M40.4811 28.1982C38.7511 28.1982 37.2846 28.8885 36.2641 29.9712C35.2369 31.0539 34.6489 32.5359 34.6489 34.1126C34.6489 35.6893 35.2301 37.1645 36.2506 38.2405C37.2643 39.3164 38.724 39.9999 40.4541 39.9999C42.1842 39.9999 43.6507 39.3097 44.6711 38.227C45.6983 37.1442 46.2863 35.6623 46.2863 34.0855C46.2863 32.5088 45.7051 31.0336 44.6846 29.9577C43.6709 28.8817 42.2112 28.1982 40.4811 28.1982ZM40.4811 38.5721C38.0144 38.5721 36.2303 36.569 36.2236 34.0855C36.2236 31.602 37.9806 29.6328 40.4473 29.6328C42.914 29.6328 44.6982 31.6359 44.7049 34.1194C44.7049 36.6029 42.9478 38.5721 40.4811 38.5721Z" fill="#E8E8E8"/>
<path d="M56.8621 28.523V37.0698L50.0432 28.3877H48.6646V39.8104H50.1648V30.9186L57.1527 39.8104H58.3556V28.3877H56.8621V28.523Z" fill="#E8E8E8"/>
<path d="M64.5801 29.8223H68.324V39.8104H69.8649V39.6751V29.8223H73.6088V28.3877H64.5801V29.8223Z" fill="#E8E8E8"/>
<path d="M75.8052 28.3877V39.8104H77.3325V28.3877H77.1973H75.8052Z" fill="#E8E8E8"/>
<path d="M85.7869 34.363L81.8064 28.3877H80.3264V39.8104H81.8199V31.0945L85.672 36.7517H85.8072H85.8748L85.9153 36.6908L89.7269 31.081V39.8104H91.2542V28.3877H89.7742L85.7869 34.363Z" fill="#E8E8E8"/>
<path d="M95.6667 38.3961V34.7622H101.742V33.3411H95.6667V29.8088H102.459V29.6734V28.3877H94.1394V39.8104H102.54V38.3961H95.6667Z" fill="#E8E8E8"/>
</svg>
